<svg xmlns="http://www.w3.org/2000/svg" viewBox="0 0 125.47 126"><defs><style>.cls-1{fill:#231815;}</style></defs><g id="레이어_2" data-name="레이어 2"><g id="Layer_1" data-name="Layer 1"><path d="M25.09,104.93V99.55a57.75,57.75,0,0,1-10.75-4.8A58.61,58.61,0,0,1,0,83.11a65,65,0,0,0,17.57,26.24c3-.27,6-.67,9-1.17A4.36,4.36,0,0,1,25.09,104.93Z"/><path d="M117.78,30.78A64.92,64.92,0,0,0,81.07,0,58.07,58.07,0,0,1,98.63,26.12a93.89,93.89,0,0,1,6.45,34.34c0,.69,0,1.42,0,2.24A93.76,93.76,0,0,1,97.7,97.05v7.88a4.42,4.42,0,0,1-4.42,4.42H91.43a92.72,92.72,0,0,1-9.61,13.16,64.66,64.66,0,0,0,36-91.73Z"/><path d="M39.9,109.35A120,120,0,0,1,22,113,64.72,64.72,0,0,0,74.28,124.6a90,90,0,0,0,12.34-15.25Z"/><path d="M100.76,53.79A57.22,57.22,0,0,1,96.93,67a4.41,4.41,0,0,1,.77,2.48v15.3A90.4,90.4,0,0,0,101,62.6c0-.79,0-1.48,0-2.14C101,58.23,100.93,56,100.76,53.79Z"/><path class="cls-1" d="M29.46,102.06h1.75c1.08,0,1.91.28,1.91,1.17a1.07,1.07,0,0,1-.72,1v0a1.11,1.11,0,0,1,1,1.12c0,1-.88,1.4-2,1.4H29.46ZM31.13,104c.67,0,1-.24,1-.62s-.31-.58-.94-.58h-.63V104Zm.12,2.09c.72,0,1.12-.23,1.12-.72s-.39-.67-1.12-.67h-.73v1.39Z"/><path class="cls-1" d="M35.17,102.06H37c1.11,0,2,.35,2,1.44a1.37,1.37,0,0,1-1,1.37l1.23,1.94H38.05L37,105h-.73v1.8H35.17Zm1.74,2.2c.68,0,1.06-.25,1.06-.76s-.38-.69-1.06-.69h-.68v1.45Z"/><path class="cls-1" d="M40.89,102.06h3.24v.79H42V104H43.8v.8H42V106h2.26v.79H40.89Z"/><path class="cls-1" d="M45.62,102.06h1.07l.42,2.32.24,1.51h0c.11-.51.22-1,.33-1.51l.62-2.32h.9l.61,2.32c.11.49.22,1,.33,1.51h0c.08-.51.16-1,.24-1.51l.42-2.32h1l-1,4.75H49.58l-.6-2.35c-.08-.37-.16-.74-.22-1.1h0c-.07.36-.15.73-.23,1.1l-.58,2.35H46.63Z"/><path class="cls-1" d="M55.72,104.46A2.37,2.37,0,0,1,58.17,102a2.27,2.27,0,0,1,1.55.61l-.55.61a1.41,1.41,0,0,0-2.37,1.23c0,1,.54,1.66,1.37,1.66a1.49,1.49,0,0,0,1.09-.47l.56.59a2.23,2.23,0,0,1-1.68.7A2.29,2.29,0,0,1,55.72,104.46Z"/><path class="cls-1" d="M61,104.42a2.36,2.36,0,1,1,4.72,0,2.36,2.36,0,1,1-4.72,0Zm3.64,0c0-1-.49-1.63-1.28-1.63s-1.28.61-1.28,1.63.5,1.66,1.28,1.66S64.62,105.43,64.62,104.42Z"/><path class="cls-1" d="M67.59,102.06h1.17l.9,2.22c.11.3.21.61.32.91h0c.12-.3.21-.61.33-.91l.87-2.22h1.17v4.75h-1v-2c0-.45.08-1.11.13-1.56h0l-.43,1.12-.81,2h-.61l-.82-2-.42-1.12h0c0,.45.14,1.11.14,1.56v2h-1Z"/><path class="cls-1" d="M74.53,102.06h1.74c1.17,0,2.06.37,2.06,1.49s-.9,1.57-2,1.57h-.7v1.69H74.53Zm1.69,2.31c.73,0,1.08-.27,1.08-.82s-.38-.74-1.11-.74h-.6v1.56Z"/><path class="cls-1" d="M80.76,102.06H82l1.69,4.75h-1.1l-.37-1.22H80.51l-.37,1.22H79.07Zm0,2.79H82l-.16-.52c-.16-.49-.3-1-.45-1.55h0c-.13.52-.29,1.06-.45,1.55Z"/><path class="cls-1" d="M85.17,102.06h1.08l1.53,2.53.53,1h0c0-.5-.13-1.12-.13-1.66v-1.9h1v4.75H88.14l-1.53-2.54-.53-1h0c0,.51.13,1.11.13,1.66v1.9h-1Z"/><path class="cls-1" d="M92.26,105.07l-1.59-3h1.12l.53,1.16c.15.35.29.68.46,1h0c.16-.37.32-.7.47-1l.52-1.16h1.1l-1.59,3v1.74h-1Z"/><path d="M39.37,9.31c-1.19,0-2.15,1.42-2.15,3.18L34.84,56l-7,10.79V96.13c0,1.76,1,3.18,2.15,3.18H41.55V94.8h-8c-.6,0-1.09-.73-1.09-1.62V68.24l7-10.79h0l2.38-42c0-.89.49-1.62,1.09-1.62h.75V9.31Z"/><path d="M47.82,99.31h9.36c1.19,0,2.16-1.42,2.16-3.18V68.24H54.79V93.18c0,.89-.49,1.62-1.1,1.62H51.31c-.6,0-1.09-.73-1.09-1.62V68.24H45.67V96.13C45.67,97.89,46.63,99.31,47.82,99.31Z"/><path d="M75,68.24H65.6c-1.19,0-2.15,1.43-2.15,3.19V99.31H68V74.38c0-.9.49-1.63,1.1-1.63h2.37c.61,0,1.1.73,1.1,1.63V99.31h4.55V71.43C77.12,69.67,76.16,68.24,75,68.24Z"/><path class="cls-1" d="M92.75,68.24H83.39c-1.19,0-2.16,1.43-2.16,3.19V99.31h4.55V91.59h4.57v7.72H94.9V71.43C94.9,69.67,93.94,68.24,92.75,68.24Zm-7,18.8V74.38c0-.9.49-1.63,1.1-1.63h2.37c.61,0,1.1.73,1.1,1.63V87Z"/></g></g></svg>