<svg xmlns="http://www.w3.org/2000/svg" viewBox="0 0 10.54 12.96"><defs><style>.cls-1{fill:#fff;}</style></defs><g id="레이어_2" data-name="레이어 2"><g id="레이어_1-2" data-name="레이어 1"><path class="cls-1" d="M8.8,6.89a2.94,2.94,0,0,1,1.41-2.47A3,3,0,0,0,7.83,3.14c-1-.11-2,.59-2.48.59s-1.3-.58-2.14-.57A3.15,3.15,0,0,0,.55,4.79c-1.15,2-.3,4.92.81,6.53.55.79,1.19,1.67,2,1.64s1.13-.53,2.13-.53,1.27.53,2.13.5,1.44-.79,2-1.58a6.86,6.86,0,0,0,.9-1.84A2.87,2.87,0,0,1,8.8,6.89Z"/><path class="cls-1" d="M7.18,2.08A2.9,2.9,0,0,0,7.84,0,3,3,0,0,0,5.93,1a2.77,2.77,0,0,0-.68,2A2.48,2.48,0,0,0,7.18,2.08Z"/></g></g></svg>