<svg xmlns="http://www.w3.org/2000/svg" xmlns:xlink="http://www.w3.org/1999/xlink" viewBox="0 0 15.07 21.67"><defs><style>.cls-1{fill:none;}.cls-2{fill:#5ac9f4;}.cls-3{clip-path:url(#clip-path);}.cls-4{fill:url(#linear-gradient);}.cls-5{clip-path:url(#clip-path-2);}.cls-6{fill:url(#linear-gradient-2);}.cls-7{clip-path:url(#clip-path-3);}.cls-8{fill:url(#linear-gradient-3);}</style><clipPath id="clip-path" transform="translate(3.07 4.31)"><path class="cls-1" d="M8.65,8.7,6.56,6.6V6.45L8.65,4.36l2.53,1.43c.71.41.71,1.06,0,1.47L8.7,8.67l0,0"/></clipPath><linearGradient id="linear-gradient" x1="-47.33" y1="52" x2="-46.82" y2="52" gradientTransform="matrix(-24.18, 0, 0, 24.18, -1130.4, -1246.47)" gradientUnits="userSpaceOnUse"><stop offset="0" stop-color="#fee000"/><stop offset="0.4" stop-color="#fcbe0d"/><stop offset="0.77" stop-color="#faa417"/><stop offset="1" stop-color="#f99b1b"/></linearGradient><clipPath id="clip-path-2" transform="translate(3.07 4.31)"><path class="cls-1" d="M8.7,8.67,6.56,6.53.23,12.85a.83.83,0,0,0,1.06,0L8.7,8.67"/></clipPath><linearGradient id="linear-gradient-2" x1="-47.46" y1="52.7" x2="-46.95" y2="52.7" gradientTransform="matrix(-32.16, 0, 0, 32.16, -1517.96, -1684.92)" gradientUnits="userSpaceOnUse"><stop offset="0" stop-color="#ef4547"/><stop offset="1" stop-color="#c6176d"/></linearGradient><clipPath id="clip-path-3" transform="translate(3.07 4.31)"><path class="cls-1" d="M8.7,4.38,1.29.17A.83.83,0,0,0,.23.2L6.56,6.53,8.7,4.38"/></clipPath><linearGradient id="linear-gradient-3" x1="-45.93" y1="53.57" x2="-45.42" y2="53.57" gradientTransform="matrix(0, 26.26, 26.26, 0, -1402.16, 1196.5)" gradientUnits="userSpaceOnUse"><stop offset="0" stop-color="#269e6f"/><stop offset="0.05" stop-color="#2ba06f"/><stop offset="0.47" stop-color="#53b26b"/><stop offset="0.8" stop-color="#6bbd69"/><stop offset="1" stop-color="#74c168"/></linearGradient></defs><g id="레이어_2" data-name="레이어 2"><g id="레이어_1-2" data-name="레이어 1"><path class="cls-2" d="M.23.2A1.06,1.06,0,0,0,0,.91V12.14a1.06,1.06,0,0,0,.23.71l0,0L6.56,6.6V6.45L.27.16l0,0" transform="translate(3.07 4.31)"/><g class="cls-3"><rect class="cls-4" x="9.62" y="8.67" width="5.33" height="4.34"/></g><g class="cls-5"><rect class="cls-6" x="-0.86" y="4.5" width="10.66" height="10.66" transform="translate(-2.57 10.35) rotate(-45)"/></g><g class="cls-7"><rect class="cls-8" x="-0.86" y="-2.1" width="10.66" height="10.66" transform="translate(2.09 8.41) rotate(-45)"/></g></g></g></svg>