<svg xmlns="http://www.w3.org/2000/svg" viewBox="0 0 477.49 409.84"><defs><style>.cls-1{fill:#eae4cc;}.cls-2,.cls-3{fill:#333;}.cls-3,.cls-4{fill-rule:evenodd;}.cls-4{fill:#f5f2e1;}</style></defs><g id="레이어_2" data-name="레이어 2"><g id="백그라운드_1" data-name="백그라운드 1"><path class="cls-1" d="M245.42,313.52c0,.19-.32.36-.49.53-.18-.17-.5-.34-.52-.53a17.72,17.72,0,0,1,0-1.93h0a7.76,7.76,0,0,1,.12-1.37c.06-.23.37-.41.56-.61.15.2.41.4.42.61Q245.5,311.87,245.42,313.52Z"/><path class="cls-1" d="M248.52,259.82c-.24,3.21-.55,6.42-.77,9.64-.43,6.57-.85,13.14-1.2,19.72-.19,3.67-.21,7.36-.34,11,0,.26-.27.51-.41.77-.22-.24-.54-.44-.65-.73a3,3,0,0,1-.08-1.09c.11-3.59.2-7.18.36-10.77.21-4.6.39-9.2.72-13.79.37-5.05.88-10.09,1.33-15.14,0-.45,0-1,.6-1.11C248.78,258.69,248.56,259.3,248.52,259.82Z"/><path class="cls-1" d="M245.55,255.14a7.56,7.56,0,0,1-.05,1.5c-.62,5.22-1.27,10.44-1.61,13.26a262.11,262.11,0,0,0-1,27.69c0,3.92,0,7.84.06,11.75a196.49,196.49,0,0,0,1.22,20.15c.51,4.48,1.21,8.94,1.83,13.41a1.83,1.83,0,0,1,.08.68,4,4,0,0,1-.42.75c-.22-.2-.58-.38-.63-.62-.32-1.58-.61-3.16-.84-4.76a207,207,0,0,1-2.26-27.12c-.1-6.5-.23-13-.2-19.5a224.43,224.43,0,0,1,1.33-25.13c.45-3.8,1-7.59,1.44-11.39a2,2,0,0,1,.11-.67c.09-.18.32-.39.47-.38S245.54,255,245.55,255.14Z"/><path class="cls-1" d="M252.11,337.29c.14,1,.39,2.09.53,3.13a2.06,2.06,0,0,1-.26.82,3,3,0,0,1-.79-.59,2.28,2.28,0,0,1-.24-.92c-1-6.65-2.12-13.29-2.64-20a14.17,14.17,0,0,1,0-2.06c0-.19.3-.36.57-.65a3.24,3.24,0,0,1,.41.82c.09.63.09,1.28.17,1.92Q251,328.54,252.11,337.29Z"/><path class="cls-1" d="M249,307.94c.1,0,.43.25.43.4a20.16,20.16,0,0,1,0,3.72c-.67.18-.94-.09-1-.49-.06-1.05-.07-2.11,0-3.16C248.45,308.24,248.77,308,249,307.94Z"/><path class="cls-1" d="M238.15,287.13c0-2.76-.07-5.53,0-8.29.31-7.23,1.36-14.4,2-21.61a115.83,115.83,0,0,1,2.85-15.48.7.7,0,0,1,0-.14c.19-.45.26-1.17.9-1s.29.81.19,1.27a115.36,115.36,0,0,0-2.68,13.69c-.69,6.92-1.47,13.84-2,20.78-.29,3.57-.17,7.18-.24,10.77,0,.4-.05.79-.09,1.3C238.15,288.27,238.15,287.67,238.15,287.13Z"/><path class="cls-1" d="M238.77,319.38a128,128,0,0,1-1-20.8,11.78,11.78,0,0,1,.28-2c.1-.49.39-.85,1-.58a2.17,2.17,0,0,1,.08.51,85.92,85.92,0,0,0-.06,15.3c.15,2.52.51,5,.76,7.55.05.51.37,1.32-.35,1.41S238.85,319.91,238.77,319.38Z"/><path class="cls-2" d="M244.6,255.14a2,2,0,0,0-.11.67c-.48,3.8-1,7.59-1.44,11.39a224.43,224.43,0,0,0-1.33,25.13c0,6.5.1,13,.2,19.5A207,207,0,0,0,244.18,339c.23,1.6.52,3.18.84,4.76,0,.24.41.42.63.62a4,4,0,0,0,.42-.75,1.83,1.83,0,0,0-.08-.68c-.62-4.47-1.32-8.93-1.83-13.41a196.49,196.49,0,0,1-1.22-20.15c-.05-3.91,0-7.83-.06-11.75a262.11,262.11,0,0,1,1-27.69c.34-2.82,1-8,1.61-13.26a7.56,7.56,0,0,0,.05-1.5c0-.15-.3-.38-.48-.38S244.69,255,244.6,255.14Z"/><path class="cls-2" d="M239.25,287.11c.07-3.59-.05-7.2.24-10.77.55-6.94,1.33-13.86,2-20.78a115.36,115.36,0,0,1,2.68-13.69c.1-.46.55-1.08-.19-1.27s-.71.56-.9,1a.7.7,0,0,0,0,.14,115.83,115.83,0,0,0-2.85,15.48c-.66,7.21-1.71,14.38-2,21.61-.12,2.76-.06,5.53,0,8.29,0,.54,0,1.14,1,1.28C239.2,287.9,239.24,287.51,239.25,287.11Z"/><path class="cls-2" d="M247.48,259.47c-.45,5-1,10.09-1.33,15.14-.33,4.59-.51,9.19-.72,13.79-.16,3.59-.25,7.18-.36,10.77a3,3,0,0,0,.08,1.09c.11.29.43.49.65.73.14-.26.4-.51.41-.77.13-3.68.15-7.37.34-11,.35-6.58.77-13.15,1.2-19.72.22-3.22.53-6.43.77-9.64,0-.52.26-1.13-.44-1.46C247.49,258.52,247.52,259,247.48,259.47Z"/><path class="cls-2" d="M239.88,319.32c-.25-2.52-.61-5-.76-7.55a85.92,85.92,0,0,1,.06-15.3,2.17,2.17,0,0,0-.08-.51c-.65-.27-.94.09-1,.58a11.78,11.78,0,0,0-.28,2,128,128,0,0,0,1,20.8c.08.53-.1,1.46.76,1.35S239.93,319.83,239.88,319.32Z"/><path class="cls-2" d="M249.66,317.84a3.24,3.24,0,0,0-.41-.82c-.27.29-.56.46-.57.65a14.17,14.17,0,0,0,0,2.06c.52,6.71,1.59,13.35,2.64,20a2.28,2.28,0,0,0,.24.92,3,3,0,0,0,.79.59,2.06,2.06,0,0,0,.26-.82c-.14-1-.39-2.08-.53-3.13q-1.16-8.76-2.28-17.53C249.75,319.12,249.75,318.47,249.66,317.84Z"/><path class="cls-2" d="M245,309.61c-.19.2-.5.38-.56.61a7.76,7.76,0,0,0-.12,1.37h0a17.72,17.72,0,0,0,0,1.93c0,.19.34.36.52.53.17-.17.48-.34.49-.53q.08-1.65,0-3.3C245.44,310,245.18,309.81,245,309.61Z"/><path class="cls-2" d="M248.45,308.41c0,1,0,2.11,0,3.16,0,.4.29.67,1,.49a20.16,20.16,0,0,0,0-3.72c0-.15-.33-.43-.43-.4S248.45,308.24,248.45,308.41Z"/><path class="cls-2" d="M406.76,186.22C380.55,188,354.29,189.14,328,189s-52.52-1.68-78.73-3.16c-.6,0-.74,1-.13,1.06,51.79,7.49,105.79,6.56,157.62-.32C407,186.57,407,186.2,406.76,186.22Z"/><path class="cls-2" d="M261.48,396.25c-7-11-12.92-22.11-16.82-34.61a171,171,0,0,1-7-39.18c-2-29.07,1.28-58.34,3.18-87.32,1.09-16.57,2.32-33.16,2.67-49.75,0-.43-.6-.41-.65,0-3.7,30-5.58,60.39-7.55,90.55-1.84,28.13-2.34,57.06,6,84.3,4,13.15,10,26.49,19.06,36.94C260.85,397.83,262,397,261.48,396.25Z"/><path class="cls-2" d="M390.65,396.25c7-11,12.92-22.11,16.82-34.61a171,171,0,0,0,7-39.18c2-29.07-1.28-58.34-3.18-87.32-1.09-16.57-2.32-33.16-2.66-49.75,0-.43.6-.41.65,0,3.69,30,5.57,60.39,7.54,90.55,1.84,28.13,2.34,57.06-6,84.3-4,13.15-10,26.49-19.06,36.94C391.28,397.83,390.18,397,390.65,396.25Z"/><path class="cls-2" d="M476.3,261.77c-1-12.35-1-29.74-11.45-38.44a.34.34,0,0,0-.48.49c5.61,7,6.13,15.64,7.1,24.19s1.71,17.2,2.11,25.83c.83,17.71,1.49,36.73-2.61,54.09-3.64,15.46-13,29.45-29.18,33.28-12.24,2.91-30.69,1.36-38,14a1.18,1.18,0,0,0,1.84,1.42A36.65,36.65,0,0,1,422.23,368c6.75-1.56,13.74-1.78,20.5-3.38,11.11-2.64,19.84-9.84,25.48-19.68,6.52-11.35,8.2-24.67,8.85-37.53A345.54,345.54,0,0,0,476.3,261.77Z"/><path class="cls-2" d="M453.67,266c-.6-8.25-.68-19.68-8.61-24.66-3.61-2.27-8-2.68-12.19-2.8s-8.82-.27-12.58,2c-8.31,5.13-8,16-6.28,24.37.22,1.05,1.84.78,1.85-.25.11-8.53-.35-21.31,10.89-22.61,8-.94,18.17-.22,21.45,8.41,3,7.91,3.25,17.38,3.82,25.73a213,213,0,0,1,.15,27.33c0,.2.28.19.3,0A187.25,187.25,0,0,0,453.67,266Z"/><path class="cls-2" d="M457.27,221.43C451,217,443.46,216.05,436,215.6s-22.9,1.33-23.79-9.51a.91.91,0,0,0-1.78-.24c-2.64,7.52,5.5,11.59,11.67,12.37,11.92,1.5,23.76-1.93,35.15,3.33A.07.07,0,0,0,457.27,221.43Z"/><path class="cls-2" d="M451.42,315.21c-2.09,7-6,15-12.22,19.14-4.1,2.73-21.93,8.4-23-.24a1,1,0,0,0-1.88-.26c-3,10.43,15.51,6.71,20.11,5,9.79-3.57,15.67-13.65,17.4-23.55A.23.23,0,0,0,451.42,315.21Z"/><path class="cls-2" d="M393,394.87c-22.27,5.86-45.69,6.64-68.58,7.27-22.39.61-44.11-1.6-65.37-9.1-.84-.3-1.38,1.07-.59,1.48,20.15,10.54,43.86,11.42,66,10.79,11.92-.34,23.9-1,35.77-2.16,11.36-1.09,22.59-2.78,33-7.73C393.52,395.27,393.29,394.79,393,394.87Z"/><path class="cls-2" d="M275.42,361.74q-.53-26.67-1-53.34-.48-26.23-1-52.46-.27-13.11-.56-26.23c-.11-4.9,1.11-13.33-3.16-17.05-3.86-3.38-8.3-.36-10.3,3.38-3.53,6.57-3,15.45-1.75,22.54,0,.2.39.16.37-.05a49.21,49.21,0,0,1,.28-13c.58-3.52,1.55-9.3,5.14-11.16,8.25-4.27,6.5,17.86,6.57,21.46q.48,24,1.07,48.09T272.28,332q.32,12.24.6,24.48c.09,4.08.2,8.16.28,12.24a35.05,35.05,0,0,1,0,4.1c-.33,3.37-3.86,9.84-8.24,5.39-.32-.33-1,.12-.66.51a5.69,5.69,0,0,0,8.29.52C277.06,375.32,275.53,366.89,275.42,361.74Z"/><path class="cls-2" d="M308.44,215.18c-2.71-3.23-6.91-4.67-10.87-2.8-4.22,2-6.2,6.47-6.86,10.86-1.08,7.15-.45,14.83-.33,22,.47,30.79,1.28,61.68,3.23,92.42.52,8.18.87,16.39,1.44,24.57.5,7,1.56,14,4.7,20.36.25.52,1,.06.76-.45-6.07-14.09-4.65-31.19-5.08-46.23-.44-15.69-1.27-31.37-1.68-47.07s-.45-31.39-.27-47.09c.08-6.88-1.48-16.75,2-23,2.47-4.46,7.67-5.94,11.5-2.14,3.38,3.34,3.75,8.28,4.09,12.75a.36.36,0,0,0,.72,0C311.74,224.61,311.71,219.08,308.44,215.18Z"/><path class="cls-2" d="M315.27,364.23c-.17-9.64-.55-19.28-1-28.91-.83-19.42-1.41-38.86-2.11-58.28a.1.1,0,1,0-.19,0q.33,26.93.69,53.86c.11,8.83.12,17.66.32,26.49.18,7.94,1.13,16.24-3.41,23.23-.44.68.56,1.43,1.12.86C315.25,376.89,315.38,370.34,315.27,364.23Z"/><path class="cls-2" d="M341.77,213.12c-4.13,1.65-6,5.62-6.49,9.83-.9,7.72,0,15.91.14,23.66.59,33.68,1.45,67.36,2.22,101,.21,9-.63,18.54.65,27.43.56,3.92,4,8.42,8.2,5.45a.65.65,0,0,0-.65-1.12c-6.58,3.56-5.91-9.06-6-12.43l-.18-11.42c-.13-7.91-.19-15.82-.31-23.73-.23-15.22-.38-30.45-.59-45.68s-.41-30.46-.68-45.69c-.07-4.1-.17-8.2-.23-12.3-.05-3.14-.18-6.54,1.28-9.41a8.64,8.64,0,0,1,10.25-4.13c4.61,1.65,6.21,7,4.84,11.37,0,.09.12.15.15.06A9.75,9.75,0,0,0,341.77,213.12Z"/><path class="cls-2" d="M355.78,234.05c0-.05-.09-.05-.09,0,.6,29.94,2.39,59.82,2.57,89.78a.37.37,0,0,0,.73,0C358.81,294,358.66,263.76,355.78,234.05Z"/><path class="cls-2" d="M381.51,211.4c-4.56,2.58-5.41,8-5.56,12.76-.25,8.16-.08,16.36-.1,24.52q-.15,49.47-.09,98.94c0,8.05-.9,16.64.13,24.62.48,3.78,2.25,8.45,6.78,8,.87-.1.94-1.43,0-1.4-7.56.2-5.18-16.53-5.17-20.84,0-7.56.11-15.13.17-22.69q.19-23.85.24-47.7t.14-47.7c0-3.53,0-7.07,0-10.6,0-4.23-.59-9.37,1.5-13.24,2.61-4.84,8.29-5.11,11-.42a18.35,18.35,0,0,1,2.07,8.94.24.24,0,0,0,.48,0C393.72,218.31,390,206.6,381.51,211.4Z"/><path class="cls-2" d="M390.72,157.44c-12.48-7.26-26.73-10.4-41.1-11.52-29-2.25-62.24-.79-88.63,12.34-10.1,5-23.93,16.67-17.46,29.1.31.6,1.33.18,1.11-.46-3-8.63,3.2-17.05,10-22,6.11-4.46,13.42-7.26,20.63-9.51,15.57-4.87,31.94-6.65,48.23-7.07,16-.41,32.5-.12,48,4.15a80.45,80.45,0,0,1,22.51,10c7.88,5.13,16.28,12.3,14.31,22.56-.12.63.83.91,1,.27C412.57,172.57,400.65,163.21,390.72,157.44Z"/><path class="cls-2" d="M256.78,305.78c-.19-19.41.21-38.81.63-58.21,0-.08-.12-.08-.13,0-1.33,19.37-1.69,38.8-1.57,58.21s.41,38.9,2.27,58.19c0,.36.6.38.59,0C258.08,344.56,257,325.2,256.78,305.78Z"/><path class="cls-2" d="M395,288.45c-.12-19.45-.27-39-1.75-58.4,0-.08-.13-.08-.13,0-.12,19.46.57,38.93.67,58.4s-.3,38.94-.32,58.41a.41.41,0,0,0,.82,0C395.17,327.41,395.13,307.91,395,288.45Z"/><path class="cls-2" d="M445.24,224.06c-5-.71-10-.42-15-.33-6.18.11-19,.67-19.34-8.21,0-.59-.94-.77-1.07-.14-2,9.87,12.39,10.37,18.75,10.3,12-.14,29.26-2.77,34.47,11.56a.09.09,0,0,0,.18-.05C460.79,229.16,453.11,225.18,445.24,224.06Z"/><path class="cls-2" d="M443,226.89c-10.86-1.83-25.9,4.27-31.94-8.07a.71.71,0,0,0-1.31.36c.33,9.14,11.86,10.33,18.73,9.83,12-.87,27.45-2.29,32.76,11.48.05.11.23.07.19-.06C458.84,232.26,451,228.23,443,226.89Z"/><path class="cls-2" d="M441.23,230.61c-9.89-1.3-26,4.28-30-8.69-.19-.63-1.22-.55-1.18.16.53,8.55,10.35,10.55,17.3,10.26,11.89-.49,25.66-1.86,31.54,11a.08.08,0,0,0,.14-.06C456.66,235.59,448.76,231.61,441.23,230.61Z"/><path class="cls-2" d="M439,234.58c-8.59-1.19-22,2-27.22-6.9a.53.53,0,0,0-1,.41c1.14,6.66,9.88,7.32,15.24,7.53,10.77.42,23-1,30,9,0,.06.13,0,.1-.05C452.8,238.34,445.61,235.49,439,234.58Z"/><path class="cls-2" d="M440.16,237.32c-4.4-.58-8.86-.79-13.29-1-4.66-.2-11.58.85-13.85-4.23-.3-.66-1.29-.29-1.3.35-.12,6.66,9.08,5.73,13.45,5.82,10.45.19,22.34-1.68,28.58,8.57a.09.09,0,0,0,.15-.08C451.32,241.12,446.17,238.12,440.16,237.32Z"/><path class="cls-2" d="M425.71,238.9c-4.2.41-9.91.66-12-3.87-.59-1.32-2.92-.36-2.35,1l.13.31h0v0a24.84,24.84,0,0,0,1.46,3c.25,4.61-1,9.77,1,14.07a1.24,1.24,0,0,0,2.3-.63c-.16-2.12-.2-4.23-.24-6.33a1.3,1.3,0,0,0,1-1.31c0-.36,0-.72,0-1.08a12.32,12.32,0,0,0,3-1.53,1.32,1.32,0,0,0,.39-1.86,27.46,27.46,0,0,0,5.25-1.23C426.06,239.34,426,238.87,425.71,238.9Z"/><path class="cls-2" d="M465.73,251.25c0-.09-.16-.1-.15,0,2.31,28.27,4.08,56.27-2.78,84.08a.27.27,0,0,0,.52.14C471.6,308.33,468.72,279,465.73,251.25Z"/><path class="cls-2" d="M463.26,255.24c0-.09-.15-.09-.14,0,2.11,24.16,3.35,48.53-1.84,72.39a.3.3,0,0,0,.57.16C468.33,304.06,465.51,279.34,463.26,255.24Z"/><path class="cls-2" d="M461.37,263.45c0-.19-.3-.19-.29,0,.47,19.25.67,38.5-2.56,57.54,0,.3.38.43.45.13C463.13,302.17,462.23,282.7,461.37,263.45Z"/><path class="cls-2" d="M457.49,268c0-.1-.17-.11-.17,0,0,17.15.77,33.61-2.94,50.51a.28.28,0,0,0,.53.15C459.5,302.5,459,284.6,457.49,268Z"/><path class="cls-2" d="M452.77,335.61a26.76,26.76,0,0,1-24.23,15.67c-3.34.06-17.66-2.51-17.13,4.07.06.7,1.17,1,1.32.18.41-2.26,4.32-2.61,5.88-2.67,1.11-.05,2.21,0,3.31,0,2.48,0,5,.12,7.44,0a26.12,26.12,0,0,0,23.46-17.17S452.78,335.58,452.77,335.61Z"/><path class="cls-2" d="M453.84,340.57c-4.59,10.66-16.22,13.31-26.78,13.2-6.14-.06-16.1-.69-18.44,6.77a.62.62,0,0,0,1,.59c7.42-8,19.09-4.41,28.78-7.17,7-2,13.07-6.32,15.51-13.36C454,340.55,453.86,340.52,453.84,340.57Z"/><path class="cls-2" d="M456.77,343.3c-2.95,5-6.8,9.2-12.1,11.75-5.71,2.75-12,2.58-18.13,2.85-7.07.31-16.55,1.93-19.33,9.47a.76.76,0,0,0,1.26.74c8.14-9.63,19.09-7.11,30.15-9.64a26.07,26.07,0,0,0,18.25-15.13A.05.05,0,0,0,456.77,343.3Z"/><path class="cls-2" d="M433.32,341.15a27.46,27.46,0,0,1-9.52.42,22.58,22.58,0,0,1-4.14-.67c-2.27-.77-2.83-2.38-3.69-4.32a.64.64,0,0,0-1.17.15c-1.58,8.63,14.38,6.89,18.59,4.57A.08.08,0,0,0,433.32,341.15Z"/><path class="cls-2" d="M429.41,344a14.37,14.37,0,0,1-7.66.66c-3.35-.48-6.5-1.08-6.91-5.11a.74.74,0,0,0-1.44-.19c-3,8.45,12.17,6.94,16.12,4.92C429.67,344.2,429.57,343.93,429.41,344Z"/><path class="cls-2" d="M423.88,348.27c-1.74-.28-3.47-.49-5.22-.71s-3.38-.84-4.86,0a.82.82,0,0,0,0,1.4c1.43.69,2.7.14,4.23-.07,1.93-.26,3.88-.34,5.82-.44C424,348.46,424,348.29,423.88,348.27Z"/><path class="cls-2" d="M410,330.37a54.91,54.91,0,0,1-3.34,14.72c-2.19,5.7-6.69,9.5-5,15.87-.65-2.48-3-3.36-5.33-3l-1.28.18a4.19,4.19,0,0,0-3,3c-.42,1.91-2.3,23.06-10,16.71-1-.86-2.7.21-1.95,1.5,1.74,3,4.66,3.9,8,2.68,2.3-.85,3.8-2.73,5.05-4.74,1.56-2.51,3.46-10.79,3.49-10.81.84-.55,3.23.14,4.66-.92,2.2-1.63,3.38-5.5,4.34-7.84a70.12,70.12,0,0,0,5-27.34A.3.3,0,0,0,410,330.37Z"/><path class="cls-2" d="M398.79,360.79c-.32-1.36-2.24-1-2.32.31-.69,10.22.54,21.93-9.82,28-8,4.74-18,4-26.9,6.1-.29.07-.16.49.12.44,10.76-1.77,24.33.95,32.88-7.57C399.56,381.29,400.88,369.74,398.79,360.79Z"/><path class="cls-2" d="M364,357.7c-2.06,1.15-2.73,3.5-3.3,5.59-2.2,8-5.75,14.87-14.45,17.21-5.17,1.39-7.23-1.57-10.48-4.61-.7-.65-1.11-1.7-2-2.16-3.51-1.84-7.9.69-11.25,1.29-2.71.5-5,.24-7,2.54-.62.73-.7,1.75-1.24,2.47q-1,5-6.31,7.57-11.12-.32-10.36-9.69a1.46,1.46,0,0,0-1-1.77c-7-1.2-14-1.79-21-2.56a3.16,3.16,0,0,0-3.17,3.16c1.91,16.9,20.14,17.7,34,19.58a153.39,153.39,0,0,0,56.39-3.11c.52-.12.3-.9-.22-.8a167.15,167.15,0,0,1-42.69,3.2,144.59,144.59,0,0,1-22.71-3c-8.79-1.92-16.22-3.22-18.06-12.82,3.4-.13,6.8-.26,10.2-.29,5.07,0,4.75-.52,6.38,3.74a12,12,0,0,0,6.92,7,12.43,12.43,0,0,0,12.45-2.46c1.63-1.4,2-2.83,3.25-4.34,2.68-3.17,4.83-3.4,8.73-3.6,3.09-.17,3-1.49,5.65,1.16,1.26,1.25,1.87,2.71,3.51,3.69,4.1,2.45,9.41,1.52,13.53-.4a21.84,21.84,0,0,0,9.87-9.49c1.28-2.45,1.4-5,2.34-7.49,1.49-3.94-2.2-1.1,4.28-4.9q4.39-5.25,5.25.45a18.74,18.74,0,0,1,2,5.8.1.1,0,0,0,.2-.05C372.83,364.2,370.71,354,364,357.7Z"/><path class="cls-2" d="M364.46,357.94a1.33,1.33,0,0,0-.71,2.56c4.87,1.57,6.58,6,7.88,10.61.09.32.52.17.48-.13C371.42,366,370.24,359.37,364.46,357.94Z"/><path class="cls-2" d="M363.26,361.54c-1.32-.78-2.35,1.13-1.18,2a23.34,23.34,0,0,1,4.31,3.44,17,17,0,0,1,3.06,5.25.23.23,0,0,0,.44-.12C369.12,368.21,366.79,363.63,363.26,361.54Z"/><path class="cls-2" d="M362.43,366.23c-1.47-.53-2.15,1.86-.65,2.36a6.11,6.11,0,0,1,4.33,4.47c.09.4.67.29.69-.1A6.8,6.8,0,0,0,362.43,366.23Z"/><path class="cls-2" d="M334.94,386.81c-2.23-2.91-4.62-6.12-8.11-7.58-3.31-1.39-8-1-10.49,1.69-.73.8-.31,2.57,1,2.41,3.22-.42,5.75-2.53,9.2-1.69,3.22.79,5.73,3.22,8,5.47C334.75,387.3,335.12,387,334.94,386.81Z"/><path class="cls-2" d="M343.63,398.53c-18.1.51-37.34,1-55.13-2.89-9-2-15.25-5.94-21.12-12.93-4.93-5.86-11.38-9.93-15.09-16.78-.27-.5-1.18-.3-1.12.3.74,6.79,6.16,11.62,10.33,16.64,5.35,6.47,10.57,10.78,18.64,13.27,8.23,2.55,17,2.71,25.52,3a369.94,369.94,0,0,0,38-.36C343.81,398.8,343.82,398.52,343.63,398.53Z"/><path class="cls-2" d="M273,391c-3.56-4.68-7.18-9.28-9.92-14.52-1.3-2.48-2.92-5.41-4-8a39.32,39.32,0,0,1-1.79-7.61,12.94,12.94,0,0,0-.29-1.63,8.61,8.61,0,0,0-3.19-2.45c-3.93-2.35-5.55-2.37-7.88-6.09s-3.39-8.48-4.61-12.53a.29.29,0,0,0-.56.15c1.56,7.28,2.7,24.29,12.54,23.89,1.06,5.73.37,10.6,4,15.9,3.76,5.48,9.23,9.78,14.4,13.86C272.38,392.48,273.58,391.81,273,391Z"/><path class="cls-2" d="M271.56,387.89c-3.73-4.39-8.06-8.28-11.56-12.86s-5.37-9.63-7.07-15.19a1.8,1.8,0,0,0-3.51.47c0,12.34,11,23.39,20.51,29.69C271.28,390.9,272.5,389,271.56,387.89Z"/><path class="cls-2" d="M446.89,239.86a.09.09,0,0,0-.1.14c9.34,7.65,6.79,19.64,6.41,30.15a114.2,114.2,0,0,0,.18,13.34c.4,4.74,2.4,8.77,3.65,13.36.15.56,1.11.47,1.06-.15C456.73,280,465.29,250,446.89,239.86Z"/><path class="cls-2" d="M473.76,286.71c0-16-2.52-32-5.32-47.69,0-.09-.17-.07-.16,0,1.35,15.35.87,30.58.24,45.95-.3,7.4-.71,14.78-1.4,22.15-.72,7.8-2.93,15.91-2.24,23.69.15,1.71,2.79,3,3.66,1C474.25,319,473.74,300.61,473.76,286.71Z"/><path class="cls-2" d="M469.32,300.48c-2.65,14.12-6.14,27.81-10,41.61a.11.11,0,0,0,.2.09,74.13,74.13,0,0,0,11-41.53C470.55,300,469.45,299.75,469.32,300.48Z"/><path class="cls-2" d="M450.55,345.76c-5.56,9.73-18.12,6.25-27.32,8.74-4.11,1.11-13.38,4-15.21,7.95-.75,1.65.11,3.86,2.18,3.8h.25a2.3,2.3,0,0,0,1.66-.76c8.56-5.67,18.19-5.38,27.27-9.29,5.16-2.22,9.07-5.14,11.29-10.37C450.7,345.75,450.59,345.68,450.55,345.76Z"/><path class="cls-2" d="M465.25,223.77a73.09,73.09,0,0,0-10.09-4.45c-1.7-.58-4.75-2.36-6-.24-2,3.35,3,5.45,7,7.61a3.33,3.33,0,0,0-.55.78,1.83,1.83,0,0,0,.27,2.13,29.47,29.47,0,0,1,4.35,5.31,4.25,4.25,0,0,0,2.74,2.4,1.74,1.74,0,0,0,2.12-2.13,14,14,0,0,0-3.81-7c-1.53-2-4.51-3.35-6.29-4.38-.56-.32-2.53-1.05-2.82-1.7-1.56-3.54,2.81-1.29,3.78-1,3,1.05,6,2.13,8.88,3.41C465.31,224.8,465.79,224.05,465.25,223.77Z"/><path class="cls-2" d="M402.73,188.85a1.8,1.8,0,0,0-1.73-1.73c-3.51-.23-24-1-17.71,8.28a1.76,1.76,0,0,0,1.5.86,74.53,74.53,0,0,1,15.59.15c2.83,19,6,37.89,8.34,56.92,0,.21.35.22.33,0C407.06,231.81,405.55,210.29,402.73,188.85Z"/><path class="cls-2" d="M378.36,194.46c-22.08-.23-44.07.2-66.13-1.13a651.87,651.87,0,0,1-67-7.67,1.78,1.78,0,0,0-2,2.58c3.08,5.77,12.21,5.12,17.7,5.68,9.83,1,19.69,1.68,29.54,2.24,19.72,1.14,39.53,1.64,59.26,1a.52.52,0,0,0,.41-.21c9.45-.2,18.87-.74,28.18-1.83C378.78,195.09,378.81,194.46,378.36,194.46Z"/><path class="cls-2" d="M374.93,380.73a31,31,0,0,1-7.44,9.53c-.36.3.16.82.52.52a24,24,0,0,0,7.07-10C375.11,380.7,375,380.65,374.93,380.73Z"/><path class="cls-2" d="M372.57,380.23a22.76,22.76,0,0,1-4.41,6.61c-1.89,2-4.15,3.23-6.3,4.85-.21.15-.1.55.19.45,5-1.67,8.85-7.13,10.66-11.85A.08.08,0,0,0,372.57,380.23Z"/><path class="cls-2" d="M371.84,377.85a35.19,35.19,0,0,1-6.53,8.57c-2.69,2.57-5.79,4.1-8.82,6.14a.39.39,0,0,0,.3.71c6.85-2,12.54-9,15.39-15.22C372.29,377.82,372,377.62,371.84,377.85Z"/><path class="cls-2" d="M368.72,377.39a63.74,63.74,0,0,1-8.05,9.68c-3.1,2.94-6.73,4.9-10.1,7.44-.34.25-.17.92.31.74,7.6-2.73,14.71-10.54,18.15-17.68A.18.18,0,0,0,368.72,377.39Z"/><path class="cls-2" d="M365.3,376.57c-4.89,6.63-12.28,16.36-20.8,18-.42.08-.28.67.1.71,4.34.42,7.78-3.11,10.69-5.89a71,71,0,0,0,10.37-12.63C365.81,376.55,365.46,376.36,365.3,376.57Z"/><path class="cls-2" d="M362.06,375.2c-5.63,11-14.69,16.75-26.09,20.5-.5.17-.45,1,.14,1,11.7-1.25,21.91-10.83,26.25-21.35C362.43,375.15,362.14,375,362.06,375.2Z"/><path class="cls-2" d="M300.14,390.43a25.6,25.6,0,0,1-4.13-6.68c-.79-2.06-.86-4.21-1.52-6.27-.1-.31-.65-.38-.71,0-.67,4.58,2.7,10.36,6,13.32A.26.26,0,0,0,300.14,390.43Z"/><path class="cls-2" d="M299.1,391.94a27.14,27.14,0,0,1-4.82-6.68c-1.28-2.54-1.68-5.13-2.5-7.8a.39.39,0,0,0-.77.11c-.08,5.55,3.77,11.19,7.89,14.57A.14.14,0,0,0,299.1,391.94Z"/><path class="cls-2" d="M297,393.11a26.33,26.33,0,0,1-5.67-7.54c-1.43-2.93-1.92-5.89-2.81-9a.34.34,0,0,0-.66.09c-.13,6.33,4.31,12.69,8.92,16.64C297,393.47,297.17,393.25,297,393.11Z"/><path class="cls-2" d="M293,391.33a24.43,24.43,0,0,1-4.95-6.56c-1.31-2.53-1.7-5.11-2.49-7.78a.58.58,0,0,0-1.13.15c-.1,5.62,4,11.26,8.2,14.56C292.92,391.9,293.28,391.57,293,391.33Z"/><path class="cls-2" d="M290.31,390.87a18.15,18.15,0,0,1-5.73-6.83c-1.17-2.34-1.2-4.9-2.2-7.22-.23-.54-1.08-.36-1.21.15-.66,2.66.91,5.95,2.31,8.17a18,18,0,0,0,6.66,6C290.33,391.29,290.5,391,290.31,390.87Z"/><path class="cls-2" d="M285.78,389.25a29.24,29.24,0,0,1-4.7-6.76c-1.07-2.2-1.3-5.06-2.66-7a.68.68,0,0,0-1.22.16c-.63,2.52,1.05,5.63,2.34,7.75a19.53,19.53,0,0,0,6,6.18C285.73,389.7,285.93,389.41,285.78,389.25Z"/><path class="cls-2" d="M306.15,220.67c-6.17.19-5.54,11.44-5.91,15.56a160.91,160.91,0,0,0,.26,31.19c0,.25.42.26.41,0a210.93,210.93,0,0,1-.52-21.92q.17-5.06.61-10.11c.38-4.3-.17-13.1,5.18-14.51A.11.11,0,0,0,306.15,220.67Z"/><path class="cls-2" d="M303.39,218.4c-6.56,2.93-5.75,13.09-6,19a163,163,0,0,0,1.48,32.52c.05.31.57.24.54-.07-.71-8.82-1.44-17.6-1.37-26.46,0-4.28.16-8.56.46-12.82s.64-9.62,5-12C303.54,218.48,303.47,218.37,303.39,218.4Z"/><path class="cls-2" d="M301.34,217.45c-3.35,0-4.29,2.6-4.8,5.56a157.58,157.58,0,0,0-1.71,16.93c-.66,11.44-1.19,24.32,1.58,35.53a.43.43,0,0,0,.85-.12c-.06-9-1.49-17.94-1.48-27q0-6.76.43-13.51c.24-3.9-.31-16.6,5.13-17.17A.13.13,0,0,0,301.34,217.45Z"/><path class="cls-2" d="M296.67,218.58c-4.15,7.71-3.05,17.73-3.2,26.2-.19,10.38-1,21.32.2,31.64a.47.47,0,0,0,.93,0c1-9.25.13-18.92.1-28.22s-1.65-20.81,2.22-29.48C297,218.56,296.76,218.41,296.67,218.58Z"/><path class="cls-2" d="M390.08,218c0-.11-.19-.06-.17.05a87.6,87.6,0,0,1,1.33,10.7c.05,1.46.32,8.62-1.89,7-1.09-.79-1.16-7.84-1.41-9.36a34.44,34.44,0,0,0-1.69-7.32c-.93-2.25-2.79-4.49-5.47-3.73-3.23.91-4,5.36-4,8.19a.75.75,0,0,0,1.46.2c.26-1,.94-4.63,1.65-5.09l4.6.06a15.33,15.33,0,0,1,.94,2.69,76.61,76.61,0,0,1,1.69,8.48c.38,2.29.24,8.06,2.89,9a.52.52,0,0,0,.57-.23C394.3,233.41,391.54,223.66,390.08,218Z"/><path class="cls-2" d="M385.5,213.43c-4-3.33-8.15,2.17-8.52,5.9-.07.82,1,.89,1.38.38a40.74,40.74,0,0,1,2.77-3.93c2.62-2.73,4.92.88,5.84,3.17a43.8,43.8,0,0,1,2.52,11.88c0,.13.21.13.21,0C389.41,225.78,389.88,217.06,385.5,213.43Z"/><path class="cls-2" d="M386.86,211.31c-1.39-1-4.17-1.68-5,.29a.72.72,0,0,0,.5.87,4.76,4.76,0,0,0,1.8-.07,4.08,4.08,0,0,1,2.4.69c1.43.91,2.41,2.65,3.26,4.07a.12.12,0,0,0,.21-.1C389.47,214.88,388.81,212.67,386.86,211.31Z"/><path class="cls-2" d="M388.43,242.76a.14.14,0,1,0-.27,0c.43,36.39.3,72.58-1.38,109,0,.46.68.46.72,0C390.15,315.63,390.8,278.88,388.43,242.76Z"/><path class="cls-2" d="M348,215.77a.06.06,0,0,0-.06.11,9,9,0,0,1,2.91,3.68c.51,1.74.07,2.59-1.33,2.55-.32.3-.88.34-1.27.6-1.57,1-2.35,4.7-3.9,2.89-1.15-1.35-.66-2.58-2.58-3.44a3.91,3.91,0,0,0-1.67-.31q2.17-2.35,4.58-.68c1.58-.17,3.37.89,3.65-1.69.25-2.23-2.91-5.1-5.09-4.86-2.79.29-4.49,3.33-5.32,6.08-.15.21-.3.43-.43.65-2.95,5.24-1.75,14.1-.61,19.71.14.7,1.21.52,1.22-.16,0-3.28-.05-6.55,0-9.82,0-1.63.09-3.29.24-4.91.09-.65.17-1.3.25-1.94,1.5-.42,3.31,1.58,3.93,2.43.28.38.28.94.56,1.34a2.82,2.82,0,0,0,1.86,1.4,1,1,0,0,0,1-.25c.93-1,.51-.56,1.22-1.84,1.43-2.59.56-1.52,3.69-4.24.88-.78,1.28-.16,1.66-1.45C353.15,219.55,349.49,216.59,348,215.77ZM344.56,219c-.09-.3-3.3-.62-2.8-.65a4.13,4.13,0,0,0-.93.17,8.14,8.14,0,0,1,.68-.87C345.38,216.31,346.39,216.77,344.56,219Z"/><path class="cls-2" d="M396,266.7l1-.07c.26,29.8,0,59.93-1.16,89.62,0,.08-.06.09-.06,0C395.89,326.39,396.09,296.55,396,266.7Z"/><path class="cls-2" d="M398.66,266.51l1-.07c.26,29.8,0,59.93-1.16,89.62,0,.08-.06.09-.06,0C398.52,326.2,398.71,296.36,398.66,266.51Z"/><path class="cls-2" d="M401.28,266.32l1-.07c.26,29.8,0,59.93-1.16,89.62,0,.08-.05.09-.05,0C401.14,326,401.33,296.17,401.28,266.32Z"/><path class="cls-2" d="M265.55,217.35a5.8,5.8,0,0,0-2.25,2,2.8,2.8,0,0,0-.5,1.27h-.05c-.27,46.58,0,93.66,1.16,140.07,0,.13,0,.14,0,0-.08-46.26-.27-92.46-.23-138.69a.3.3,0,0,0,.06-.18,3.91,3.91,0,0,1,1.67-3.07c1.5-1.27,2.66,1.1,2.65,2.38,0,.07.11.07.12,0C268.34,219.83,267.52,216.56,265.55,217.35Z"/><path class="cls-2" d="M262.33,216.31a5.74,5.74,0,0,0-2,4l-.18,0c-.27,46.58,0,93.65,1.16,140.07,0,.12,0,.13,0,0-.08-46.22-.27-92.39-.23-138.58a20.94,20.94,0,0,1,.79-3.07c.78-2.08,3.16-3.48,5.11-2.12a.06.06,0,0,0,.09-.08C265.9,214.42,264,215,262.33,216.31Z"/><path class="cls-2" d="M264.75,211.93c-7.58-.77-7.84,8.19-7.86,13.5-.05,10.57-.11,21.19.32,31.76a.39.39,0,0,0,.21.33c0,34.24.39,68.59,1.25,102.58,0,.13.05.14.05,0-.08-46.36-.27-92.67-.23-139a3.49,3.49,0,0,1-.15.34c.52-4.62,2.12-8.58,6.45-9.25C265,212.18,264.9,212,264.75,211.93Z"/><path class="cls-2" d="M335.43,168.44a14.77,14.77,0,0,0-2.89,7.92c0,.17.24.16.26,0a19.49,19.49,0,0,1,2.74-7.86C335.58,168.43,335.48,168.38,335.43,168.44Z"/><path class="cls-2" d="M334.22,166.06s0-.06,0,0a18.48,18.48,0,0,0-4.72,17.14c0,.13.23.07.2-.06A19.74,19.74,0,0,1,334.22,166.06Z"/><path class="cls-2" d="M331.14,163.29s0-.1-.06-.06a27.74,27.74,0,0,0-6.6,23.24c0,.16.32.13.3,0C323.76,177.91,325.62,170,331.14,163.29Z"/><path class="cls-2" d="M325,164.53c0-.08-.08-.15-.12-.07-4.12,7-6,15.43-4.22,23.49,0,.17.35.14.32,0C319.94,179.58,320.84,171.94,325,164.53Z"/><path class="cls-2" d="M325.43,159c.07-.08-.05-.2-.12-.12-7.64,8-11.66,19.9-8.81,30.81.08.3.49.16.45-.13C315.35,178.35,317.69,167.66,325.43,159Z"/><path class="cls-2" d="M322.74,158.72c-9.41,6.72-10.31,18.9-9.14,29.51,0,.39.64.41.62,0-.63-10.63-.74-22.26,8.58-29.41C322.85,158.78,322.8,158.68,322.74,158.72Z"/><path class="cls-2" d="M319.94,157.09c.05-.05,0-.12-.08-.08-8.51,7.87-12.73,20.74-8.7,31.93a.24.24,0,0,0,.47-.13C308.77,177.27,311.13,165.52,319.94,157.09Z"/><path class="cls-2" d="M308.07,188.51c-1.26,0-1.84-4.42-1.92-5.25a29.93,29.93,0,0,1-.14-3.54,32.8,32.8,0,0,1,1-7.65,33.88,33.88,0,0,1,6.14-12.62c0-.06-.06-.15-.11-.08a34.23,34.23,0,0,0-7.55,18.22c-.17,1.85-1.08,12.38,2.68,11.5A.3.3,0,0,0,308.07,188.51Z"/><path class="cls-2" d="M308.91,161.44a19.44,19.44,0,0,0-6.74,13.19c-.37,3.35-1,12.22,2.48,14.21.38.21.86-.34.49-.65-1.94-1.62-2.07-6.4-2.23-8.57a30.05,30.05,0,0,1,.21-6.43,18.63,18.63,0,0,1,6-11.57C309.21,161.51,309,161.34,308.91,161.44Z"/><path class="cls-2" d="M304.88,161.87c.12-.15-.08-.36-.21-.21a25.34,25.34,0,0,0-6.24,13.28c-.58,3.91-.8,11.13,2.6,13.88a.39.39,0,0,0,.55-.56c-3.2-3.39-2.93-10.31-2.19-14.54A26.5,26.5,0,0,1,304.88,161.87Z"/><path class="cls-2" d="M299.62,163.08c.05-.07-.07-.14-.12-.07-4.35,5.75-9.84,21-1.07,25.62a.36.36,0,0,0,.36-.62C291.29,182.28,295.3,169.45,299.62,163.08Z"/><path class="cls-2" d="M295.82,187.82c-3-1.13-3.59-6.58-3.57-9.17a24.26,24.26,0,0,1,1.76-8.49c.06-.16-.19-.22-.25-.07-1.54,3.84-2.74,7.95-2.14,12.12.31,2.23,1.24,6.37,4.09,6.41A.41.41,0,0,0,295.82,187.82Z"/><path class="cls-2" d="M293.83,188.07c-3.13-2.67-5-6.27-4.05-10.45a.23.23,0,0,0-.44-.12c-1.3,4.08.06,9.11,3.93,11.3C293.71,189.05,294.24,188.43,293.83,188.07Z"/><path class="cls-2" d="M289.64,167.57c.05-.1-.09-.18-.14-.09-3.34,6.49-4.23,14-1.38,20.87.14.35.7.22.57-.15C286.35,181.22,286.27,174.25,289.64,167.57Z"/><path class="cls-2" d="M287.54,163.75c.08-.1-.05-.24-.13-.14-5.58,6.59-7.06,16.62-2.18,24.06a.27.27,0,0,0,.47-.27C281.87,179.5,282,170.86,287.54,163.75Z"/><path class="cls-2" d="M284.19,163.06c0-.06,0-.13-.08-.08-6.47,7-8.32,17.49-3.06,25.78a.28.28,0,0,0,.48-.28C277.38,179.71,277.66,170.61,284.19,163.06Z"/><path class="cls-2" d="M277.45,169.3c.06-.12-.12-.23-.19-.11-2.88,5.46-4,12.33-1.66,18.2a.26.26,0,0,0,.5-.14C274.64,180.93,274.52,175.25,277.45,169.3Z"/><path class="cls-2" d="M272.81,175.27c.05-.11-.11-.21-.17-.1-1.82,3.52-3,8.16-1.43,12a.28.28,0,0,0,.53-.15C271.16,182.8,270.85,179.22,272.81,175.27Z"/><path class="cls-2" d="M268.76,180c.09-.26-.3-.36-.4-.11-.87,2.13-1.51,5-.59,7.25.14.33.74.34.71-.1C268.3,184.51,267.92,182.48,268.76,180Z"/><path class="cls-2" d="M266.27,180.7c-1.06,1.83-2.58,4.4-2.35,6.59a.37.37,0,0,0,.72.1,31.78,31.78,0,0,0,.68-3.14,14.26,14.26,0,0,1,1.34-3.32A.23.23,0,0,0,266.27,180.7Z"/><path class="cls-2" d="M272.87,162.42a15.92,15.92,0,0,0-3,10.1.22.22,0,0,0,.43,0,17.8,17.8,0,0,1,2.79-10C273.17,162.41,273,162.29,272.87,162.42Z"/><path class="cls-2" d="M268.08,165.05c-2.34,3.59-3.9,8.29-2.95,12.59a.3.3,0,0,0,.59-.08c0-4.52.31-8.33,2.67-12.33C268.51,165,268.21,164.86,268.08,165.05Z"/><path class="cls-2" d="M264.13,165.58c-3.18,5.43-4.18,12.29-1.34,18.1.23.46.94.14.81-.34-1.66-6.06-1.92-11.77.85-17.58A.18.18,0,0,0,264.13,165.58Z"/><path class="cls-2" d="M262.26,187.83c-4.14-6.49-4.8-15.05-2.87-22.4a.16.16,0,0,0-.31-.09c-2.17,7-3.06,17.25,2.43,23.07A.48.48,0,0,0,262.26,187.83Z"/><path class="cls-2" d="M261.28,187.54c-3.06-1.65-4-7.5-4.28-10.62a24.5,24.5,0,0,1,.92-9.33.28.28,0,0,0-.53-.15,26,26,0,0,0-.86,13.67c.56,2.52,1.48,6.87,4.55,7.18C261.48,188.33,261.62,187.72,261.28,187.54Z"/><path class="cls-2" d="M253.91,179.87a23.69,23.69,0,0,1,.28-10.26.13.13,0,0,0-.25-.07c-2.26,5.62-2.16,13.83,2.28,18.47.27.29.88,0,.71-.42C255.88,185,254.48,182.66,253.91,179.87Z"/><path class="cls-2" d="M254.62,187.87a16.3,16.3,0,0,1-3.87-14.69.26.26,0,0,0-.5-.13c-1.6,5.63-.64,11.37,3.52,15.67C254.32,189.28,255.13,188.45,254.62,187.87Z"/><path class="cls-2" d="M360.09,206.18a.06.06,0,0,0-.11,0c.28,14.53.49,29.07,1.07,43.59,0,.17.28.17.28,0C361.14,235.23,360.58,220.71,360.09,206.18Z"/><path class="cls-2" d="M356.27,202.5a.06.06,0,0,0-.12,0c.46,22.32.89,44.7,2.21,67a.19.19,0,0,0,.37,0C358.5,247.16,357.36,224.8,356.27,202.5Z"/><path class="cls-2" d="M353,200.84a.12.12,0,0,0-.24,0,150.15,150.15,0,0,0,2,23.49c0,.27.51.21.48-.06C354.36,216.46,353.55,208.68,353,200.84Z"/><path class="cls-2" d="M350.56,202.09c0-.11-.17-.14-.19,0a48,48,0,0,0-.32,12.78c0,.2.34.21.32,0A60.38,60.38,0,0,1,350.56,202.09Z"/><path class="cls-2" d="M347.64,203.31c0-.11-.17-.11-.18,0a64.4,64.4,0,0,0,0,10.3c0,.27.44.28.43,0C347.72,210.17,347.54,206.76,347.64,203.31Z"/><path class="cls-2" d="M343.45,201.25c0-.07-.1-.07-.11,0-.08,4.11-.24,8.23-.13,12.34a.19.19,0,0,0,.38,0C343.7,209.48,343.54,205.36,343.45,201.25Z"/><path class="cls-2" d="M340.59,200a.1.1,0,0,0-.19,0c-.1,5-.34,10.29.37,15.27,0,.29.48.21.48-.06C341.33,210.18,340.73,205.07,340.59,200Z"/><path class="cls-2" d="M337.31,198.79a.11.11,0,0,0-.22,0c0,8.45-.33,17.06.36,25.49a.25.25,0,0,0,.49,0C338.3,215.83,337.67,207.23,337.31,198.79Z"/><path class="cls-2" d="M334.1,197.55c0-.16-.27-.17-.26,0,.25,22,.59,44.23,2.14,66.2a.23.23,0,0,0,.46,0C336.5,241.73,335.33,219.54,334.1,197.55Z"/><path class="cls-2" d="M332.08,234.77c-.21-12.54-.28-25.1-.85-37.62a.11.11,0,0,0-.22,0c-.2,12.53.09,25.08.25,37.62s-.31,25.17.68,37.61a.28.28,0,0,0,.55,0C333.13,259.92,332.28,247.24,332.08,234.77Z"/><path class="cls-2" d="M327.05,199.61a.11.11,0,0,0-.22,0c-1,24.39-.46,49.22.85,73.59a.17.17,0,0,0,.33,0C327.92,248.71,327.88,224.08,327.05,199.61Z"/><path class="cls-2" d="M322.35,200.43a.09.09,0,1,0-.18,0c-1,19.16-1,38.38-.41,57.56a.2.2,0,0,0,.4,0C321.87,238.8,322.06,219.62,322.35,200.43Z"/><path class="cls-2" d="M317.68,204.12c0-.13-.2-.13-.2,0-1.08,23.81-1.83,48.17-.07,72a.2.2,0,0,0,.4,0C318.07,252.1,317.29,228.12,317.68,204.12Z"/><path class="cls-2" d="M312.77,211.13c0-.09-.13-.09-.14,0a514.54,514.54,0,0,0-.54,63.32c0,.24.39.25.38,0C312.1,253.31,311.86,232.26,312.77,211.13Z"/><path class="cls-2" d="M310.62,231.27a.11.11,0,0,0-.22,0c-.86,6.63-.3,13.66-.31,20.35s-.15,13.57.05,20.35a.37.37,0,0,0,.74,0c.19-6.78.05-13.57,0-20.35S311.48,237.89,310.62,231.27Z"/><path class="cls-2" d="M309.5,201.68c0-.14-.22-.17-.24,0a52.55,52.55,0,0,0,.18,18.17c.05.2.39.16.37,0A84.18,84.18,0,0,1,309.5,201.68Z"/><path class="cls-2" d="M306.09,200c0-.11-.19-.14-.21,0a47,47,0,0,0,0,14.06c0,.28.52.22.49-.06A68.67,68.67,0,0,1,306.09,200Z"/><path class="cls-2" d="M302.75,199.19c0-.15-.22-.15-.24,0a53.54,53.54,0,0,0-.39,11.93.2.2,0,0,0,.39,0C302.58,207.12,302.39,203.19,302.75,199.19Z"/><path class="cls-2" d="M298.58,198.37c0-.14-.21-.14-.22,0-.22,5-.72,10.17-.52,15.22a.22.22,0,0,0,.44,0C298.75,208.56,298.53,203.42,298.58,198.37Z"/><path class="cls-2" d="M294.42,200.43c-.3,5.74-.82,11.53-.72,17.28a.22.22,0,0,0,.44,0c.47-5.72.33-11.54.4-17.28A.06.06,0,1,0,294.42,200.43Z"/><path class="cls-2" d="M291.68,199.2c0-.13-.18-.12-.19,0a409.3,409.3,0,0,0,0,53.46c0,.35.57.36.56,0C291.51,234.83,291.31,217,291.68,199.2Z"/><path class="cls-2" d="M287.79,234.17c-.31-11.66-.27-23.32-.45-35a.09.09,0,0,0-.17,0c-.55,11.63-.45,23.32-.18,35s.31,23.41,1.68,34.93c0,.4.65.43.65,0C289.16,257.46,288.1,245.81,287.79,234.17Z"/><path class="cls-2" d="M283.63,196.72a.06.06,0,0,0-.11,0,426.27,426.27,0,0,0-.37,62.92c0,.25.41.26.4,0C282.91,238.64,283,217.72,283.63,196.72Z"/><path class="cls-2" d="M279.31,200c0-.19-.28-.19-.29,0a349.37,349.37,0,0,0,.44,43.17c0,.31.5.31.48,0C279.09,228.81,278.8,214.41,279.31,200Z"/><path class="cls-2" d="M385.86,197.74c0-.09-.15-.09-.15,0a51.69,51.69,0,0,0,.9,9.3c0,.2.32.11.29-.08C386.46,203.9,386.07,200.84,385.86,197.74Z"/><path class="cls-2" d="M387.29,197.74c0-.07-.12-.07-.11,0,.5,5.35.87,10.74,1.64,16,0,.22.41.17.4,0C388.8,208.39,388,203.06,387.29,197.74Z"/><path class="cls-2" d="M389.76,197.39c0-.08-.13-.08-.13,0a192.53,192.53,0,0,0,2.34,22.1c0,.28.54.22.5-.07C391.59,212.07,390.53,204.75,389.76,197.39Z"/><path class="cls-2" d="M392.05,198.8c0-.08-.13-.09-.12,0,1,15.16,2,30.4,3.61,45.51,0,.26.42.27.41,0C395.42,229.13,393.88,213.87,392.05,198.8Z"/><path class="cls-2" d="M399,233.09A353.67,353.67,0,0,0,395.6,197c0-.14-.26-.11-.24,0,1.37,12.26,2.48,24.55,3,36.88s-.08,24.67,0,37c0,.34.49.33.53,0C400.12,258.47,399.61,245.61,399,233.09Z"/><path class="cls-2" d="M401.9,234.52c-.81-12.58-1.54-25.37-3.64-37.81,0-.06-.1-.05-.09,0,.64,12.9,2.17,25.77,2.95,38.66s1,25.85,1.54,38.78a.38.38,0,0,0,.76,0C403.53,261,402.75,247.7,401.9,234.52Z"/><path class="cls-2" d="M406.13,248q-.87-13.08-2.51-26.08c0-.09-.15-.09-.14,0q1.17,13,1.95,26.08c.51,8.68.21,17.53,1.1,26.16a.28.28,0,0,0,.56,0C407.67,265.56,406.69,256.6,406.13,248Z"/><path class="cls-2" d="M317,295.32a.9.9,0,0,0,.43.59c.09.06.49-.14.53-.28a7,7,0,0,0,.27-1.62c.05-2.16.05-4.32.07-7.06-.07-1.48-.16-3.55-.26-5.61a1.88,1.88,0,0,0-.06-.68,3.38,3.38,0,0,0-.55-.66,2.56,2.56,0,0,0-.48.73,3.85,3.85,0,0,0,0,1c.06,4,.13,8,.17,12C317.09,294.22,317,294.77,317,295.32Z"/><path class="cls-2" d="M361.41,270.34a.89.89,0,0,0,.43.6c.09.06.48-.14.52-.28a6.48,6.48,0,0,0,.28-1.62c.05-2.16.05-4.32.07-7.06-.07-1.49-.16-3.55-.26-5.61a1.88,1.88,0,0,0-.06-.68,3.78,3.78,0,0,0-.55-.66,2.56,2.56,0,0,0-.48.73,3.85,3.85,0,0,0,0,1c.06,4,.13,8,.17,12C361.54,269.25,361.39,269.8,361.41,270.34Z"/><path class="cls-2" d="M318.4,300.46c0-.3-.32-.56-.5-.85-.2.26-.56.52-.57.78,0,1.2,0,2.39.06,3.59,0,.19.3.37.47.55.18-.16.51-.31.53-.49.07-.68,0-1.38,0-2.06h-.05A7.73,7.73,0,0,0,318.4,300.46Z"/><path class="cls-2" d="M318.54,325.92c0,.67.11,1.34.18,2.18,1.1-.28,1-1,1-1.58q-.31-7.65-.65-15.31c0-.51.14-1.31-.63-1.29s-.46.78-.44,1.24C318.14,316.08,318.34,321,318.54,325.92Z"/><path class="cls-2" d="M320.21,338.1a2.21,2.21,0,0,0,0-.81c-.06-.78-.13-1.55-.2-2.33h-.07c0-.87,0-1.74-.09-2.6,0-.3-.29-.76-.52-.81-.46-.1-.58.35-.56.73.13,2,.26,3.93.44,5.89,0,.18.34.34.52.51C319.9,338.49,320.14,338.32,320.21,338.1Z"/><path class="cls-2" d="M321,305.61c0,.67.12,1.34.19,2.18,1.1-.28,1-1,1-1.58q-.31-7.65-.65-15.31c0-.51.15-1.31-.62-1.29s-.46.78-.44,1.24C320.64,295.77,320.84,300.69,321,305.61Z"/><path class="cls-2" d="M322.71,317.79a2.21,2.21,0,0,0,0-.81c-.06-.78-.13-1.55-.2-2.33h-.08c0-.87,0-1.74-.08-2.6,0-.3-.29-.76-.52-.81-.46-.1-.59.35-.56.73.13,2,.26,3.93.43,5.89,0,.18.34.34.53.51C322.39,318.18,322.64,318,322.71,317.79Z"/><path class="cls-2" d="M363.2,287.41c0-.68-.06-1.35-.09-2.19-1.12.23-1,.92-1,1.54q0,7.67,0,15.32c0,.51-.2,1.3.57,1.31s.49-.76.5-1.21Q363.21,294.78,363.2,287.41Z"/><path class="cls-2" d="M362,275.17a2.19,2.19,0,0,0,0,.81c0,.78.07,1.56.11,2.33h.07c0,.87-.07,1.74,0,2.61,0,.3.26.77.49.83.46.12.6-.32.59-.71-.05-2-.1-3.94-.2-5.9,0-.19-.33-.35-.5-.53C362.34,274.79,362.09,275,362,275.17Z"/><path class="cls-2" d="M289.1,161a2,2,0,0,0-.11.67,2.29,2.29,0,0,0,.32.67,2.53,2.53,0,0,0,.71-.45,2.77,2.77,0,0,0,.23-.93c-.12-.17-.25-.53-.47-.6C289.33,160.21,289.16,160.57,289.1,161Z"/><path class="cls-3" d="M14.3,184.72a2.13,2.13,0,0,0-.67.47c-1.81,2,.26,7.65,4.64,12.36a2.26,2.26,0,0,0-1.43.74c-1.62,1.93.22,6.85,4.12,11.19a2.42,2.42,0,0,0-1.49.78c-1.8,2.15.4,7.77,4.94,12.54a2.53,2.53,0,0,0-1.59.89c-1.55,2.1.53,7,4.7,11.28a2.75,2.75,0,0,0-1.72,1c-1.77,2.39.7,8,5.56,12.87a2.37,2.37,0,0,0-.64.58c-1.92,2.6,1.17,9,6.9,14.14a2.25,2.25,0,0,0-.91.75c-1.92,2.74,1.62,9.46,7.86,14.46a3.56,3.56,0,0,0-2.75,1.49c-1.55,2.69,1.65,8.22,7.23,12.69a2.73,2.73,0,0,0-1.29,1.19c-1.4,2.76,2.08,8.11,7.87,12.27a2.32,2.32,0,0,0-.35.53c-1.64,3.52,4.5,10.85,13.15,14.75,6.93,3.12,10.42,2.07,12.38-.27q5.1,8.43,10.71,16.74C54.7,314.1,10.6,298.5,2.2,237.79c-15.51,45,53.78,132.6,121.33,141.94q3.78,4.36,7.73,8.75c4.14.35,7.47-1.33,8.21-4.59q-5.78-5.56-11.19-11.29a97.64,97.64,0,0,0-17.55-20.08A368.21,368.21,0,0,1,86,318c3.42-.35,6.46-2.7,6.74-11.18.31-9.49-3.58-18.23-7.46-18.3l-.33,0c-.81-5.87-3.1-10.58-5.67-11.64-.52-6.77-3.06-12.17-6-12.47a2.33,2.33,0,0,0-.91.08c.13-6.5-1.82-11.91-4.62-12.45a2.53,2.53,0,0,0-1.51.22C67,245,65.09,238.63,62.06,238a2.44,2.44,0,0,0-.66,0c.49-6.87-1.36-12.77-4.27-13.41a2.94,2.94,0,0,0-2.19.53c.32-5.7-1.15-10.59-3.49-11.55.7-6-.65-11.18-3.18-11.89a2.3,2.3,0,0,0-1.57.16c.77-5.79-.49-10.89-2.92-11.58a2.07,2.07,0,0,0-.5-.06c1.1-5.92,0-11.29-2.43-12.08a2.14,2.14,0,0,0-1.34.05C33.88,165.74,28,141.62,25.13,132.72c1.06,8,7.66,36,12.12,46.87a18,18,0,0,0-1.94,2.25c-6-12.27-13.12-40.82-16.06-50.1.92,6.94,6.63,31,11.14,44.67-2-3.29-4.36-5.93-6.26-6.34-4.94-16-9.95-38.13-12.16-45.21.79,6.16,5.71,29.72,10.06,45.92-1.27,1.36-1.9,4.34-1.68,7.88-5-13.94-10.12-34.3-12.48-41.87,1,7.72,7.82,36.61,12.38,48.85a16,16,0,0,0-3.31-1C11.66,171.75,6.3,149.74,3.67,141.32c.93,7.25,6.34,30.91,10.63,43.4ZM82.37,290.43c-.13.18-.27.37-.4.58-.19-3.77-1-7.45-2.15-9.54A49.69,49.69,0,0,1,81,292.71a38.85,38.85,0,0,0-3,10.67,1,1,0,0,1-.58-.67c-1.71-6-1.7-12.19-.53-19.23-2.24,4-3,12.32-2,17.82a.64.64,0,0,1-.77.73,8.91,8.91,0,0,0-1-1.49,16.14,16.14,0,0,1-.67-6.3c.33-6.81,2.95-15.26,5.69-15.13,2.17.11,3.76,5.63,4.14,11.32ZM78,307.91a21.27,21.27,0,0,0,.14,2.21l-.37-.24c-.74-1.3-1.46-2.6-2.19-3.9a7,7,0,0,0,1.41.2l1,1.73Zm3,4.63a16.35,16.35,0,0,1-.87-6.28c.12-6.81,2.48-15.34,5.22-15.3s4.8,8.66,4.68,15.47c-.08,5.12-1.38,7.77-3.18,8.75a1.05,1.05,0,0,1-.9.05,1,1,0,0,1-.61-.66c-1.9-6-2.07-12.12-1.13-19.2-2.11,4.06-2.66,12.41-1.46,17.87a.62.62,0,0,1-.37.72.7.7,0,0,1-.38,0,7.92,7.92,0,0,0-1-1.46Zm1.67,5.11A5.57,5.57,0,0,0,84,318a354.05,354.05,0,0,0,51.29,65.06c1.56,1.54-2.14,2.72-3.45,1.26a436.28,436.28,0,0,1-49.34-66.25c0-.14,0-.28.08-.42Zm-3-2.54a.57.57,0,0,1-.19.3.63.63,0,0,1-.81,0c-4.37-3.48-12.11-6.66-16.69-6.55,6.77,2.26,12.23,5.13,16.75,9.46a1.06,1.06,0,0,1-.12,1.62c-1.67,1.18-4.62,1.18-9.25-1-6.17-2.89-13-8.53-11.83-11s9.86-.85,16,2A16,16,0,0,1,79,313.76a8.49,8.49,0,0,0,.67,1.35Zm6.41,0c3.71-3.91,2.54-15.76.89-21.83,2.94,4.94,4.16,19.19-.89,21.83Zm-15-8.27a35.79,35.79,0,0,0-9.73-1.91,49.54,49.54,0,0,1-10.17-7.14c1.37,2.24,4.63,5.08,8.21,7.19-.24,0-.49,0-.72.09-5.15-3.21-9.8-7.76-8.75-9.83,1.24-2.44,9.89-.54,16,2.54a15.84,15.84,0,0,1,5.32,3.93,8.24,8.24,0,0,0,.63,1.37.63.63,0,0,1-.2.29.61.61,0,0,1-.8,0c-4.27-3.62-11.9-7-16.49-7.07,6.7,2.48,12.07,5.51,16.45,10a1,1,0,0,1,.29.56Zm7.73,12.44c-4.59,3.38-16.84-4-20-8.8,4.72,4.15,14.85,10.42,20,8.8Zm-2.27-42c-.15.11-.29.23-.43.35a22.51,22.51,0,0,0-1.62-8.36,49.43,49.43,0,0,1,.69,9.4c-1.86,2.46-3.42,6.85-4.22,11.33-1.3-6-.93-12,.57-18.87-2.46,3.87-3.69,12.15-3,17.69a.61.61,0,0,1-.43.68.7.7,0,0,1-.38,0A7.77,7.77,0,0,0,66.9,288a16.26,16.26,0,0,1-.34-6.33c.68-6.78,3.75-15.08,6.47-14.8,2,.2,3.3,5.13,3.52,10.44Zm-6.1,17.09,0,.34c0,.55,0,1.07,0,1.57l-1.08-2.14-.3-.6a6.74,6.74,0,0,0,1.12.24l.32.59Zm-6.15.42-.34-.13.29-.15-.48.08a38,38,0,0,0-7.42-2,48.53,48.53,0,0,1-11.3-8.52c1.37,2.53,5,5.88,8.8,8.23l-.91,0c-5.28-3.5-10.23-8.69-9-10.82,1.36-2.37,9.9,0,15.8,3.38a15.88,15.88,0,0,1,5.11,4.2,8.29,8.29,0,0,0,.56,1.41.83.83,0,0,1-.22.28.62.62,0,0,1-.8-.05c-4.07-3.83-11.52-7.66-16.09-7.92,6.55,2.82,11.75,6.13,15.9,10.82a1,1,0,0,1,.25.86.92.92,0,0,1-.14.37Zm5.24-27.92q-.27.38-.54.78c.61-4.08.41-8.46-.51-10.91a45.3,45.3,0,0,1-1,13.79,36.76,36.76,0,0,0-1.55,4.16A6.82,6.82,0,0,1,64.06,277a4,4,0,0,0,1.46-.86c-.07.26-.14.52-.2.78a3.86,3.86,0,0,1-.59.27,1,1,0,0,1-.84-.1.91.91,0,0,1-.46-.72c-.79-5.87.06-11.65,2.1-18.1-2.65,3.44-4.52,11.14-4.3,16.44a.6.6,0,0,1-.47.61.73.73,0,0,1-.36,0,7.8,7.8,0,0,0-.69-1.52,15.51,15.51,0,0,1,.22-6c1.23-6.33,4.83-13.91,7.38-13.41,2.2.42,2.88,6.75,2.23,12.55Zm-4.8,12.8,0,.34-.17-.32.22,0Zm-.37,2.87c0,.44-.06.87-.08,1.28-.67-1.44-1.33-2.88-1.87-4.29l.52.08c.47,1,1,2,1.43,2.93Zm-4,.28c-.66-.35-1.34-.69-2-1a9,9,0,0,0,1-1.17l1,2.18Zm-5.06-2.25c-.65-.24-1.29-.45-1.93-.65a4.94,4.94,0,0,0,3.24-.25c-5.07.66-13.49-6.85-17.22-11.5,1.59,3.72,7.64,9.57,12.62,11.36-.83-.22-1.64-.4-2.43-.55-.57-.33-1.17-.71-1.8-1.15-5.28-3.71-10.72-10.1-9.23-12.22s9.35.83,14.62,4.54a15,15,0,0,1,4.47,4.41,8.37,8.37,0,0,0,.4,1.36.59.59,0,0,1-.22.25.61.61,0,0,1-.76-.11c-3.51-4-10.21-8.21-14.51-8.86,5.95,3.23,10.58,6.8,14.08,11.58a1,1,0,0,1,.17.83,1,1,0,0,1-.54.66,3.84,3.84,0,0,1-1,.3Zm7.71-25.3c-.27.38-.54.78-.8,1.2,1.38-4.69,1.5-10.74.43-13.82.39,5.94-.75,17.18-4.93,20.11a4.48,4.48,0,0,0,2.09-1.42c-.15.38-.29.76-.43,1.14a4,4,0,0,1-1,.49,1,1,0,0,1-.84-.13.93.93,0,0,1-.44-.72c-.64-5.89.35-11.65,2.55-18-2.72,3.38-4.79,11-4.71,16.33a.59.59,0,0,1-.48.6.6.6,0,0,1-.35,0,8,8,0,0,0-.66-1.54,15.65,15.65,0,0,1,.37-6c1.38-6.3,5.18-13.78,7.71-13.22s2.83,8.78,1.49,15.07Zm-4.6,10.2c-.09.33-.17.65-.25,1l-.44-1a5.3,5.3,0,0,0,.69,0Zm-.69,3.11-.06.35c-.5-1.21-1-2.41-1.41-3.6l1.47,3.25Zm-3.64-.19c-.61-.41-1.26-.81-1.92-1.19a8.74,8.74,0,0,0,1-1.12l.94,2.31Zm-4.35-2.47-.68-.32a3.89,3.89,0,0,0,1.18-.32,6.93,6.93,0,0,1-2.89-.42l-.93-.35c-4.73-2-10.31-7.49-13.11-11.16,1.2,3,5.17,7.4,9.24,10-.38-.08-.75-.14-1.1-.19-5.18-3.84-10.45-10.35-8.91-12.43s9.32,1.06,14.51,4.9a14.87,14.87,0,0,1,4.35,4.52,9,9,0,0,0,.36,1.38.53.53,0,0,1-.23.24.6.6,0,0,1-.75-.14c-3.41-4.05-10-8.46-14.28-9.21,5.87,3.37,10.4,7.06,13.79,11.93a1,1,0,0,1,.14.83,1.06,1.06,0,0,1-.69.7Zm8.75-26.34c-.18.18-.35.37-.52.57.71-4.07.62-8.48-.24-10.95a46.35,46.35,0,0,1-1.08,12.68,34.23,34.23,0,0,0-3.58,7.22l-.27.21.22-.08-.1.3a1.17,1.17,0,0,1-.3-.14,1,1,0,0,1-.44-.72c-.65-5.9.35-11.66,2.55-18.05C52,234,50,241.67,50.05,247a.57.57,0,0,1-.48.59.63.63,0,0,1-.36,0,8,8,0,0,0-.65-1.54,15.24,15.24,0,0,1,.37-6c1.38-6.31,5.18-13.79,7.71-13.23,2.22.49,2.73,7,1.88,12.84ZM52.18,252l-.13.5-.24-.54.37,0Zm-3.55,2.38c-.37-.28-.76-.55-1.15-.81.2-.22.41-.45.6-.69.18.5.36,1,.55,1.5Zm-3.34-2.17-.37-.21.43-.16c-.23,0-.46,0-.7,0A34.43,34.43,0,0,0,37.87,249a46.27,46.27,0,0,1-9.45-9.07c1,2.48,3.9,5.93,7.19,8.55-.28-.05-.55-.08-.82-.11-4.53-3.86-8.5-9.18-7.14-11,1.54-2.08,9.32,1.07,14.5,4.91a14.85,14.85,0,0,1,4.35,4.51,8.64,8.64,0,0,0,.38,1.38.56.56,0,0,1-.24.24.59.59,0,0,1-.75-.13c-3.41-4.05-10-8.46-14.28-9.22C37.48,242.4,42,246.09,45.4,251a1,1,0,0,1,.14.84,1.09,1.09,0,0,1-.25.43Zm6.9-24.39c-.2.27-.38.54-.58.83.89-4,.89-8.57,0-11,.24,3.79-.2,10-1.81,14.19-.29.58-.57,1.19-.83,1.81a6.44,6.44,0,0,1-1.81,2.13,3.4,3.4,0,0,0,1.19-.62l-.24.67-.35.14a.89.89,0,0,1-.76-.11.88.88,0,0,1-.4-.65c-.58-5.32.32-10.51,2.31-16.28-2.47,3.05-4.33,10-4.25,14.73a.54.54,0,0,1-.44.53.51.51,0,0,1-.32,0,7.05,7.05,0,0,0-.59-1.39,14,14,0,0,1,.33-5.4c1.25-5.69,4.68-12.43,7-11.93,2.11.46,2.5,7,1.56,12.43Zm-4.83,10.38c-.17.59-.32,1.17-.45,1.76l-.73-1.86a6.64,6.64,0,0,0,1.18.1ZM43.79,241c-.54-.4-1.1-.79-1.68-1.16a8.74,8.74,0,0,0,1-1.15c.26.81.53,1.61.81,2.41ZM40,238.58l-.53-.29a3.37,3.37,0,0,0,1-.28,5.47,5.47,0,0,1-1.69-.11,36.26,36.26,0,0,0-4-1.76,40.47,40.47,0,0,1-9.58-8.88c.94,2.35,3.77,5.66,6.91,8.05-.3-.08-.6-.14-.89-.2-4.19-3.5-8-8.48-6.72-10.18,1.39-1.88,8.4,1,13.08,4.42a13.66,13.66,0,0,1,3.92,4.07,7.35,7.35,0,0,0,.33,1.25.43.43,0,0,1-.21.21.51.51,0,0,1-.67-.12c-3.08-3.65-9-7.63-12.88-8.31,5.29,3.05,9.38,6.37,12.43,10.76a.89.89,0,0,1,.13.76,1,1,0,0,1-.59.61ZM49,213.93c-.14.1-.29.21-.43.33a20.86,20.86,0,0,0,.05-8.39,42.86,42.86,0,0,1-1.13,9.43,27.12,27.12,0,0,0-4.57,8.44.84.84,0,0,1-.32-.64c-.27-5.34.93-10.47,3.25-16.11-2.64,2.9-4.9,9.67-5.1,14.45a.53.53,0,0,1-.46.51.56.56,0,0,1-.32,0,6.83,6.83,0,0,0-.52-1.42,14.19,14.19,0,0,1,.65-5.38c1.58-5.6,5.39-12.13,7.64-11.5,1.81.51,2,5.49,1.26,10.33Zm-6.81,12.12c-.07.3-.15.6-.22.89l-.38-1c.2.05.4.1.6.13ZM40,229c-.3-.25-.63-.51-1-.76s-.76-.55-1.17-.82a8.07,8.07,0,0,0,1-1,3.27,3.27,0,0,0,.28-.37L40,229Zm-4.23-2.87-.58-.32a3.21,3.21,0,0,0,1-.22,5.76,5.76,0,0,1-2.17-.37c-.6-.29-1.2-.57-1.8-.82-4-2.24-8.42-7.14-10.64-10.43.9,2.68,4.1,6.71,7.52,9.32-.33-.1-.66-.18-1-.26-4.37-3.74-8.56-9.67-7.1-11.43s8.34,1.45,12.8,5.18a13.5,13.5,0,0,1,3.68,4.29,6.85,6.85,0,0,0,.26,1.26.47.47,0,0,1-.22.2.54.54,0,0,1-.67-.15c-2.86-3.83-8.56-8.15-12.37-9.05,5.1,3.34,9,6.9,11.78,11.46a.85.85,0,0,1,.08.76.93.93,0,0,1-.62.58ZM44,203.92c-.2.22-.39.45-.58.69,1.08-3.68,1.34-8.05.65-10.43a36.37,36.37,0,0,1-2.34,12.89c-.45.73-.87,1.51-1.27,2.31a5.35,5.35,0,0,1-1.52,1.49,3,3,0,0,0,1-.44l-.25.58-.21.06a.85.85,0,0,1-.71-.14.89.89,0,0,1-.34-.63c-.25-5,.88-9.8,3.05-15.07-2.47,2.71-4.59,9.05-4.77,13.51a.5.5,0,0,1-.44.48.45.45,0,0,1-.3-.05,6.22,6.22,0,0,0-.48-1.32,13.28,13.28,0,0,1,.61-5c1.48-5.24,5-11.35,7.14-10.76s2,6.78.75,11.87Zm-5.16,9.25c-.23.65-.44,1.3-.62,1.94-.08.29-.16.57-.22.84-.38-1.07-.75-2.14-1.12-3.21l.5.16a7.36,7.36,0,0,0,1.46.27Zm-2.52,3.38c-.28-.27-.59-.54-.92-.82-.5-.41-1-.82-1.57-1.22A7.69,7.69,0,0,0,35,213.42a5.6,5.6,0,0,0,.36-.49c.34,1.21.67,2.42,1,3.62Zm-4.45-3.36-.57-.35a3.34,3.34,0,0,0,1.22-.22,6,6,0,0,1-2.59-.56c-.47-.25-.93-.49-1.39-.71-3.68-2.16-7.66-6.6-9.69-9.6.79,2.37,3.53,5.89,6.53,8.32l-.89-.27c-3.91-3.51-7.48-8.69-6.16-10.27s7.79,1.35,12,4.84a12.57,12.57,0,0,1,3.44,4,6.84,6.84,0,0,0,.24,1.18.46.46,0,0,1-.2.19.5.5,0,0,1-.63-.15c-2.68-3.58-8-7.62-11.57-8.46,4.77,3.13,8.41,6.45,11,10.72a.83.83,0,0,1-.42,1.22l-.31.1Zm8.8-21.75c-.18.16-.36.34-.54.53,1.09-3.54,1.44-7.62.87-9.93a38.09,38.09,0,0,1-2.33,11.73,27.84,27.84,0,0,0-2.3,3.9,5.2,5.2,0,0,1-1.09.88,3.17,3.17,0,0,0,.8-.28,3.43,3.43,0,0,1-.26.5.84.84,0,0,1-.7-.17.81.81,0,0,1-.31-.64c-.08-5,1.21-9.76,3.56-15-2.55,2.62-4.89,8.89-5.24,13.34a.5.5,0,0,1-.45.47.6.6,0,0,1-.3-.06A5.84,5.84,0,0,0,32,195.4a13.09,13.09,0,0,1,.79-5c1.66-5.18,5.43-11.16,7.51-10.49,1.91.6,1.73,6.56.42,11.54ZM35,200.83c-.24.67-.46,1.34-.64,2q-.21.74-.36,1.41c-.45-1.37-.9-2.75-1.34-4.12a5.23,5.23,0,0,0,1,.41,7.33,7.33,0,0,0,1.37.31Zm-2,3.78c-.4-.39-.84-.79-1.33-1.2s-1.15-.92-1.76-1.35A7.55,7.55,0,0,0,31.2,201a5.67,5.67,0,0,0,.69-.94c.38,1.54.78,3.08,1.18,4.6Zm-5.22-3.94L27,200.2a3.68,3.68,0,0,0,1.76-.13c-4.31.05-10.62-7.09-13.28-11.35.82,2.78,4.19,7.18,7.63,9.66L22,198l-.39-.34c-4.05-3.64-8-9.53-6.51-11.16,1.06-1.18,4.68.22,8.14,2.48,1.49,2.66,3.13,3.68,4.76,3.85a10.53,10.53,0,0,1,2.19,3.07,8.05,8.05,0,0,0,.2,1.18.48.48,0,0,1-.21.19.49.49,0,0,1-.62-.18c-2.55-3.67-7.73-7.89-11.27-8.86,4.66,3.3,8.18,6.75,10.64,11.1a.84.84,0,0,1-.47,1.21,2.68,2.68,0,0,1-.59.14Zm2.57-8.15-.05.29s-.08-.25.05-.29Zm1.14-3.81a.49.49,0,0,1-.46-.45c-.43-4.45-2.89-10.67-5.5-13.24,2.45,5.15,3.83,9.88,3.85,14.88a.78.78,0,0,1-.3.65.79.79,0,0,1-.69.18,2.14,2.14,0,0,1-.32-.08c-.72-.63-1.5-1.24-2.32-1.83a14.88,14.88,0,0,1-1.93-4c-1.76-5.15-2.3-12.2-.23-12.91s6,5.2,7.72,10.35a13.3,13.3,0,0,1,.88,4.8c-.24.54-.47,1.07-.68,1.61ZM29,190.5c-4.49-.77-7-11.91-6-16.39.23,5,2.25,14.33,6,16.39ZM97.05,346.11c-20-14.13-50-28.29-66.28-43.78,11,13.47,55,38.18,71.06,50.36q1.62,2.19,3.29,4.38c-18-11.33-48.49-28.59-66.4-44.36C25.23,300.84,14.84,287.05,8.86,273c6.07,19.92,26.2,38.06,29.37,40.87,15.86,14.08,51.71,37.86,67.83,44.44,1,1.36,2.1,2.72,3.16,4.07-32-10.48-64-38.76-83.5-59.51,19.28,23.41,52.66,53.33,86.76,63.62l.84,1c-36.23-7.76-81.71-51.29-99.77-79.1C31,320.47,79.34,366,117.4,372.5l2.65,3.15C76.29,364.72,32.22,324.83,12.66,289a81.84,81.84,0,0,1-9.82-34.3c14.64,51.39,58.53,65.5,92.79,89.4Z"/><path class="cls-3" d="M133,33.49c-3.36-2.5-2.44-6.6-.1-10a3.75,3.75,0,0,1-1.6-3.67l.87-6.45a8.39,8.39,0,0,1,.52-6C136.37,0,151.2,0,158.38,0a69.16,69.16,0,0,1,12.85,1.32c6.12,1.23,15.74,4.62,13.25,12.52.29,1.84.46,3.73.75,5.57a3.79,3.79,0,0,1-1.67,3.78c2.33,3.6,3.41,7.9-.09,10.48l4.77,92.07a50.55,50.55,0,0,0,4.86,18.56c3.61,8,8.38,15.36,12.07,23.31,4.49,9.71,6.89,19.14,6.69,29.9l-3.42,180.82c-.24,13-3.23,24.77-17.65,27.67-22.68,4.57-45.33,5.73-67.89-.27-14-3.72-17.16-14.63-17.32-27.76l-2.15-180.83c-.13-10.76,2.34-20.18,6.89-29.85,3.74-7.92,8.57-15.28,12.23-23.22a50.72,50.72,0,0,0,5-18.54Z"/><path class="cls-4" d="M123.61,403.06c-12.42-3.3-15.11-12.82-15.25-25.12L106.2,197.1c-.37-31.53,22.58-45.16,24.12-71.41l5.5-93.75c-3.06-1.29-3.13-4,0-7.8a4.44,4.44,0,0,0,1-3.29c-.84-.38-1.65.79-2.4.38a1,1,0,0,1-.47-1.05l.95-7C131.7,3,150.54,2.74,158.37,2.77c3.4,0,27.2,1,23.26,10.81.19,1.05.57,4.37.86,6.26a1,1,0,0,1-.42,1c-.75.48-1.53-.64-2.36-.23a4.35,4.35,0,0,0,1,3.66c3.1,3.88,3,6.54,0,7.81l4.85,93.78c1.36,26.25,24.21,40.05,23.62,71.58l-3.41,180.82c-.23,12.29-2.82,22.47-15.43,25-22.23,4.48-44.44,5.66-66.64-.23ZM138,19.14c.34.41.66.88,1,1.24,0-.66-.53-3.25-.75-3.11a5.64,5.64,0,0,0-.22,1.87Zm1.8,1.78a2.39,2.39,0,0,0,.75-.46c.75-1,1.58-2.88,2.66-2.58,1.39.39,1.55,3.78,2.19,4.64a.88.88,0,0,0,.52-.06c.84-.81,1.69-3.48,3.09-3.26s1.87,3.42,2.54,4.29a1.32,1.32,0,0,0,.59,0c.77-.83,1.49-3.64,3-3.56s2.18,3.06,2.9,3.91a1.13,1.13,0,0,0,.32.05c1-.86,1.7-3.88,3.17-3.95s2.19,2.7,2.93,3.56a1,1,0,0,0,.48.07c.87-.85,1.48-4,2.92-4.2s2.05,2.32,2.83,3.12a1,1,0,0,0,.51.08c.67-.82.83-3.91,2.17-4.31,1.18-.36,2.08,1.69,2.89,2.46a1.58,1.58,0,0,0,.49.15c.62-.87.56-4.17,1.73-4.78.47-.24,1.05,1,1.49,1.91a1.7,1.7,0,0,1,.6.05l-.25.61a.24.24,0,0,0,.31.11.32.32,0,0,0,.16-.32c-.09-.61-.47-2.39-.55-3a1,1,0,0,0-.43-.69.75.75,0,0,0-.75,0A48.25,48.25,0,0,1,158.24,19a48.27,48.27,0,0,1-20.7-4.39.77.77,0,0,0-.75,0,1,1,0,0,0-.43.71l-.45,3.11c.43-.15,1.59-2.41,2.26-2.12,1.22.55,1,3.72,1.63,4.6Zm3.2-.85a10.86,10.86,0,0,1,1.51,1.71c0-.86-.78-3-1.37-2.91a7.25,7.25,0,0,1-.14,1.2Zm5.89,1.57a6.92,6.92,0,0,1,1.71,1.23c-.11-.88-1-2.76-1.62-2.62,0,.5-.06,1-.09,1.39Zm6.3.59a4.06,4.06,0,0,1,1.63.85c-.25-.95-1-2.38-1.54-2.26,0,.51-.07,1-.09,1.41Zm6.34,0a2.53,2.53,0,0,1,1.51.43c-.32-.91-1-2-1.42-1.88,0,.52-.07,1-.09,1.45Zm6.69-.69a2.54,2.54,0,0,1,1.37.37c-.32-.73-.89-1.54-1.29-1.46a9,9,0,0,1-.08,1.09Zm5.55-1.18a2.2,2.2,0,0,1,.39-.17,1.47,1.47,0,0,1,.83,0c-.33-.62-.79-1.18-1.12-1.11,0,.47-.08.91-.1,1.29Zm5-1.6a3.24,3.24,0,0,1,.62-.57c-.3-.7-.72-1.42-.92-1.34a12.22,12.22,0,0,0,.3,1.91Zm-29.64,5.6a1.64,1.64,0,0,0-.65-.27c-1.06-.17-2.12,1.2-3.14,1s-2-2.49-3-2.76a.89.89,0,0,0-.58,0A13,13,0,0,1,139.66,28a.93.93,0,0,0-.11.81.92.92,0,0,0,.55.6,1,1,0,0,1,.75,1L135.19,126c-1.65,27.8-24.46,41.37-24.11,71.07l2.16,180.83c.1,8.49,1,17.61,11,20.34a120.62,120.62,0,0,0,59,.87c-15.09,1-33.38,1.36-48.4-3.69C125,392.08,127.12,382,127,373.55L124.84,197.1c-.47-38.7,17.51-46.8,17.85-71.1L144,32.51a.83.83,0,0,1,1-.79,38,38,0,0,0,5.77,1.09,70.72,70.72,0,0,0,9.64.31c3.33-.09,6.55-.35,9.6-.71s6-.87,8.65-1.41a.26.26,0,0,0,.2-.25.18.18,0,0,0-.2-.2c-2.69.35-5.59.75-8.66,1s-6.29.41-9.62.36a85,85,0,0,1-9.67-.68c-1.2-.16-7.23-1-7.32-2.29a1,1,0,0,1,.48-.91,29.57,29.57,0,0,0,5.17-3.67Zm29.27-11.94c-8.12,3.71-31.91,3.64-40.09-.12,3.1,2.82,11.25,4.33,19.94,4.36s17.18-1.79,20.15-4.24Zm-19.93-7.5C147.87,4.9,139.3,7,139.29,9s5.29,4.45,19.11,4.21c9.57-.17-.4-1.49-5.54-3.59-3.76-1.53-4.83-3.84,5.57-4.7Zm16.06,32.68a.6.6,0,0,0-.65-.45.56.56,0,0,0-.61.44c-.37,12.44-.36,26.95.11,42.43s1.34,30,2.47,42.44a.61.61,0,0,0,.63.45c.34,0,.62-.2.62-.45.37-12.44.36-26.94-.11-42.42s-1.33-30-2.46-42.44ZM115.38,195.14c0-.54-.31-1-.64-1s-.61.43-.61,1c-.43,26.89-.47,58.26-.06,91.74s1.21,64.84,2.29,91.73c0,.54.3,1,.63,1s.62-.42.62-1c.43-26.9-.56-58.85-1-92.34s-.18-64.23-1.26-91.14Zm76.49,3.91c0-.55-.33-1-.72-1s-.7.43-.72,1c-1.15,27-.37,58.49-.74,92.1s-1.82,65.09-1.26,92.1c0,.54.32,1,.7,1s.71-.42.73-1c1.15-27,2-58.48,2.35-92.1s.22-65.1-.34-92.11Zm-8.29-50c-6.34-10.46-10.13-.55-7.15,6.22,5,11.32,21.27,32.21,21.06,42.62l-3.38,173.57c-.35,18.72-.15,21.16-6.19,27,10.34-1.31,11-11.77,11.16-20.26l3.4-178C202.89,178.32,192.93,164.44,183.58,149Z"/><path class="cls-1" d="M156,265.53a2.71,2.71,0,0,1-.27-1.33q-.75-10.42-1.49-20.85c0-.15,0-.3,0-.46,0-.82-.16-1.91,1-2,1.29-.11,1.27,1.08,1.39,2,.16,1.22.3,2.44.39,3.66.42,6.11.81,12.22,1.22,18.34,0,.15.11.35,0,.45-.3.45-.64.88-1,1.33A6,6,0,0,1,156,265.53Z"/><path class="cls-1" d="M182.33,223.94a2.79,2.79,0,0,1,.29,1.33c.24,5.59.46,11.18.71,17.27-.13.15-.48.85-1,1-.83.19-1.19-.56-1.27-1.29-.15-1.29-.28-2.59-.34-3.9-.18-4.36-.32-8.73-.48-13.1a2.44,2.44,0,0,1,.05-1.12c.19-.35.6-.78.95-.8A1.42,1.42,0,0,1,182.33,223.94Z"/><path class="cls-1" d="M174.2,259.55c-.18,2.75-.39,5.5-.59,8.25-.05.77-.15,1.54-.14,2.3.06,8.08.14,16.15.19,24.23a11.27,11.27,0,0,1-.2,2.73c-.09.36-.73.73-1.16.78-.26,0-.73-.5-.85-.86a5.63,5.63,0,0,1-.1-1.6q-.06-6.57-.11-13.15h0c0-4.15-.13-8.3-.1-12.46,0-1.36.41-2.72.52-4.09.15-2.07.21-4.15.3-6.22,0-.76.26-1.48,1.1-1.51C174,257.91,174.26,258.71,174.2,259.55Z"/><path class="cls-1" d="M173.3,243.32c.29.05.63.82.61,1.26a17.4,17.4,0,0,1-.45,3.36c-.12.49-.54,1.18-1,1.28-.81.22-1.19-.47-1.3-1.22-.08-.52-.08-1.06-.12-1.86a10,10,0,0,1,.71-2.35A1.73,1.73,0,0,1,173.3,243.32Z"/><path class="cls-1" d="M169.06,228.32a9.52,9.52,0,0,1-.11-1.83c.09-.43.49-1.07.83-1.13a1.49,1.49,0,0,1,1.22.72,6,6,0,0,1,.4,2c.13,1.37.21,2.75.34,4.55a16.18,16.18,0,0,1-.23,2.56,1.3,1.3,0,0,1-1.75,1c-.77-.22-1.29-.87-1-1.57C169.8,232.55,169.12,230.43,169.06,228.32Z"/><path class="cls-1" d="M161.88,229.26H162a14.44,14.44,0,0,1,.11-2.72,1.84,1.84,0,0,1,1.16-1.08c.22-.06,1,.63,1,1a54.17,54.17,0,0,1-.13,5.7,1.09,1.09,0,0,1-1.45,1c-.4-.15-.7-.9-.77-1.42A17.42,17.42,0,0,1,161.88,229.26Z"/><path class="cls-1" d="M161.06,244.41H161c0-.84,0-1.69.06-2.53s-.14-1.9,1-2c1.35-.07,1.15,1.15,1.28,2a11.09,11.09,0,0,1,.07,1.15L165,270.64c.3,5.13.58,10.26.89,15.39,0,.73,0,1.47-.88,1.61s-1.34-.66-1.42-1.43c-.22-2-.36-4-.48-6q-.79-13-1.54-26Q161.32,249.34,161.06,244.41Z"/><path class="cls-1" d="M179.29,217.31c0-1.53.17-3.06.22-4.6.09-2.68.13-5.37.2-8.05H180q-.22-7-.44-14a11.67,11.67,0,0,1,0-2.29,1.29,1.29,0,0,1,.89-.84,1.36,1.36,0,0,1,1.08.62,3.73,3.73,0,0,1,.31,1.55,203.17,203.17,0,0,1-.2,26.46,3.12,3.12,0,0,1-.31,1.55,4.62,4.62,0,0,1-1.38.92C179.75,218.16,179.29,217.73,179.29,217.31Z"/><path class="cls-1" d="M181.78,304.77c0,.38-.08.76-.12,1.14h.09c-.29,2-.53,3.93-.88,5.89a4.13,4.13,0,0,1-.84,1.84,1.52,1.52,0,0,1-1.36.38,1.41,1.41,0,0,1-.55-1.27c1.25-3.45,1.17-7.07,1.42-10.64,0-.3,0-.69.14-.89.31-.37.77-.9,1.13-.87a1.44,1.44,0,0,1,1,1A24.59,24.59,0,0,1,181.78,304.77Z"/><path class="cls-1" d="M182.84,280c-.15.74-.37,1.61-1.4,1.49s-.92-1-.9-1.78q.15-5.88.28-11.75h0l.28-12c0-.7,0-1.5.9-1.63,1-.15,1.26.7,1.42,1.47a7.77,7.77,0,0,1,.07,1.6q-.21,10.14-.43,20.28A13.56,13.56,0,0,1,182.84,280Z"/><path class="cls-2" d="M163.63,286.21c.08.77.39,1.59,1.42,1.43s.92-.88.88-1.61c-.31-5.13-.59-10.26-.89-15.39l-1.59-27.57a11.09,11.09,0,0,0-.07-1.15c-.13-.86.07-2.08-1.28-2-1.18.06-1,1.16-1,2s0,1.69-.06,2.53h.06q.27,4.93.55,9.88.76,13,1.54,26C163.27,282.23,163.41,284.22,163.63,286.21Z"/><path class="cls-2" d="M171.92,259.46c-.09,2.07-.15,4.15-.3,6.22-.11,1.37-.51,2.73-.52,4.09,0,4.16.06,8.31.1,12.46h0q.06,6.58.11,13.15a5.63,5.63,0,0,0,.1,1.6c.12.36.59.89.85.86.43,0,1.07-.42,1.16-.78a11.27,11.27,0,0,0,.2-2.73c0-8.08-.13-16.15-.19-24.23,0-.76.09-1.53.14-2.3.2-2.75.41-5.5.59-8.25.06-.84-.16-1.64-1.18-1.6C172.18,258,172,258.7,171.92,259.46Z"/><path class="cls-2" d="M181.38,217.67a3.12,3.12,0,0,0,.31-1.55,203.17,203.17,0,0,0,.2-26.46,3.73,3.73,0,0,0-.31-1.55,1.36,1.36,0,0,0-1.08-.62,1.29,1.29,0,0,0-.89.84,11.67,11.67,0,0,0,0,2.29q.22,7,.44,14h-.32c-.07,2.68-.11,5.37-.2,8.05,0,1.54-.23,3.07-.22,4.6,0,.42.46.85.71,1.28A4.62,4.62,0,0,0,181.38,217.67Z"/><path class="cls-2" d="M183.4,255.79c-.16-.77-.39-1.62-1.42-1.47-.88.13-.89.93-.9,1.63l-.28,12h0q-.13,5.88-.28,11.75c0,.76-.21,1.66.9,1.78s1.25-.75,1.4-1.49a13.56,13.56,0,0,0,.2-2.3q.22-10.14.43-20.28A7.77,7.77,0,0,0,183.4,255.79Z"/><path class="cls-2" d="M158.17,265.29c.06-.1,0-.3,0-.45-.41-6.12-.8-12.23-1.22-18.34-.09-1.22-.23-2.44-.39-3.66-.12-.88-.1-2.07-1.39-2-1.13.1-1,1.19-1,2,0,.16,0,.31,0,.46q.74,10.43,1.49,20.85a2.71,2.71,0,0,0,.27,1.33,6,6,0,0,0,1.25,1.09C157.53,266.17,157.87,265.74,158.17,265.29Z"/><path class="cls-2" d="M180.33,224.09a2.44,2.44,0,0,0-.05,1.12c.16,4.37.3,8.74.48,13.1.06,1.31.19,2.61.34,3.9.08.73.44,1.48,1.27,1.29.48-.11.83-.81,1-1-.25-6.09-.47-11.68-.71-17.27a2.79,2.79,0,0,0-.29-1.33,1.42,1.42,0,0,0-1.05-.65C180.93,223.31,180.52,223.74,180.33,224.09Z"/><path class="cls-2" d="M180.81,300.36c-.36,0-.82.5-1.13.87-.16.2-.12.59-.14.89-.25,3.57-.17,7.19-1.42,10.64a1.41,1.41,0,0,0,.55,1.27,1.52,1.52,0,0,0,1.36-.38,4.13,4.13,0,0,0,.84-1.84c.35-2,.59-3.93.88-5.89h-.09c0-.38.11-.76.12-1.14a24.59,24.59,0,0,0,.05-3.43A1.44,1.44,0,0,0,180.81,300.36Z"/><path class="cls-2" d="M169.76,236.22a1.3,1.3,0,0,0,1.75-1,16.18,16.18,0,0,0,.23-2.56c-.13-1.8-.21-3.18-.34-4.55a6,6,0,0,0-.4-2,1.49,1.49,0,0,0-1.22-.72c-.34.06-.74.7-.83,1.13a9.52,9.52,0,0,0,.11,1.83c.06,2.11.74,4.23-.26,6.33C168.47,235.35,169,236,169.76,236.22Z"/><path class="cls-2" d="M162.63,233.18a1.09,1.09,0,0,0,1.45-1,54.17,54.17,0,0,0,.13-5.7c0-.36-.75-1-1-1a1.84,1.84,0,0,0-1.16,1.08,14.44,14.44,0,0,0-.11,2.72h-.09a17.42,17.42,0,0,0,0,2.5C161.93,232.28,162.23,233,162.63,233.18Z"/><path class="cls-2" d="M171.2,248c.11.75.49,1.44,1.3,1.22.42-.1.84-.79,1-1.28a17.4,17.4,0,0,0,.45-3.36c0-.44-.32-1.21-.61-1.26a1.73,1.73,0,0,0-1.51.47,10,10,0,0,0-.71,2.35C171.12,246.94,171.12,247.48,171.2,248Z"/></g></g></svg>