<svg xmlns="http://www.w3.org/2000/svg" viewBox="0 0 517.15 389.98"><defs><style>.cls-1{fill:#eae4cc;}.cls-2,.cls-3,.cls-5,.cls-6,.cls-7,.cls-8{fill:#333;}.cls-3,.cls-5{fill-rule:evenodd;}.cls-4{fill:#f5f2e1;}.cls-5,.cls-6,.cls-7,.cls-8{stroke:#333;}.cls-5,.cls-6{stroke-miterlimit:10;}.cls-6{stroke-width:2.5px;}.cls-7,.cls-8{stroke-linecap:round;stroke-linejoin:round;}.cls-7{stroke-width:2px;}.cls-8{stroke-width:2.89px;}</style></defs><g id="레이어_2" data-name="레이어 2"><g id="텍스트_1" data-name="텍스트 1"><path class="cls-1" d="M259.6,165.69c1.3,1.07-.82,2.26-2.86,3.78a48.48,48.48,0,0,0-4.68,3.56c-1.47,1.21-2.63-.1-1.78-1.75.38-.75.86-1,7-5.34.27-.19.54-.49.83-.5A2.47,2.47,0,0,1,259.6,165.69Z"/><path class="cls-1" d="M270.46,153.49c.85-.39,1.86-.75,2.24.39.18.52-.44,1.32-.61,1.76-1.7.72-4,2.1-4.34.31C267.47,154.49,270,153.7,270.46,153.49Z"/><path class="cls-1" d="M273,148.07c-.12.58-.06,1.31-.4,1.69a14.74,14.74,0,0,1-2.56,2.23,1.38,1.38,0,0,1-1.29.12c-.35-.31-.72-1.07-.57-1.41a10.55,10.55,0,0,1,1.33-1.9C271.58,147.55,270.64,147.62,273,148.07Z"/><path class="cls-1" d="M242,152.54c.55,1.38-2.35,3.4-3.8,4.41a1.2,1.2,0,0,1-1.81-1.45,23.57,23.57,0,0,1,2.18-2.52l.18.17C239.48,152.62,241.36,151,242,152.54Z"/><path class="cls-1" d="M257.29,143.22c-.27-.46,0-1.35.23-2,.16-.4.71-.65,1.09-.95,9.15-7.05,10.84-8.87,11.93-7.17.53.82,0,1.39-.62,1.85l-6.6,4.64.29.42C259.05,143.26,258,144.38,257.29,143.22Z"/><path class="cls-1" d="M265.46,140.24c.48-.2,1.82.08,1.39,1.66-.16.62-.44.67-16.11,12.38-1.1.82-2.49,1.5-3.21.34s-.16-1.18,6.51-5.9l2.81-2,0-.05C263.82,141.21,264.36,140.7,265.46,140.24Z"/><path class="cls-1" d="M271.88,143.82c-.84-.81-.37-1.67.31-2.34,1-1,2-1.88,3-2.81l0,0c.62-.49,2.4-2.39,3.42-1.31.35.37.35,1.49-.69,2.42C273.06,144.2,272.76,144.69,271.88,143.82Z"/><path class="cls-2" d="M254,148.72c-6.67,4.72-7.23,4.75-6.51,5.9s2.11.48,3.21-.34c15.67-11.71,15.95-11.76,16.11-12.38.43-1.58-.91-1.86-1.39-1.66-1.1.46-1.64,1-8.65,6.45l0,.05Z"/><path class="cls-2" d="M263.32,139.63l6.6-4.64c.63-.46,1.15-1,.62-1.85-1.09-1.7-2.78.12-11.93,7.17-.38.3-.93.55-1.09.95-.24.61-.5,1.5-.23,2,.71,1.16,1.76,0,6.32-3.17Z"/><path class="cls-2" d="M257.24,165.94c-6.1,4.31-6.58,4.59-7,5.34-.85,1.65.31,3,1.78,1.75a48.48,48.48,0,0,1,4.68-3.56c2-1.52,4.16-2.71,2.86-3.78a2.47,2.47,0,0,0-1.53-.25C257.78,165.45,257.51,165.75,257.24,165.94Z"/><path class="cls-2" d="M278.68,137.4c-1-1.08-2.8.82-3.42,1.31l0,0c-1,.93-2.06,1.84-3,2.81-.68.67-1.15,1.53-.31,2.34s1.18.38,6.11-4C279,138.89,279,137.77,278.68,137.4Z"/><path class="cls-2" d="M236.37,155.5a1.2,1.2,0,0,0,1.81,1.45c1.45-1,4.35-3,3.8-4.41-.62-1.59-2.5.08-3.25.61l-.18-.17A23.57,23.57,0,0,0,236.37,155.5Z"/><path class="cls-2" d="M268.79,152.11a1.38,1.38,0,0,0,1.29-.12,14.74,14.74,0,0,0,2.56-2.23c.34-.38.28-1.11.4-1.69-2.4-.45-1.46-.52-3.49.73a10.55,10.55,0,0,0-1.33,1.9C268.07,151,268.44,151.8,268.79,152.11Z"/><path class="cls-2" d="M267.75,156c.33,1.79,2.64.41,4.34-.31.17-.44.79-1.24.61-1.76-.38-1.14-1.39-.78-2.24-.39C270,153.7,267.47,154.49,267.75,156Z"/><path class="cls-2" d="M285.81,302.8c1.1.08,1.38-.72,1.58-2.05.38-2.45-1.69-3.07-2.55-.56C284.49,301.2,284.76,302.73,285.81,302.8Z"/><path class="cls-2" d="M161.69,237c1.09.09,1.38-.72,1.58-2.05.37-2.45-1.69-3.07-2.56-.56C160.37,235.43,160.63,237,161.69,237Z"/><path class="cls-2" d="M152.65,225.12a1.41,1.41,0,0,0,2-1,18.81,18.81,0,0,0,.44-2.75c0-2,0-3.46,0-5a6.4,6.4,0,0,0-.27-2.2,1.66,1.66,0,0,0-1.27-.88c-.38,0-.86.7-1,1.16a9.51,9.51,0,0,0,0,2c-.1,2.29.47,4.63-.77,6.83C151.33,224.09,151.84,224.83,152.65,225.12Z"/><path class="cls-3" d="M164.63,240.76a50.33,50.33,0,0,1,2,16.68c-3.25-2.74-2.16-10.23-4-14.49C162.81,241.77,164.58,242,164.63,240.76Z"/><path class="cls-3" d="M365.24,236.45c1.53,3.84.8,10.19-1.91,13.08C361.78,246.35,362.73,238.61,365.24,236.45Z"/><path class="cls-3" d="M188.77,245.93c.09.33.44.39.46.81a161.26,161.26,0,0,0,1,21.76c.28,2.28,2.83,5.3.33,7.11-2.59-1.77-2.57-7.17-3-11.18-.69-5.93-2.39-13.65-.44-18.42Z"/><path class="cls-3" d="M191.85,249.14c.56.12.69.7,1.3.78-.1,7.92,1.58,11.58.83,18-1.88-1.49-2.48-6.14-2.95-9.5C190.52,254.84,190.3,251.19,191.85,249.14Z"/><path class="cls-3" d="M345.23,247.86c.41,4.63,2.19,11.76-1.87,13.93C343.25,257.21,341.39,249.62,345.23,247.86Z"/><path class="cls-3" d="M321,258.64l2.09-.1c2.07,2,.49,6.49.06,10.47s1.46,10.11-2.85,10.61C319.7,271.88,322,266.74,321,258.64Z"/><path class="cls-3" d="M291.69,277.6c.67-.14.74.37,1.28.37-.07,4.77,4.13,14.37-.91,16.39C291.48,288.43,289.85,281.6,291.69,277.6Z"/><path class="cls-3" d="M285.48,279.16c1.49,4.46,1.34,11.32,1.2,16.7-1.59-.37-1.15,1.1-2.48,1-.89-6-1.34-12.88,0-17.61Z"/><path class="cls-3" d="M264,294.41l1.67-.08c1.48,6.17-.31,12.78-2.13,17.29-2.39-2.08-.07-7.47.3-11.75.13-1.56-.56-2.89.22-4.21Z"/><path class="cls-3" d="M225,339c3.39,2.18,7.31,3.47,10.75,5.78,7.38,5,14.66,8.42,20.39,14.57a154.91,154.91,0,0,0,15.5-9.11c6.18-1.28,10.36-6,15.92-9.13,3.66-2,7.67-2.74,11.54-4.31a124.46,124.46,0,0,0,34.26-20.46c6.36-2.75,11.59-6.54,16.71-10.42-.74-.52.43-2.68-.6-3.74,1.93.69.66-1.54,1.6-1.75.62-11.33,3-21,5.27-30.85,5.79-3.68,10.63-8.21,16.64-11.68.46-2.42-1.36-2.61-.61-4.16,4.38-12.31,7.52-24.06,11.25-37.42-6.27-8.21-14.37-14.41-20.35-22.95,2.33-5.38,8.91-14,10.38-20.18.64-2.71-.45-3.79-1.59-7.06-2-5.84-3.39-11.66-7.75-13.47-11.4,2.3-20.44,6.76-30.55,10.23-1.73-1.91-5.9-1.14-6.89-3.87,4.71-4.13,10.44-7.31,15.85-10.8.59-7.2-.79-15.69-1.43-21.73C330.86,131.69,323.86,140,315.38,147c-5.2-4-8.73-9.76-14.05-13.6-2.21,1.6-2.36,5.07-4.29,6.91-4.48-2.6-8.15-6.43-13.06-10.29-4.3-3.38-10.09-10.47-16.82-10.12-17.11,16.59-38.71,29.1-61,41-1.06.67.37,3.31-.27,3.37-6.12-2.54-10.26-9.05-16.76-8.86-4.11.12-10.6,2.17-14.9,4-14.65,6.38-25.28,18.34-36,27.24a40.63,40.63,0,0,1-4.65,8.19c1.62,3.2,4.39,5.14,6.64,7.66-1.06.36-1.39,1.4-1.12,3,4,7.33,3.42,17.68,4.64,27.45A87.45,87.45,0,0,0,148.39,252c3.91,2.3,8,4.43,10.84,7.88,1.06,5.88,2.74,11.13,3.73,17,1,5.67.36,12.49,2.47,17.08,2.28,4.93,11.69,8.78,16.07,11.82Zm140.4-180.94c2.35,3.72,5.78,9.77,5.68,14-.05,2.29-2.54,6.94-3.75,9.4a187.05,187.05,0,0,1-14,22.87c-4.69.15-8.75-1.68-12.23-1.53C350.88,189.46,359.42,174.94,365.36,158.05ZM228,302c0,.25,0,.61-.23.64a.44.44,0,0,1-.29-.11l-4-2.53a2.09,2.09,0,0,1-.64-.54,2.13,2.13,0,0,1-.29-1.08c-.48-6.4.06-12.86-.74-19.23a18.69,18.69,0,0,1-.24-6,1,1,0,0,1,.2-.47c.25-.26.68-.17,1,0a11.23,11.23,0,0,1,3.31,1.93l-.38.21c1.4,1,1.63,3,1.74,4.72.26,3.88.52,7.76.59,11.65a46,46,0,0,1-.08,5.51A20.44,20.44,0,0,0,228,302Zm-12.23-8.29c-1,.88-5-2.35-6.87-3.45-.87-8.68.49-17.45-1.19-25.52,4.56-2.49,8.3,1.11,11.49,3.65-.06,1.74-.5,3.68-.08,5.37a16.62,16.62,0,0,1,.21,5.08c0,1.71.29,3.36.31,5a25.13,25.13,0,0,0,.83,4.94c.67,3.13,1.65,6.4,1.39,9.64-6.8-3.05-1.48-16.78-6.45-21.5C212.8,280,216.6,287.76,215.73,293.72Zm-35.38-57.47a79.29,79.29,0,0,0-6.92-4.7c.59-4.4,1.36-8.64,3.65-11.49,4.21-.08,6.61,1.84,10.58,2l3.4,1.1c9.72,2.3,18.87,3.25,30.78,3.6-11.28,5.75-27.37,9.25-41.41,11.15C178.47,238,180.86,237.3,180.35,236.25ZM178,239.3c-1.35,0-1.73.82-3.33.58-.7-.85-.42-2.77-1-3.73C175.62,236.61,177.35,237.36,178,239.3Zm52.22-12.91c-1.83,3.55-5.49,5.41-7.56,8.74-12.26,4.75-25.1,7.41-42.43,7C198,237.16,216.19,234.9,230.2,226.39ZM201.11,250c4.17-3.81,9.88-6.22,15.09-9.08.26,2.9-4.09,5.08-5.5,7.8C206.52,248,203,253.5,201.11,250Zm6,2.24c0,1.36-1.58,2.45-2.43,1.79l-.06-1.25C205.89,253,205.79,252,207.09,252.2ZM205,243.49c-2,2.28-8.35,6.74-10,1.31C199.84,245,201.84,243.08,205,243.49Zm-1.52,12.23c0,2.45-2.88,5.66-4.67,7.77.26-4.08-.18-7.12-.07-10.48C200.49,253.44,202.37,256.05,203.48,255.72Zm.88,10c2.25,5.84.95,15.23,1,21.74-5.94-1.83-4.52-14.09-5.94-19.42C200,266.29,203.47,267.2,204.36,265.75Zm-.13-2.94c.92-4,3.94-8.08,7-11.64,1.52-1.76,3.17-3.5,4.79-5.25,4.18-4.56,7.34-7.93,12.38-13.16,5.47-5.67,9.58-8.77,19.23-10.12.71-.19.81.29.88.8-9,11.85-19.15,22.62-24.22,38C218,260.45,209.66,260.16,204.23,262.81ZM169,181.87c4.81-3.76,9.79-7.37,13.26-12.36,4.12-.57,5.53,1.84,8.5,2.54-5.62,6.63-15.14,9.71-23.68,13.68C165.25,185.18,169.17,183.49,169,181.87Zm8.08,2.56c6.5-2.63,11.81-6.34,17.14-10,7.93,2,12.84,7.31,19.37,10.84l10.71,4.95c4,2.05,8.87,3.16,10.43,7.9-11.61.46-27.29-.78-37.31.06l-14.18,1.5c-5.62.62-11.48,4.34-15.3,4.49-5.38.19-8.49-4.74-13.26-5.68,3.13-3.55,5.51-7.79,11.32-8.91ZM195,200.36c8.93,1.36,18,0,27.71.8-9.15,5.89-25.25,3-34.39,8.73-5.79-.67-10.72-2.3-15.69-3.88C176.93,201.23,188.88,203.44,195,200.36Zm17.5,6.73c9.18-1.24,20.36-6,30.8-4.79,3.14.36,5.76,2,8.88,1.68-3.54,3.72-6,8.39-11.68,10.19L225.85,214c-10.77.44-22-.93-32-2.71C199.14,208.54,204.83,208.13,212.53,207.09Zm20.8-21.51c-5.56-5.47-13.52-8.31-19.09-13.78,15.47,1.77,27.07,11.62,39,18.72q.23,4.6.43,9.2C247.05,194.85,241.48,188.8,233.33,185.58Zm19.91,22.55c0,2.36-1.17,3.73-1.83,5.53-1.19,0-1.78-.68-3-.69A12.82,12.82,0,0,1,253.24,208.13Zm.21,13.41c3.48,1,4.2.83,7.59.9-5.5,11.28-6.33,26.82-6.82,42.66-5.61,1.43-10.59,3.44-16.12,4.94C238.77,249.82,247,236.48,253.45,221.54ZM256,185.78c10.91,4.35,7.92,28.84-2.31,31.55C257.18,208.72,260,196.73,256,185.78Zm-31.82,82c-1.85-.47-4.43-2.45-4.36-3.57a36,36,0,0,1,5.9.57c4-11.84,10.62-23.44,18.71-30.22-4.34,12.6-9.78,24.2-10.28,40.31,6.88.53,12.88-6.34,21.92-6.48a50.26,50.26,0,0,0,1.11-9.71c.24-5.91,0-11.86.83-17.74.35-2.62,1.2-5.1,1.64-7.69.48-2.81,2.31-5.36,3.33-8a3.15,3.15,0,0,1,.71-1.23,2.52,2.52,0,0,1,2.61,0,8.29,8.29,0,0,1,2.88,2.13c1,1.12,1.76,2.36,2.76,3.45a34.59,34.59,0,0,0,3.2,2.83c2.38,2.07,4.64,4.29,6.86,6.55,4.38,4.45,8.65,9.06,13.54,13,4,3.17,9.16,4.89,11.77,9.52-16.72,9.47-34.67,17.82-50.68,27.93a121.9,121.9,0,0,1-25.48-16Zm41.57-79.48c0-.29,0-.56,0-.84,18.45-3.53,6.32,25.64,2.27,30.91l-5.85.28c-.73-2.3,3-4.29,4.25-7.75C269.15,203.33,267,192.72,265.73,188.27Zm13.38,8.17c1.62,9.16-3.28,15.66-6.54,21.69C276.18,212.2,276.15,203,279.11,196.44ZM269,221.65c2.15-.92,4.77,1.11,5.59,3.09,5.82,1.31,9.74,5.09,14.65,8.54a119.9,119.9,0,0,1,25.43,24c-.87.94-2.42,1.27-3.25,2.25C296.26,248,281.1,236.47,269,221.65Zm8.65-3.34.83,0c11.59,5,26.92,5.91,37.85,11.64-13.13-1.11-26.23-6.08-37.79-10.39A1.15,1.15,0,0,1,277.62,218.31Zm58.94-21.61c-17.26-1.58-34.19,2.49-48.39,5.19,2.64-5.75,11.57-9.21,14.77-15.78,12.82-5,27-6.67,41.11-8.62,1.58,1.19,2.94,2.63,5.17,3.11A135.93,135.93,0,0,1,336.56,196.7Zm4.22.65c.43-2.41,2.27-3.54,3.53-5.2C344.64,193.67,343.1,196.91,340.78,197.35Zm-12.47,2.25c-.78,1.74-2.62,1.9-4.09,2.29-8.39,2.21-15.88,3.41-25.32,5.37-6,1.24-11.16,2.87-16.69,1.62,4.39-6.52,25.48-7.39,33.13-8.67C320,200.12,323.39,199.9,328.31,199.6Zm-44.38,1.23a9.76,9.76,0,0,1-1.07-5c5.11-1.88,8.17-5.64,13.49-7.33C294.72,193.31,286.89,195.92,283.93,200.83Zm48.7,1.51c1.61.48,0,2.89,1.84,3.69,4.81.64,10.26-.35,15.14,1-.66,1.78-4.74,3.4-6.19,2-13.57,6.86-36.36,6-55.48,5.94-3.13,0-6.88,1.28-9.29-1.25C298,210.26,317.32,207.45,332.63,202.34ZM289,219c7.77-2.88,16.74-1.52,24.82-1.39a67.89,67.89,0,0,0,12.82-.75c4.56-.79,8.89-2.48,13.48-3.21a49.76,49.76,0,0,0-1.66,5.59,27.11,27.11,0,0,1-1.38,4.95,18.8,18.8,0,0,1-2.73,4.18c-.29.37-3,3.86-3.24,3.76C317.58,227.2,304.79,221.46,289,219Zm54.24-5.46c3.85-1,7.18-1.54,10.26-4.67-1.83,10.22-9.71,18.39-18.17,23.91C338.27,226.71,342.93,222.14,343.21,213.58Zm18.73-57a28.42,28.42,0,0,1-5.62,14.51c-11.76,1.65-21.49,2.16-33.32,4.48a130.41,130.41,0,0,0-40.4,14.88c9.79-11.07,25.56-16.17,41.34-21.62C336.19,164.55,348.28,159.6,361.94,156.54ZM328.74,164c-3.32,1.91-7.67,2.89-11.53,4.31,1.14-3.1,4.47-4.2,6-7A18.94,18.94,0,0,0,328.74,164Zm10.63-32.78c.85,4.21,1.32,10.92.27,14.66-9.71,8.52-22.1,14.59-29.43,25.27a138.12,138.12,0,0,0-16.84,7.49C306.39,162.28,319.24,142.34,339.37,131.17ZM301.12,138c4.09,2.4,6.7,6.42,10.09,9.59-3,3-6.24,5.8-7.92,10-1,.17-.71,1.49-2,1.35-4.54,7.46-10.5,14.55-15.74,22.12-1.46,2.11-3.27,5.81-6.46,5.33-.95-4.23,2.1-8.23,4.06-11.93,4.09-7.73,7.49-15.77,11.89-23.61C297.38,146.64,299.82,142.52,301.12,138ZM223.4,154.16A16.09,16.09,0,0,1,227,151.6a86.89,86.89,0,0,0,8.93-4.27,48.89,48.89,0,0,0,9.88-6.21c1.36-1.21,2.91-2.2,4.32-3.37s3-2.63,4.54-3.91c.72-.6,1.45-1.19,2.21-1.76,3.14-2.33,8.58-8.71,11.74-8.93,2.46-.17,10,5.7,12.09,7.41,6.17,5,8.35,10,15.26,12.7-1.89,6.42-5.71,11.09-8,17.14L282.86,169c-1.82,5.42-5.36,9.27-7.28,14.59-2.67.56-9.53-1.54-11.69,1-3.11-.52-4.54-2.65-7.67-2.58-1.29,0-2.72,1.24-4.14,1-1.76-.26-9.06-6.06-10.83-7.46-7.18-5.67-15.08-13.63-21.43-19.12A15.14,15.14,0,0,0,223.4,154.16ZM227.85,167c4.2,3.76,7.46,7.74,10.11,10-8.76-4.75-20.62-6.09-25.44-15.17C215.65,155.07,223.43,163,227.85,167Zm-18.62-3.74c1.5.54,1.92,2.29,3.09,3.21-1.06,1.19-3-1.18-5.1-1.44C207.45,163.17,209.51,165.51,209.23,163.23Zm-13.9-1.45c15.88,10.41,30.68,22,46.78,32.19C223,187.83,206,175.62,188,166.73,189,163.74,193.83,164.29,195.33,161.78Zm-53.75,25.14c12.83-11,24.23-25.42,45.25-27.68-8.44,8.58-22.13,21.19-30.87,30.36-1.38,1.45-2.94,5.65-5.16,6.11-3.84.79-7.22-4.06-10.69-4.53C140.08,189.29,141.72,188.91,141.58,186.92Zm-2.46,10.17a2,2,0,0,1-.47-1.23l1.25-.06c7,2.58,13.54,5.6,20.11,8.71,8.11,3.84,16.77,5.92,25.15,8.89,19.81,2.72,42.84,5.12,63.89,3.73-3.6,4-9.41,4.27-14.42,5.28-14.34,2.88-32.43.63-46.67-2.86C169.4,215,149.73,210.37,139.12,197.09Zm33.48,25.7c-1.34,3-1.81,6.89-2,11-3.45-4.05-4.58-10.72-4.55-16.56a21.05,21.05,0,0,1,6.81,2.2C171.4,220.55,172.14,222,172.6,222.79Zm-9.32-2.09c-3-1.39-3.62-5.4-6.61-6.81,1.64-.77,4,1.44,6,1.81C162.44,217.81,163.17,218.92,163.28,220.7Zm-12.62,26.17c-2-2.62-3.7-8.8-4.37-12.8-1.49-9-.25-19.64-3.41-28.35,8.88,5.06,14.37,13.84,21.51,20.8,2.58,5.56,3.89,14.61,8.78,17.62,6.62,4.06,17.09-2,21.65,5.7,1,10.13,1.86,21.84,3.59,32.11-3.36-.72-7.2-4.7-10.79-6.63-4.8-7.31-.91-19-4.19-27-2.53,2.53-1.46,8-1.11,12.21.33,3.84,1.28,8,1.4,12.09l-15.18-11c-2.73-1.4-4.82-3.51-7.37-5.11ZM163.57,263c2.59,1.11,4,3.52,6.51,4.73.18,1.09-1.6.4-1.17,1.73,1.69,8,2.08,14.78,3.58,22.89C164.27,287.59,165.28,271.79,163.57,263Zm10.49,27.18c.17-6.28-1.41-12-1.71-18.79a1.93,1.93,0,0,1-.48-1.23l1.26-.06c3.17,7.65,3.63,18.29,5.87,27C175.33,297,176.33,291.82,174.06,290.21Zm8.28,6.74c-3.48-6.84-2.87-14.9-4.4-22.43,1.35.28,2.08,1.24,3,2C181.65,284,183.92,291.39,182.34,297Zm7.08,9.39a8.24,8.24,0,0,1-3-3.78,8.92,8.92,0,0,1-.33-2.19,49.14,49.14,0,0,0-.37-5.31c-.32-1.75-.57-3.5-.74-5.27s-.26-3.37-.33-5.05c0-.48,0-5-.22-5.07,7.35,1.89,5.07,14.37,7.31,21.87,4.43-2.42-.14-11,.93-16,3.18,1.49,5.34,4.1,8.24,5.9,1.12,8,1.86,16.43,3.22,24.17,0-.31-1.68-1-2-1.22-3-1.83-6.07-3.58-9-5.52C192.05,308.14,190.66,307.32,189.42,306.34Zm15.49-10.86c1.59.32,2.28,1.61,3.86,1.92C210.4,305,210.85,313.88,212,322,204.39,317.66,206.87,305.93,204.91,295.48Zm11,29.67c-1.05-8.69-2.6-15.27-3.22-24.16,10,2.39,7.46,18.14,9.69,28.05C220.28,329.37,217.86,326.48,215.93,325.15Zm7.81,5.51c0-1.09,1.77-.53,1.15-2.15a192.06,192.06,0,0,1-1.81-20.88c5.59,5,4,17.89,6.67,26.1,2.34-3.06,1.11-9.3.59-14.28-.29-2.82-1.56-5.81-1.66-8.72,6.51,4,3.48,18.45,6.66,26.09,3.48-1.24,1.21-6.47.79-10.09-.49-4.25-.09-8.2-1-12.53,2.7,5.37,3.14,17.8,3.74,26.23C234,337,228.16,334.6,223.74,330.66Zm17.81-4.61c-1.53-1.9-1.73-7.4-1.7-9.56a1.9,1.9,0,0,0,1.27.36C240.72,320.31,242.45,323.48,241.55,326.05Zm.52,11.3c1.86.45.57,4.36,1.13,6.23C241.5,343,242.53,339.34,242.07,337.35Zm2.49-18.57c1.13.11,2.07,2.14.1,2.1C244.63,320.19,244.6,319.49,244.56,318.78Zm.56,2.92c1,.26.27,2.33.57,3.32C245,324.45,244.35,322.59,245.12,321.7Zm1.33,19.64c-.68-.84-1.42-3-.61-4.16C247.38,337.41,246.7,340.33,246.45,341.34Zm3.28-10.64c.52-.67.17,1.15.53,2.49C248.74,333.65,249.4,331,249.73,330.7Zm.14,2.93c1.13,4.37.87,10.94.72,15.48C247.75,345.6,250.22,338.64,249.87,333.63Zm4.32-15.29c.07-.31-3.59-2.43-4-2.7-1.34-.88-2.68-1.76-4-2.69-2.34-1.65-5-3.57-6.59-6-1.34-2.09-1.6-4.63-2.22-7a27.39,27.39,0,0,1-.94-6.37c-.13-3.76.33-8.6-2.4-11.61-2.16,2.72-.94,7.21-.41,10.28a113.72,113.72,0,0,1,1.5,12.87,2.33,2.33,0,0,1-2.17-.65c-.5-.52-1.28-.85-1.7-1.42s-.31-2-.39-2.68c-.11-.93-.19-1.87-.26-2.81-.13-1.78-.19-3.57-.25-5.36s-.14-3.64-.28-5.45c-.05-.66-1-5.62-.7-5.82,4.43-3.25,8.47,1.51,13.2,4.41,5.15,3.17,8,5.68,13.75,7.33C255.37,301,255.9,310.69,254.19,318.34Zm1.17,34.32a1.34,1.34,0,0,1-.51-2.07C256.34,350.12,255.67,352.36,255.36,352.66Zm3-34.1c.23-.16.05-2.1.05-2.43,0-.89,0-1.79,0-2.68,0-1.89-.05-3.78-.05-5.67a52.43,52.43,0,0,1,.85-11c.64-3,1.82-6.07,4.3-8,.7-.55,1.5-.79,2.23-1.27,1-.64,1.94-1.23,2.95-1.79,2-1.13,4.09-2.13,6.15-3.18a54.51,54.51,0,0,0,5.71-3.25l.8-.56a9.73,9.73,0,0,1,1.66-1c1-.46,2-1,3-1.53a107,107,0,0,1,12.06-5.94c1.44,5.57.89,15.59.17,21.79.19,1.7,2.35,1.24,3,2.38C286.11,301.62,271.4,309.32,258.39,318.56Zm.34,34.36c2.41-9.55,1.64-22,4-31.62,1.67,8.73.74,21,.85,27.21C263.09,351,260.7,351.78,258.73,352.92Zm7.71-5.39c.86-10.82-1.48-20,.73-29.38,1.46,5.19,1,12.85,1.36,20.06C268.73,342.07,270.37,347.34,266.44,347.53Zm6.14-3.22c-2.53-6.85-.76-20.49-1.74-28.42l2.93-.14c-.24,0,1.09,8.79,1.15,9.62a53.39,53.39,0,0,1-.28,6.31c-.11,2.29-.32,4.59-.46,6.87S274.3,342.63,272.58,344.31Zm6.52-3.65c-.17.1-.71.21-1,.32a1.4,1.4,0,0,1-1.1.19c-.44-.1-.47-2.39-.46-2.75,0-.92.07-1.79,0-2.7-.13-2.27,0-4.58,0-6.86l-.08-13.73a4,4,0,0,1,.13-1.24,2.94,2.94,0,0,1,.74-1.08,6.27,6.27,0,0,1,1.54-1.17,2.4,2.4,0,0,1,.5,1.61l.42,7.6.22,3.86c.06,1.15.12,2.29.16,3.44a71.34,71.34,0,0,1-.3,9C279.82,338,280,340.09,279.1,340.66Zm3.67-2.69c.23-.12.06-2.48,0-2.86-.13-1.08-.36-2.15-.48-3.24a26.53,26.53,0,0,1-.13-6c0-.22.05-.45.09-.68.49-3.26-.19-6.61.71-9.83l.84,0c1.72,1.4,1.27,4.79,1.18,7.5C284.82,327.94,286.61,336,282.77,338Zm6.19-2c-1-.6-1.59-4.28-1.58-7.05A183.76,183.76,0,0,1,289,309.17c3.67,6.58.31,16.62,1.19,25.52C288.64,334.11,290,336.12,289,336Zm5-1.9c-2.47-8.87.74-19.78-.47-28.07l.83,0c1.5,4.64,1.32,11.72,1.26,18C295.5,327.58,295.55,331.78,293.91,334.1Zm4.9-2.75c-2.09-8.87-.08-18.48.35-28.52,1.77,6.28,1.12,13.3.89,19.24C299.94,325.05,301,329.08,298.81,331.35Zm6.7-39a1.58,1.58,0,0,1-.76.39,1.52,1.52,0,0,1-.76-.12,3.06,3.06,0,0,1-1.31-.86c-.81-.94-.77-2.32-.69-3.56a85.39,85.39,0,0,0,.06-9.6c0-.9-1.06-9.83-1.12-9.81,2.42-.78,4.28-3.58,6.55-3.24.21,0,.11,13.21.11,14.5,0,2.24-.06,4.48-.27,6.71C307.14,288.76,307.18,291,305.51,292.35Zm1,34c.27-.15-.08-2.82-.11-3.2-.08-1-.2-2.08-.33-3.12a55.56,55.56,0,0,0-1.19-6.12,114.42,114.42,0,0,1-2.21-13.79,2.34,2.34,0,0,1,.13-1.39,2.22,2.22,0,0,1,.76-.7,16.66,16.66,0,0,1,3.53-1.77c.34-.12.77-.21,1,.07a.92.92,0,0,1,.16.49,58,58,0,0,1,.21,11,29.53,29.53,0,0,0-.13,6.9,4.64,4.64,0,0,1,.06,1.89,4.66,4.66,0,0,0-.3,1.21c-.05,1.21,0,2.42,0,3.63C308,323,308.06,325.54,306.54,326.38Zm4.63-62.68c.65-1.95,3.49-1.89,4.44-3.56.39.17.77.34.88.8-.73,4.8-1.5,9.92-1.81,15.17-.26,4.48.56,10.21-2.74,13.13C308.81,283.65,311.56,271.17,311.17,263.7Zm.29,60.36c.41-10.39,1.44-17.85,2.46-28.21a50,50,0,0,1-.71,20.58C314.06,318.61,314.85,323.54,311.46,324.06Zm-4.53-79.44c-1.76-1.51-3.46-4-4.86-5.23-6.68-5.9-14.33-9.14-20-15,8.81,2.05,18.89,6.53,29.71,7.84l12.73,3.19a17.46,17.46,0,0,1,9.31,2.07c12.71-6.82,19.22-17.62,24.58-30.48.19-1.68-1.19-1.64-1-3.31a14,14,0,0,0,3.5-6c7.13,4.47,12.56,10.83,17.19,18.06-17.56,10.21-34.84,21.93-52.09,33.87-2.32,1.61-5.87,4.94-7.31,5C316.82,254.55,308.82,246.24,306.93,244.62Zm10.25,76.24c-1.37-9.41,1.18-19.31,1.13-29.82.32-.38,1.14-.3,1.22-.9.48-.08.75.06.85.38a179.07,179.07,0,0,1-.76,19.74C319.28,314,320.71,319.34,317.18,320.86Zm5.31-3.19c-1.35-7.71.58-17.32,1.34-25.21A107.86,107.86,0,0,1,322.49,317.67Zm4.08-2.28c-2-10.55,1.41-20.28,1.51-30.67.59,0,1.19,0,1.23-.48.93,7.11.3,18.33-1.76,25.23C327.92,312.26,328.56,314.14,326.57,315.39Zm6.68-9.54-2.09.1c-.21-6.2,1.5-10.65,1.75-16.43.75-.09.91.47,1.7.34C335.62,295,334.08,301.11,333.25,305.85Zm3.07,2.8c-1-6.21.85-12.37,2.51-18.15a1.16,1.16,0,0,1,.89,1.22C337.45,297.2,340.06,304.93,336.32,308.65Zm4.06-2.71a7.75,7.75,0,0,0,.27-3.36C341,301.23,342,306.5,340.38,305.94Zm2.27-14.36a116.61,116.61,0,0,1,1.35-16l1.26-.06C344.18,280.69,343.52,286.23,342.65,291.58Zm1.4,12.09c-1-8.68,2.05-13.62,2.81-20.67C346.06,288.42,347.35,299.2,344.05,303.67Zm.12-33.54c-9.19,6.31-17.69,12.71-26.93,15.92.8-9.94.51-19.54,3.3-28.23,1.27-2.18,3.86-3.16,6.08-4.48,1,7.88-.52,18.25-.07,25.58,1.49.16,1-1.53,2.45-1.37-.27-4.76.53-9.56.79-14.31.21-3.94.33-8.09-1.57-11.65a7.83,7.83,0,0,1,2.31-1.44l2.76-1.56a46,46,0,0,1-.52,7.78,23,23,0,0,0,0,3.89c0,1.45,0,2.9,0,4.35,0,2.85,0,5.71.16,8.56,4.2-.23,2.63-4.52,2.6-7.25,0-1.35-.15-2.69-.23-4s.07-2.55,0-3.82c-.09-2.79-.16-5.6-.49-8.39-.06-.52-.08-1.17.38-1.44a.89.89,0,0,1,1,.17,2,2,0,0,1,.52,1,20.31,20.31,0,0,1,.4,2.92,17.39,17.39,0,0,0,.41,2.13,10.54,10.54,0,0,1,.12,1.59c.09,1.3.07,2.6.05,3.9a23.48,23.48,0,0,0,.81,8,6,6,0,0,0,2.87-1.4c-2.78-8.81,3-17.59-4.32-20.76,6.73-5.89,15.37-10,22.76-15.31,0,2.67-.06,5.35-.24,8a63.05,63.05,0,0,1-1.23,9.28c-.72,3.23-1.12,6.52-2,9.75-.1.38-.33.86-.73.81a.15.15,0,0,1-.12,0,.22.22,0,0,1,0-.14,56.28,56.28,0,0,1,.55-6.08l.16-1.29.33-2.68c.08-.63-.06-1.2,0-1.82a33.56,33.56,0,0,1,.78-4.19c.49-2.42,1.17-5.46-.24-7.71-3,.91-2.66,5-3,8.1-.34,3.28-.42,7.17-1.23,9.71-.57,1.77-5.05,9.78,2.06,8.28,3.6-.75,5-5.16,5.83-8.25a71.3,71.3,0,0,0,1.69-13.35,36.6,36.6,0,0,0,.13-5l-.27-3.65a1.12,1.12,0,0,1,.86-1.32c1.47-.8,2.74-1.86,4.16-2.71.51-.3,1.09-.47,1.61-.79s1.17-.76,1.74-1.17a38.79,38.79,0,0,1,7.1-4.52,16.09,16.09,0,0,1,1.64-.6c-3.18,8.92-4.68,18.78-7.12,27.16C369.22,257.09,353.42,263.78,344.17,270.13Z"/><polyline class="cls-4" points="175.5 324.6 223.34 326.78 326.5 325.22 358.7 322.09 356.2 352.73 303.68 368.99 231.46 377.12 175.82 365.55"/><path class="cls-5" d="M333,361.22c2.37-.33,4.73-.78,7.13-.9a28.55,28.55,0,0,0,3.65-.67l1.83-.37a10.48,10.48,0,0,0,1.75-.37c-.15,1.3.55,2.68,3.55,3.91,3.74,1.54,7.82,1.29,8.42-.25a.88.88,0,0,0,.06-.27c3,.58,5.67.08,6.11-1.16a1.2,1.2,0,0,0,0-.75c3,.42,5.67-.21,6-1.48a1.52,1.52,0,0,0-.34-1.29c3.37.46,6.5-.41,6.78-1.81a1,1,0,0,0,0-.5c3.26.28,6.16-.66,6.4-2a.92.92,0,0,0,0-.37c2.92.08,5.39-.81,5.61-2.06a1.12,1.12,0,0,0-.2-.82c2.56,0,4.68-.76,4.87-1.85a1,1,0,0,0-.18-.76c2.8,0,5.19-1,5.33-2.15a1.1,1.1,0,0,0-.2-.69c2.49-.06,4.55-.94,4.68-2a1,1,0,0,0-.2-.66c2.75,0,5.09-1,5.19-2.19a.83.83,0,0,0-.05-.35A138.87,138.87,0,0,0,425.72,330c-3.37,1.66-11.76,6.45-17.29,8.58a7,7,0,0,0-1.29-.71,152.4,152.4,0,0,0,18.75-10.5c-3,1.49-10.83,5.88-16.62,8.42a4.87,4.87,0,0,0,2-2.83c6.29-3.41,15-8.8,17.17-10.36-2.84,1.39-11.15,6.32-17.57,9.5-.68-.47-2.2-.43-3.8-.08a158.67,158.67,0,0,0,17.1-9.66c-3.73,1.82-14.67,8-20.22,9.73a7.31,7.31,0,0,0,.12-1.26c4.68-1.81,15.28-8,18.07-10-3.58,1.74-12.79,7-18.26,8.86a1,1,0,0,0-.38-.43c-1-.53-2.94.71-4.45,2.79a.7.7,0,0,0-.17-.13c-.92-.55-2.87.55-4.44,2.49a1,1,0,0,0-.41-.53c-1-.58-3,.53-4.62,2.5-1-.44-2.93.53-4.6,2.31a1.24,1.24,0,0,0-.48-.84c-1-.71-3.42.45-5.4,2.62a1.19,1.19,0,0,0-.2-.19c-1.1-.75-3.64.55-5.67,2.91a1.12,1.12,0,0,0-.37-.54c-1-.7-3.24.28-5.21,2.23a.92.92,0,0,0-.24-.31c-1-.83-3.38,0-5.63,1.79-1.09-.48-3.22.19-5.27,1.66l-.09-.1c-1.16-1.19-5,.17-7.86,3.05-2.54,2.58-2.37,4.21-1.48,5.37a158.22,158.22,0,0,1-17.93,2.48,41.84,41.84,0,0,0-11.36.45q-3.37,0-6.78-.15c-.8,1.19-.34,2.71,1,3.89l3.75-.12a7.8,7.8,0,0,0,1.37-.2,10.09,10.09,0,0,1,1.82-.08C321.26,362.49,332,361.36,333,361.22Zm23.49-11.88c1.88-1.55,4-2.68,4.72-2,.85.81-1,4.1-3,6.2a6.93,6.93,0,0,1-2.15,1.64,3.89,3.89,0,0,0-.74.14.23.23,0,0,1-.1-.12.27.27,0,0,1,.1-.33c2-1.3,4.34-4,4.92-5.85a18.29,18.29,0,0,1-6.11,5.47.42.42,0,0,1-.38,0,16.54,16.54,0,0,0,2.44-4A21,21,0,0,1,360,347.5a10.43,10.43,0,0,0-3.58,2.14,2,2,0,0,0,.06-.3Zm-4.11,6.5.82-.2a4,4,0,0,0,.48.38l-1.85.46-.18,0c.23-.18.48-.38.73-.6Zm-2.31.44a3.29,3.29,0,0,0-.74.11.23.23,0,0,1-.1-.12.27.27,0,0,1,.11-.33c2-1.23,4.47-3.85,5.11-5.7a18.41,18.41,0,0,1-6.28,5.29.42.42,0,0,1-.38,0,.45.45,0,0,1-.25-.29c-.22-.84.22-2,1.78-3.55,2.07-2,5.34-3.92,6.16-3.09s-1.13,4.07-3.21,6.1a6.94,6.94,0,0,1-2.2,1.58Zm-2.07,1-.1.15a186.78,186.78,0,0,1-35,4.16c-.84,0-1.56-1.47-.63-1.44a151.23,151.23,0,0,0,35.2-3.21,2.45,2.45,0,0,0,.52.34Zm1.65.17a3.13,3.13,0,0,0,.62-.19,6.85,6.85,0,0,1,2.76.58c2.7,1.07,5.76,3.28,5.34,4.37s-4.18.63-6.88-.43c-2-.8-2.9-1.71-3-2.58a.46.46,0,0,1,.11-.37.42.42,0,0,1,.35-.14,18.38,18.38,0,0,1,7.85,2.41c-1.31-1.45-4.57-2.91-6.93-3.25a.26.26,0,0,1-.23-.25.33.33,0,0,1,0-.15Zm-1.87-2c-.67-2.34,4.1-6.14,6.49-6.68-2.36,1.27-6.37,4.39-6.49,6.68Zm6.94,2.21a.42.42,0,0,1,.26-.08,18.49,18.49,0,0,1,7.92,2.16c-1.35-1.41-4.66-2.76-7-3a.25.25,0,0,1-.23-.24.19.19,0,0,1,0-.15,4.43,4.43,0,0,0,.61-.21,6.81,6.81,0,0,1,2.78.5c2.73,1,5.86,3.09,5.46,4.19-.33.93-3.1.83-5.61.18a2.27,2.27,0,0,0-.18-.25,10.91,10.91,0,0,0,4.63.43,21.41,21.41,0,0,1-5.19-1,15,15,0,0,0-3.45-2.45Zm-6.12,1.25c1,2.07,5.93,3.36,8.59,3.61-2.41.44-8.28-1.2-8.59-3.61Zm13.67-11.61c1.7-1.49,3.6-2.54,4.26-2,.89.76-.79,4.14-2.68,6.34a7.16,7.16,0,0,1-2.06,1.76,3.34,3.34,0,0,0-.74.17.29.29,0,0,1-.11-.11.28.28,0,0,1,.09-.34c1.93-1.4,4.13-4.21,4.61-6.1a18.42,18.42,0,0,1-5.68,5.71,12,12,0,0,0,2.27-4.63,20.76,20.76,0,0,1,3.12-2.54,9.49,9.49,0,0,0-3.07,1.95c0-.08,0-.16,0-.24Zm-3.51,6.91.28-.08a2.63,2.63,0,0,0,.4.28l-.27.08-1,.29c.16-.15.31-.3.47-.47l.1-.1Zm1.68,2a.51.51,0,0,1,.07-.15.46.46,0,0,1,.34-.18,18.43,18.43,0,0,1,8,1.75c-1.43-1.34-4.79-2.52-7.18-2.66a.26.26,0,0,1-.25-.23.4.4,0,0,1,0-.15,4.68,4.68,0,0,0,.6-.24,6.63,6.63,0,0,1,2.79.35c2.79.83,6,2.78,5.69,3.9s-3.36,1-6,.38l-.27-.27a11.33,11.33,0,0,0,5.13.31,20.58,20.58,0,0,1-6-1,17,17,0,0,0-2.79-1.71l-.12-.17a.74.74,0,0,0,0,.14l-.14-.07Zm7.1-9.81c1.61-1.91,3.77-3.55,4.55-3s-.39,4-2,6.22a6.68,6.68,0,0,1-1.8,1.84,2.64,2.64,0,0,0-.67.23.32.32,0,0,1-.12-.11.25.25,0,0,1,.06-.32,12.87,12.87,0,0,0,3.82-6.15,17.34,17.34,0,0,1-5,6,.42.42,0,0,1-.36.07.45.45,0,0,1-.28-.24,1,1,0,0,1-.09-.26l.18-.29a1.76,1.76,0,0,0,.16.7,3.12,3.12,0,0,1,.16-1.24,14.84,14.84,0,0,0,.84-1.7,19.49,19.49,0,0,1,4-4.36,10.54,10.54,0,0,0-3.53,3c0-.13.06-.26.08-.39ZM365,351.65l.06.07-.15,0,.09-.11Zm-.78,1,1.33-.41a1.09,1.09,0,0,0,.17.13c-.59.25-1.23.47-1.87.68l.37-.4Zm1.08,1.32,1-.34a5.16,5.16,0,0,0-.05.67c-.3-.12-.61-.23-.91-.33Zm2.18.9a1.5,1.5,0,0,1-.19-.38.42.42,0,0,1,.05-.36.42.42,0,0,1,.3-.2,17.43,17.43,0,0,1,7.72,1c-1.46-1.15-4.74-2-7-1.9a.26.26,0,0,1-.26-.2.32.32,0,0,1,0-.14,3.18,3.18,0,0,0,.55-.28,6.49,6.49,0,0,1,2.67.09c2.7.55,5.91,2.11,5.7,3.2s-3.8,1.27-6.5.72a8.78,8.78,0,0,1-.88-.21c-.28-.2-.57-.4-.88-.6a11.31,11.31,0,0,0,7.22.58c-2.54.21-7.33-.19-8.62-2a2.1,2.1,0,0,0,.88,1.08l-.77-.41ZM373,345c1.55-2.26,4.2-4.57,5.1-4s-.28,4-1.83,6.27a6.61,6.61,0,0,1-1.75,1.88,3.31,3.31,0,0,0-.67.24.26.26,0,0,1-.11-.1.25.25,0,0,1,0-.32,12.87,12.87,0,0,0,3.67-6.25,17.37,17.37,0,0,1-4.83,6.09.46.46,0,0,1-.36.07.42.42,0,0,1-.28-.22,1.39,1.39,0,0,1-.14-.45c.07-.16.15-.32.22-.47a2,2,0,0,0,.18,1.06c-.32-2.15,2.82-5.8,4.78-7.42a11.35,11.35,0,0,0-4.16,4.18c.06-.2.1-.4.14-.6Zm-1.81,4.42a2.09,2.09,0,0,0,.2.22l-.43.14c.08-.12.16-.24.23-.36Zm-.76,1.12,1.44-.5c-.49.23-1,.43-1.53.62l.09-.12Zm1.13,1.07,1-.38a3.36,3.36,0,0,0-.06.63l-.93-.25Zm2,.63a.44.44,0,0,1,0-.42.42.42,0,0,1,.3-.2,17.31,17.31,0,0,1,7.74.77,12.87,12.87,0,0,0-7-1.72.24.24,0,0,1-.26-.19.26.26,0,0,1,0-.15,2.85,2.85,0,0,0,.54-.29,6.28,6.28,0,0,1,2.67,0c2.71.47,6,2,5.77,3.05s-3.75,1.36-6.46.89l-.38-.29a11.5,11.5,0,0,0,5.82-.08,17,17,0,0,1-7.3-.79l-.38-.18a3,3,0,0,1-1-.77,1.88,1.88,0,0,0,.25.46l-.3-.12Zm5.58-10.44c1.57-2,3.73-3.73,4.53-3.18s-.29,4-1.83,6.26a6.61,6.61,0,0,1-1.75,1.88,3.74,3.74,0,0,0-.67.25.35.35,0,0,1-.11-.1.26.26,0,0,1,0-.33,12.8,12.8,0,0,0,3.67-6.24,17.42,17.42,0,0,1-4.83,6.08.43.43,0,0,1-.36.08.31.31,0,0,1-.13-.06l.06-.11a.36.36,0,0,1,0,.09c0-.05,0-.1,0-.15a14.39,14.39,0,0,0,1.18-3.22,20.06,20.06,0,0,1,3.61-4.06,10.55,10.55,0,0,0-3.46,3.14c0-.11,0-.22,0-.33Zm-2,5.61.12.1-.23.08.11-.18Zm.31,1.79.63-.27c0,.13,0,.26,0,.39l-.59-.12Zm1.65.4a.36.36,0,0,1,.06-.2.39.39,0,0,1,.3-.2,17.46,17.46,0,0,1,7.74.76,12.87,12.87,0,0,0-7-1.71.27.27,0,0,1-.27-.2.32.32,0,0,1,0-.14,3.56,3.56,0,0,0,.54-.29,6.42,6.42,0,0,1,2.67,0c2.71.48,6,2,5.77,3.05s-3,1.3-5.5,1l-.28-.22a10.65,10.65,0,0,0,4.76-.29,19.63,19.63,0,0,1-5.58-.26,15.53,15.53,0,0,0-2.88-1.26,2.09,2.09,0,0,1-.2-.22,1,1,0,0,0,.08.18l-.18-.05Zm5.53-9.29c1.41-1.9,3.54-3.68,4.3-3.17s-.26,3.6-1.65,5.66a6.08,6.08,0,0,1-1.57,1.69,2.57,2.57,0,0,0-.61.22.23.23,0,0,1-.06-.38,11.65,11.65,0,0,0,3.31-5.64,15.69,15.69,0,0,1-4.36,5.49.38.38,0,0,1-.32.07.38.38,0,0,1-.26-.2l-.06-.15.14-.28a1.72,1.72,0,0,0,.15.56,2.68,2.68,0,0,1,.14-1.19c.11-.26.21-.53.31-.79a16.58,16.58,0,0,1,3.86-4.72,10,10,0,0,0-3.41,3.25l.09-.42Zm-1.8,4.54a4.17,4.17,0,0,0,.38.34l-.79.31c.14-.21.28-.43.41-.65Zm.12,1.91,1-.46a3.74,3.74,0,0,0-.06.65l-.85-.18Zm1.92.47a.4.4,0,0,1,0-.37.41.41,0,0,1,.28-.18,15.73,15.73,0,0,1,7,.69,11.65,11.65,0,0,0-6.35-1.54.23.23,0,0,1-.23-.18.19.19,0,0,1,0-.13,3.35,3.35,0,0,0,.49-.26,5.87,5.87,0,0,1,2.41,0c2.44.43,5.37,1.77,5.2,2.75s-2.81,1.18-5.12.91l-.32-.22a9.77,9.77,0,0,0,4.52-.22,17.15,17.15,0,0,1-5.57-.36,13.93,13.93,0,0,0-1.71-.72,2.51,2.51,0,0,1-.53-.49,1.3,1.3,0,0,0,.19.37l-.24-.07Zm5-10c1.27-1.67,2.89-3.05,3.57-2.64.86.51,0,3.6-1.32,5.73a5.88,5.88,0,0,1-1.47,1.78,3.6,3.6,0,0,0-.59.26.28.28,0,0,1-.11-.08.23.23,0,0,1,0-.3,11.6,11.6,0,0,0,3-5.81,15.71,15.71,0,0,1-4,5.73.38.38,0,0,1-.29.09,11.63,11.63,0,0,0,1.27-3.9,18.6,18.6,0,0,1,2.59-3.11,8.79,8.79,0,0,0-2.58,2.48,1.6,1.6,0,0,0,0-.23Zm-1.75,5.66.22.15-.43.18.21-.33Zm-.28,1.53,1.17-.58,0,.19a3.88,3.88,0,0,0,0,.59l-.6-.12a5.06,5.06,0,0,0-.52-.08Zm2.13.47a.4.4,0,0,1,0-.37.35.35,0,0,1,.26-.19,15.51,15.51,0,0,1,7,.28,11.65,11.65,0,0,0-6.43-1.17.23.23,0,0,1-.24-.16.2.2,0,0,1,0-.13,3.31,3.31,0,0,0,.47-.29,5.59,5.59,0,0,1,2.41-.12c2.46.28,5.47,1.45,5.36,2.44s-3.18,1.41-5.62,1.16c-.12-.08-.24-.16-.37-.23a10.23,10.23,0,0,0,5.09-.41,15.94,15.94,0,0,1-6.35-.23l-.78-.32a2.45,2.45,0,0,1-.75-.56,1.25,1.25,0,0,0,.23.38l-.27-.08Zm4.46-9.06c1.22-1.87,3.15-3.7,3.89-3.25s0,3.37-1.23,5.37a5.73,5.73,0,0,1-1.38,1.66,3.13,3.13,0,0,0-.55.24.21.21,0,0,1-.11-.08.2.2,0,0,1,0-.27,10.88,10.88,0,0,0,2.78-5.44,14.7,14.7,0,0,1-3.77,5.36.37.37,0,0,1-.3.08.35.35,0,0,1-.25-.18l0-.08.1-.25a1.3,1.3,0,0,0,.17.44,2.28,2.28,0,0,1,0-.9,11.21,11.21,0,0,0,.34-1.08,15.42,15.42,0,0,1,3.31-4.5,9.31,9.31,0,0,0-3,3.26c0-.13,0-.26,0-.38Zm-1.35,4.31a3.68,3.68,0,0,0,.51.37l.2.11-1.32.6.19-.32c.15-.24.29-.5.42-.76Zm-.3,1.77,1.41-.75a2.34,2.34,0,0,0,0,.26,2.92,2.92,0,0,0,0,.66l-.84-.12-.52-.05Zm2.34.39-.06-.12a.37.37,0,0,1,0-.31.36.36,0,0,1,.25-.18A14.68,14.68,0,0,1,402,342a10.88,10.88,0,0,0-6-1.1.22.22,0,0,1-.23-.15.24.24,0,0,1,0-.12c.15-.08.29-.17.44-.27a5.33,5.33,0,0,1,2.25-.12c2.31.27,5.12,1.36,5,2.29s-2.75,1.29-5,1.11a3.79,3.79,0,0,0-.34-.2,9.46,9.46,0,0,0,4.49-.42,15.29,15.29,0,0,1-5.81-.18c-.21-.08-.41-.16-.63-.23a2.62,2.62,0,0,1-.93-.63,1.25,1.25,0,0,0,.29.44l-.28-.08Zm4.15-9.1c1.16-1.87,2.95-3.67,3.7-3.26s.07,3.37-1.05,5.41a5.43,5.43,0,0,1-1.32,1.71,2.7,2.7,0,0,0-.54.26.21.21,0,0,1-.11-.08.21.21,0,0,1,0-.27,10.86,10.86,0,0,0,2.59-5.54,14.59,14.59,0,0,1-3.58,5.49.38.38,0,0,1-.3.1.37.37,0,0,1-.25-.17,1.23,1.23,0,0,1,.08-.23,1.22,1.22,0,0,0,.14.33,2.25,2.25,0,0,1,0-.59,13.16,13.16,0,0,0,.53-1.86,15.8,15.8,0,0,1,2.95-4.16,9.06,9.06,0,0,0-2.82,3.18v-.32Zm-1.25,4.5a3.39,3.39,0,0,0,.5.34,3,3,0,0,0,.41.18l-1.67.79c.11-.16.22-.34.33-.52s.3-.52.43-.79Zm-.6,1.72,1.78-1a2,2,0,0,0-.09.49,3.28,3.28,0,0,0,0,.7q-.46-.09-.93-.15a7.09,7.09,0,0,0-.77-.05Zm2.76.45a1,1,0,0,1-.14-.22.37.37,0,0,1,0-.31.34.34,0,0,1,.23-.19,14.68,14.68,0,0,1,6.56,0,10.87,10.87,0,0,0-6.05-.89.2.2,0,0,1-.23-.14.17.17,0,0,1,0-.12,3.25,3.25,0,0,0,.43-.29,4.6,4.6,0,0,1,1.59-.22,2.68,2.68,0,0,0,2.59.34c1.71.41,3.21,1.12,3.15,1.8-.07.93-3.05,1.44-5.36,1.26l-.22,0-.47-.24a9.71,9.71,0,0,0,5.23-.47c-2.1.42-6.16.56-7.41-.78a1.64,1.64,0,0,0,.48.58l-.38-.12ZM402,336.7c0,.05-.08.1-.08.1l.08-.1Zm.83-1.48c.11-.22.21-.45.3-.68a6,6,0,0,1,1.75-1.14c2.11-1,5.08-1.49,5.47-.64s-2,2.75-4.07,3.71a6.13,6.13,0,0,1-1.79.57,11.07,11.07,0,0,0-1.25-.18l-.12-.08a.35.35,0,0,1-.14-.27.33.33,0,0,1,.11-.28,14.59,14.59,0,0,1,5.74-3.17,10.84,10.84,0,0,0-5.71,2.18.23.23,0,0,1-.28,0Zm.21,1.33c1.75.56,5.22-1.54,6.84-2.94-1.08,1.63-5.29,4.1-6.84,2.94Z"/><path class="cls-5" d="M184.93,361.56a10,10,0,0,1,1.82.08,7.07,7.07,0,0,0,1.38.2c1.25.05,2.49.09,3.74.12,1.32-1.18,1.78-2.7,1-3.88q-3.42.15-6.78.15a41.48,41.48,0,0,0-11.36-.46,155.86,155.86,0,0,1-17.94-2.48c.9-1.16,1.07-2.79-1.48-5.37-2.84-2.88-6.69-4.24-7.85-3.05a.28.28,0,0,0-.09.1c-2.06-1.47-4.19-2.14-5.27-1.66-2.25-1.82-4.67-2.62-5.63-1.79a.92.92,0,0,0-.24.31c-2-1.95-4.22-2.93-5.21-2.22a1.06,1.06,0,0,0-.38.53c-2-2.36-4.56-3.66-5.66-2.91a1,1,0,0,0-.21.19c-2-2.17-4.35-3.33-5.4-2.61a1.23,1.23,0,0,0-.48.83c-1.67-1.77-3.61-2.75-4.6-2.31-1.65-2-3.65-3.08-4.61-2.5a1,1,0,0,0-.42.53c-1.56-1.94-3.51-3-4.43-2.49a.7.7,0,0,0-.17.13c-1.51-2.07-3.49-3.32-4.45-2.79a1,1,0,0,0-.38.43c-5.48-1.88-14.68-7.12-18.27-8.86,2.79,2,13.4,8.19,18.07,10a7.39,7.39,0,0,0,.13,1.26c-5.55-1.75-16.49-7.91-20.22-9.73A157.39,157.39,0,0,0,96.62,331c-1.59-.35-3.11-.39-3.8.08-6.42-3.18-14.72-8.11-17.56-9.5,2.14,1.56,10.88,6.95,17.17,10.36a4.8,4.8,0,0,0,1.94,2.83c-5.78-2.53-13.58-6.93-16.62-8.42a152.6,152.6,0,0,0,18.76,10.5,6.54,6.54,0,0,0-1.3.72c-5.52-2.13-13.91-6.93-17.29-8.59a139.91,139.91,0,0,0,16.56,9.44.71.71,0,0,0,0,.35c.09,1.15,2.44,2.16,5.18,2.19a.94.94,0,0,0-.19.66c.12,1.06,2.19,1.94,4.67,2a1,1,0,0,0-.19.69c.14,1.19,2.52,2.16,5.33,2.15a1.1,1.1,0,0,0-.19.76c.19,1.09,2.32,1.88,4.87,1.85a1.22,1.22,0,0,0-.2.82c.22,1.25,2.69,2.14,5.62,2.06a.92.92,0,0,0,0,.37c.24,1.36,3.15,2.29,6.4,2a1,1,0,0,0,0,.5c.28,1.4,3.4,2.27,6.78,1.81a1.56,1.56,0,0,0-.35,1.29c.38,1.27,3,1.9,6,1.48a1.2,1.2,0,0,0,0,.75c.45,1.25,3.12,1.74,6.11,1.17a1.22,1.22,0,0,0,.06.26c.61,1.54,4.68,1.79,8.43.25,3-1.23,3.7-2.61,3.55-3.9a13.14,13.14,0,0,0,1.74.37l1.83.36a28.7,28.7,0,0,0,3.66.67c2.4.12,4.76.57,7.13.9C171.65,360.35,182.38,361.49,184.93,361.56Zm-37.76-13.23.06.3a10.34,10.34,0,0,0-3.58-2.14,21.16,21.16,0,0,1,3.83,2.93,16.54,16.54,0,0,0,2.44,4,.42.42,0,0,1-.38,0,18.53,18.53,0,0,1-6.11-5.48c.58,1.86,2.92,4.56,4.93,5.85a.27.27,0,0,1,.1.33.29.29,0,0,1-.1.12,4.22,4.22,0,0,0-.74-.14,6.82,6.82,0,0,1-2.15-1.64c-2-2.1-3.86-5.39-3-6.2.68-.64,2.85.49,4.72,2Zm4.12,6.5q.38.33.72.6l-.18.05L150,355a3.33,3.33,0,0,0,.48-.38l.83.2Zm2.3.44a7.06,7.06,0,0,1-2.2-1.58c-2.07-2-4-5.26-3.2-6.1s4.09,1.06,6.16,3.09c1.56,1.53,2,2.71,1.77,3.55a.42.42,0,0,1-.24.29.45.45,0,0,1-.39,0,18.29,18.29,0,0,1-6.27-5.29c.64,1.85,3.06,4.47,5.1,5.7a.27.27,0,0,1,.12.33.29.29,0,0,1-.1.12,3.47,3.47,0,0,0-.75-.11Zm2.07,1a2.62,2.62,0,0,0,.53-.33,151.09,151.09,0,0,0,35.19,3.2c.93,0,.22,1.46-.62,1.44a186.78,186.78,0,0,1-35-4.16l-.11-.15Zm-1.65.17a.33.33,0,0,1,0,.15.27.27,0,0,1-.23.25c-2.37.34-5.62,1.8-6.93,3.25a18.38,18.38,0,0,1,7.84-2.41.45.45,0,0,1,.47.51c-.13.87-1,1.78-3,2.58-2.71,1.06-6.45,1.51-6.88.43s2.63-3.3,5.33-4.36a6.75,6.75,0,0,1,2.76-.59,3.34,3.34,0,0,0,.62.19Zm1.88-2c-.12-2.29-4.14-5.41-6.5-6.68,2.39.54,7.16,4.35,6.5,6.68Zm-6.95,2.21a15.21,15.21,0,0,0-3.45,2.45,20.85,20.85,0,0,1-5.19,1.05,10.8,10.8,0,0,0,4.64-.43,2.35,2.35,0,0,0-.19.25c-2.5.65-5.28.76-5.61-.18-.39-1.1,2.73-3.22,5.47-4.19a6.81,6.81,0,0,1,2.78-.5,4,4,0,0,0,.61.21.33.33,0,0,1,0,.15.26.26,0,0,1-.24.24c-2.37.27-5.67,1.62-7,3a18.45,18.45,0,0,1,7.91-2.16.38.38,0,0,1,.26.08Zm6.12,1.25c-.3,2.41-6.18,4.05-8.59,3.61,2.67-.25,7.58-1.54,8.59-3.61ZM141.4,346.28c0,.08,0,.16,0,.24a9.57,9.57,0,0,0-3.06-1.95,21.25,21.25,0,0,1,3.11,2.54,12.33,12.33,0,0,0,2.27,4.63A18.52,18.52,0,0,1,138,346c.48,1.89,2.68,4.7,4.62,6.1a.28.28,0,0,1,.08.34.25.25,0,0,1-.11.12,2.69,2.69,0,0,0-.73-.18,6.88,6.88,0,0,1-2.06-1.76c-1.9-2.2-3.57-5.58-2.69-6.34.67-.57,2.56.48,4.27,2Zm3.5,6.91.1.1.47.47-1-.29-.28-.08a2.21,2.21,0,0,0,.4-.28l.28.08Zm-1.67,2-.14.07,0-.14a1.74,1.74,0,0,1-.11.18,16,16,0,0,0-2.8,1.7,20.51,20.51,0,0,1-6,1,11.21,11.21,0,0,0,5.13-.31l-.28.27c-2.63.61-5.69.62-6-.38s2.9-3.07,5.68-3.9a6.68,6.68,0,0,1,2.8-.35,3.75,3.75,0,0,0,.6.24.26.26,0,0,1,0,.15.27.27,0,0,1-.25.24c-2.38.13-5.75,1.31-7.17,2.65a18.23,18.23,0,0,1,8-1.74.41.41,0,0,1,.34.17.55.55,0,0,1,.08.15Zm-7.11-9.81a2.74,2.74,0,0,0,.09.39,10.64,10.64,0,0,0-3.53-3,19.49,19.49,0,0,1,4,4.36,16.55,16.55,0,0,0,.83,1.7,3,3,0,0,1,.16,1.25,1.85,1.85,0,0,0,.16-.71l.18.29a1,1,0,0,1-.09.26.43.43,0,0,1-.27.24.42.42,0,0,1-.36-.07,17.47,17.47,0,0,1-5-6,12.89,12.89,0,0,0,3.83,6.15.26.26,0,0,1,.05.32.29.29,0,0,1-.11.11,2.72,2.72,0,0,0-.68-.23,6.9,6.9,0,0,1-1.79-1.83c-1.6-2.24-2.89-5.58-2-6.22s2.94,1.08,4.54,3Zm2.56,5.24.09.12-.15-.05.06-.07Zm.78.95c.12.15.25.28.37.41-.64-.22-1.28-.44-1.88-.69l.18-.13,1.33.41Zm-1.08,1.32c-.31.1-.61.21-.91.33a3.88,3.88,0,0,0-.06-.67l1,.34Zm-2.19.9c-.26.13-.51.27-.76.41a2.15,2.15,0,0,0,.87-1.07c-1.28,1.76-6.08,2.16-8.61,2a11.38,11.38,0,0,0,7.22-.57c-.31.19-.61.39-.88.59s-.57.15-.89.22c-2.7.54-6.27.35-6.49-.73s3-2.65,5.7-3.2a6.29,6.29,0,0,1,2.67-.08,3.4,3.4,0,0,0,.54.27.23.23,0,0,1,0,.14.24.24,0,0,1-.26.2,13,13,0,0,0-7,1.9,17.22,17.22,0,0,1,7.71-1,.4.4,0,0,1,.31.19.41.41,0,0,1,0,.36,1.23,1.23,0,0,1-.19.38ZM130.62,344c0,.2.09.4.14.6a11.33,11.33,0,0,0-4.15-4.18c2,1.62,5.1,5.27,4.78,7.42a1.87,1.87,0,0,0,.17-1.06c.08.15.15.31.23.47a2.15,2.15,0,0,1-.14.45.44.44,0,0,1-.29.22.4.4,0,0,1-.35-.07,17.39,17.39,0,0,1-4.84-6.09,13,13,0,0,0,3.67,6.25.25.25,0,0,1,0,.32.23.23,0,0,1-.12.1,3.1,3.1,0,0,0-.67-.24,6.9,6.9,0,0,1-1.75-1.88c-1.54-2.28-2.74-5.65-1.83-6.27s3.55,1.7,5.1,4Zm1.81,4.42.23.36-.42-.14a2,2,0,0,0,.19-.22Zm.76,1.13.09.12c-.52-.2-1-.4-1.52-.62l1.43.5Zm-1.12,1.07q-.47.11-.93.24a4.48,4.48,0,0,0-.06-.63l1,.39Zm-2,.62-.29.12a1.56,1.56,0,0,0,.24-.46,3,3,0,0,1-1,.77l-.38.18a17,17,0,0,1-7.3.79,11.34,11.34,0,0,0,5.81.08l-.38.29c-2.71.48-6.27.2-6.46-.89s3.06-2.58,5.77-3.05a6.5,6.5,0,0,1,2.68,0,4.14,4.14,0,0,0,.53.3.22.22,0,0,1,0,.14.25.25,0,0,1-.26.19c-2.26-.13-5.56.61-7,1.72a17.27,17.27,0,0,1,7.73-.77.4.4,0,0,1,.3.2.44.44,0,0,1,0,.42Zm-5.58-10.44c0,.11,0,.22,0,.33A10.66,10.66,0,0,0,121,338a19.76,19.76,0,0,1,3.61,4.06,14.45,14.45,0,0,0,1.19,3.22c0,.05,0,.1,0,.15a.36.36,0,0,0,0-.09l.06.12-.13.05a.41.41,0,0,1-.35-.08,17.46,17.46,0,0,1-4.84-6.08,13,13,0,0,0,3.68,6.25.26.26,0,0,1,0,.32.29.29,0,0,1-.12.1,3.74,3.74,0,0,0-.67-.25,6.68,6.68,0,0,1-1.74-1.87c-1.55-2.28-2.75-5.65-1.84-6.27s3,1.21,4.53,3.18Zm2,5.61.12.19-.24-.09.12-.1Zm-.3,1.79-.59.12c0-.13,0-.26,0-.39l.63.27Zm-1.66.4-.17.06a1.07,1.07,0,0,0,.07-.19,1.3,1.3,0,0,1-.19.22,15.53,15.53,0,0,0-2.88,1.26,19.66,19.66,0,0,1-5.58.26,10.62,10.62,0,0,0,4.75.29,2.88,2.88,0,0,0-.27.22c-2.53.27-5.34-.06-5.51-1s3.06-2.57,5.77-3.05a6.47,6.47,0,0,1,2.68,0,3.12,3.12,0,0,0,.53.29.23.23,0,0,1,0,.14.27.27,0,0,1-.26.2c-2.26-.13-5.56.61-7,1.71a17.4,17.4,0,0,1,7.73-.76.4.4,0,0,1,.3.2.36.36,0,0,1,.06.2Zm-5.52-9.29a3.15,3.15,0,0,0,.09.42,10,10,0,0,0-3.42-3.25,16.39,16.39,0,0,1,3.86,4.72c.1.27.21.53.32.79a2.81,2.81,0,0,1,.13,1.19,1.46,1.46,0,0,0,.16-.55l.13.27a.47.47,0,0,1-.06.15.39.39,0,0,1-.25.2.36.36,0,0,1-.32-.07,15.58,15.58,0,0,1-4.36-5.49,11.65,11.65,0,0,0,3.31,5.64.23.23,0,0,1,0,.29.24.24,0,0,1-.11.09,3.25,3.25,0,0,0-.6-.22,6.24,6.24,0,0,1-1.58-1.69c-1.39-2.06-2.47-5.09-1.65-5.65s2.89,1.26,4.31,3.16Zm1.79,4.54c.14.22.27.44.42.65l-.79-.31a4,4,0,0,0,.37-.34Zm-.18,1.92-.86.18a2.94,2.94,0,0,0,0-.65l1,.46Zm-1.85.46-.25.07a1.33,1.33,0,0,0,.2-.37,2.34,2.34,0,0,1-.54.49,14.61,14.61,0,0,0-1.71.72,17.09,17.09,0,0,1-5.56.36,9.76,9.76,0,0,0,4.52.22l-.32.22c-2.32.27-5,0-5.12-.91s2.76-2.32,5.2-2.75a5.87,5.87,0,0,1,2.41,0,2.27,2.27,0,0,0,.48.26.2.2,0,0,1,0,.13.25.25,0,0,1-.24.18,11.61,11.61,0,0,0-6.35,1.55,15.66,15.66,0,0,1,7-.7.36.36,0,0,1,.27.19.4.4,0,0,1,0,.36Zm-5-10,0,.23a8.82,8.82,0,0,0-2.58-2.48,17.85,17.85,0,0,1,2.59,3.12,11.66,11.66,0,0,0,1.27,3.89.38.38,0,0,1-.29-.09,15.61,15.61,0,0,1-4-5.73,11.58,11.58,0,0,0,3,5.81.24.24,0,0,1,0,.3.21.21,0,0,1-.11.08,3.17,3.17,0,0,0-.59-.25,6.08,6.08,0,0,1-1.48-1.79c-1.27-2.13-2.17-5.22-1.32-5.73.69-.41,2.3,1,3.57,2.64Zm1.76,5.66.2.33-.42-.18.22-.15Zm.27,1.53-.52.08-.59.12a3.88,3.88,0,0,0,0-.59l0-.19,1.16.58Zm-2.13.47-.26.08a1.6,1.6,0,0,0,.23-.38,2.42,2.42,0,0,1-.75.56l-.79.32a15.89,15.89,0,0,1-6.34.23,10.23,10.23,0,0,0,5.09.41c-.13.07-.25.15-.37.23-2.44.25-5.51-.19-5.62-1.16s2.89-2.15,5.36-2.44a5.54,5.54,0,0,1,2.4.12,5,5,0,0,0,.47.29.28.28,0,0,1,0,.13.24.24,0,0,1-.25.16,11.67,11.67,0,0,0-6.43,1.17,15.56,15.56,0,0,1,7-.28.37.37,0,0,1,.26.2.38.38,0,0,1,0,.36Zm-4.46-9.06c0,.12,0,.25.05.38a9.4,9.4,0,0,0-3-3.26,15.49,15.49,0,0,1,3.3,4.51c.1.35.21.71.34,1.07a2.12,2.12,0,0,1,0,.9A1.29,1.29,0,0,0,110,338l.1.25a.36.36,0,0,1,0,.09.35.35,0,0,1-.25.17.34.34,0,0,1-.29-.08,14.72,14.72,0,0,1-3.78-5.36,10.91,10.91,0,0,0,2.79,5.44.21.21,0,0,1,0,.27.19.19,0,0,1-.1.08,4,4,0,0,0-.55-.24,5.57,5.57,0,0,1-1.38-1.66c-1.19-2-2-4.89-1.24-5.37s2.67,1.38,3.89,3.25Zm1.35,4.31c.14.26.28.52.42.76s.13.22.2.32l-1.33-.6.2-.11a3.17,3.17,0,0,0,.51-.37Zm.31,1.77-.52,0a8.13,8.13,0,0,0-.84.13,3.75,3.75,0,0,0,0-.67,2.38,2.38,0,0,0,0-.26l1.42.75Zm-2.34.39-.28.08a1.6,1.6,0,0,0,.29-.44,2.51,2.51,0,0,1-.94.63l-.62.23a15.34,15.34,0,0,1-5.82.18,9.51,9.51,0,0,0,4.5.42,2.91,2.91,0,0,0-.35.2c-2.23.18-4.89-.24-5-1.11s2.71-2,5-2.29a5.38,5.38,0,0,1,2.26.12,2.54,2.54,0,0,0,.43.27.24.24,0,0,1,0,.12.22.22,0,0,1-.23.15,10.84,10.84,0,0,0-6,1.1,14.67,14.67,0,0,1,6.55-.27.33.33,0,0,1,.24.19.32.32,0,0,1,0,.3.61.61,0,0,1,0,.12Zm-4.16-9.1c0,.1,0,.21,0,.32a9.26,9.26,0,0,0-2.82-3.18,16.45,16.45,0,0,1,3,4.16,10.94,10.94,0,0,0,.53,1.86,1.89,1.89,0,0,1,0,.59,1.24,1.24,0,0,0,.15-.33,1.23,1.23,0,0,1,.08.23.39.39,0,0,1-.26.17.38.38,0,0,1-.29-.09,14.72,14.72,0,0,1-3.58-5.5A10.83,10.83,0,0,0,103.6,336a.23.23,0,0,1,0,.28.26.26,0,0,1-.11.07,2.46,2.46,0,0,0-.54-.26,5.58,5.58,0,0,1-1.32-1.71c-1.12-2-1.86-5-1-5.41s2.54,1.39,3.69,3.26Zm1.25,4.5c.14.27.28.54.43.79s.22.36.33.52l-1.67-.79A3,3,0,0,0,105,337a2.93,2.93,0,0,0,.5-.34Zm.6,1.72a5.17,5.17,0,0,0-.76.06c-.31,0-.62.08-.94.14a2.72,2.72,0,0,0,0-.7,2,2,0,0,0-.09-.49l1.77,1Zm-2.75.46L103,339a1.54,1.54,0,0,0,.48-.58c-1.25,1.34-5.31,1.2-7.41.78a9.73,9.73,0,0,0,5.23.47l-.46.25-.22,0c-2.32.18-5.29-.33-5.37-1.26,0-.68,1.45-1.39,3.16-1.79a2.71,2.71,0,0,0,2.59-.35,4.86,4.86,0,0,1,1.59.22,2.32,2.32,0,0,0,.43.29.49.49,0,0,1,0,.12.21.21,0,0,1-.24.14,10.83,10.83,0,0,0-6,.89,14.64,14.64,0,0,1,6.55,0,.37.37,0,0,1,.24.2.32.32,0,0,1,0,.3,1.34,1.34,0,0,1-.13.23Zm-1.77-3.19.08.1s-.11-.05-.08-.1Zm-.85-1.47a.21.21,0,0,1-.27,0,10.92,10.92,0,0,0-5.71-2.18,14.73,14.73,0,0,1,5.74,3.17.36.36,0,0,1,0,.55l-.12.08a11.23,11.23,0,0,0-1.24.18,6.18,6.18,0,0,1-1.8-.57c-2.11-1-4.45-2.86-4.06-3.71s3.36-.32,5.47.65a5.61,5.61,0,0,1,1.74,1.13l.3.68Zm-.2,1.32c-1.55,1.16-5.75-1.31-6.84-2.94,1.62,1.4,5.1,3.5,6.84,2.94Z"/><path class="cls-6" d="M444.79,296.47c-18.72,8.7-38.82,14.31-59,18.61a553.92,553.92,0,0,1-77.59,10.52,707.92,707.92,0,0,1-88.48.55,580.83,580.83,0,0,1-79.33-9.6c-21-4.11-41.89-9.5-61.6-17.83q-3-1.29-6-2.68c-.8-.37-3.21.12-3.64,1Q57,321.26,44.82,345.52l-3.44,6.85a.18.18,0,0,0,.07.28c21.73,10.11,45.07,16.67,68.43,21.72a639.67,639.67,0,0,0,90.57,12.39,819.41,819.41,0,0,0,102.88.68A673,673,0,0,0,396,376.19c24.35-4.81,48.65-11.13,71.56-20.79q3.62-1.51,7.17-3.17c.13-.06,1-.42.81-.71q-12.18-24.25-24.35-48.5c-1.15-2.29-2.3-4.57-3.44-6.86-.43-.86-4,.49-3.78,1q12.18,24.25,24.35,48.51l3.45,6.85.81-.7c-30.09,14-63.22,21.4-95.83,26.64-43,6.9-86.8,9.37-130.36,8.68-41.86-.66-83.86-4.27-125-12.44a415,415,0,0,1-49.55-12.78c-7.12-2.36-14.17-5-21.07-7.94-1.5-.65-3-1.31-4.48-2-.67-.3-1.09-.09-1.11-.57s1-1.93,1.24-2.48q12.87-25.6,25.72-51.23c.24-.46.47-.93.71-1.4l-3.64,1c18.94,8.8,39.28,14.52,59.65,18.92A558.13,558.13,0,0,0,207.85,327a715.6,715.6,0,0,0,89.68.57,584.8,584.8,0,0,0,80.77-9.82c21.23-4.19,42.4-9.71,62.38-18.13,2.1-.88,4.19-1.81,6.25-2.77.58-.27,1-.5.49-.9S445.23,296.26,444.79,296.47Z"/><path class="cls-6" d="M416.7,307.73a84.58,84.58,0,0,1-8.61-20.14c-.23-.8-4,.26-3.77,1a84.55,84.55,0,0,0,8.6,20.14c.55.89,4-.58,3.78-1Z"/><path class="cls-6" d="M405.32,289.34a15.13,15.13,0,0,0,7.34,4.5,86.66,86.66,0,0,0,10.68,2.5,99.4,99.4,0,0,0,22.46,1.32c2.11-.11,2.93-2.84.35-2.7a94.77,94.77,0,0,1-20.26-1.1,92.92,92.92,0,0,1-9.87-2.17c-2.74-.77-5.36-1.77-7.24-4-1.08-1.28-4.68.21-3.46,1.64Z"/><path class="cls-2" d="M470.1,348.36a90.31,90.31,0,0,1-16.68,6.82c-.72.21-1.8.85-1.55,1.76s1.52,1,2.22.75a95.43,95.43,0,0,0,17.67-7.18c.64-.34,1.47-1.13.9-1.9a2.21,2.21,0,0,0-2.56-.25Z"/><path class="cls-2" d="M468,344.15q-4.95,2.66-10.12,4.86c-.73.31-1.41,1.27-.87,2s1.8.66,2.57.33q5.17-2.21,10.12-4.86c.7-.37,1.44-1.23.88-2a2.13,2.13,0,0,0-2.58-.33Z"/><path class="cls-2" d="M466.05,340.21a92,92,0,0,1-9.39,4.37c-.56.23-1.52,1-1,1.66s1.84.39,2.52.12a93,93,0,0,0,9.39-4.37c.52-.28,1.55-.95,1-1.66s-1.89-.45-2.52-.12Z"/><path class="cls-2" d="M464.18,336.84c-1.28.61-2.57,1.21-3.88,1.78l-1.95.83-1,.41-.42.17-.27.11c-.2.07-1.67.63-1.14,1a1.55,1.55,0,0,0,1,.08,5.7,5.7,0,0,0,1.47-.33q4.24-1.68,8.38-3.65c.27-.13,1.32-.76.48-.92a4.63,4.63,0,0,0-2.63.5Z"/><path class="cls-2" d="M460.74,331.68c-.65.35-1.31.69-2,1l-1,.49-.57.27c-.2.09-.2.09,0,0l-.21.1c-1.37.64-2.75,1.23-4.16,1.78-.38.15-1.62.78-1.05,1.34s1.89.16,2.47-.07a81,81,0,0,0,8.77-4.07c.42-.24,1.2-1,.38-1.28a3.56,3.56,0,0,0-2.66.41Z"/><path class="cls-2" d="M458.3,327.58c-2.34,1.08-4.73,2.08-7.15,3-.36.14-1.62.76-1.06,1.3a1.39,1.39,0,0,0,1,.23,4.71,4.71,0,0,0,1.48-.31c2.41-.91,4.8-1.91,7.15-3,.35-.16,1.64-.75,1.06-1.3a1.39,1.39,0,0,0-1-.23,4,4,0,0,0-1.48.31Z"/><path class="cls-2" d="M455.59,323l-.72.43c-.35.21.21-.11-.08.05l-.39.21c-.45.26-.91.5-1.38.73s-.93.46-1.41.67l-.4.19-.21.09.23-.1-.83.34a2.92,2.92,0,0,0-1,.6c-.14.15-.28.39-.06.55a1.49,1.49,0,0,0,1,.15,4.61,4.61,0,0,0,1.47-.32,45.06,45.06,0,0,0,6.77-3.39c.15-.09.49-.37.43-.6s-.5-.3-.68-.32a4.86,4.86,0,0,0-2.67.72Z"/><path class="cls-2" d="M454.47,317.3c-.71.41-1.44.81-2.17,1.18l-.44.23-.31.15-1.05.49c-1.45.66-2.94,1.25-4.44,1.77-.44.15-1.59.83-1,1.41s1.87.2,2.49,0a55.4,55.4,0,0,0,9.27-4.24c.45-.26,1.18-1,.36-1.35a3.35,3.35,0,0,0-2.67.38Z"/><path class="cls-2" d="M451.66,313a72.82,72.82,0,0,1-12.58,5.77c-.62.22-1.82.73-1.59,1.61s1.58.79,2.18.59a84.76,84.76,0,0,0,14.41-6.58c.61-.36,1-1.24.27-1.68a2.82,2.82,0,0,0-2.69.29Z"/><path class="cls-2" d="M448.85,310.07a68.59,68.59,0,0,1-12,4.77c-.38.1-1.86.48-1.74,1.08s1.81.14,2.05.07A76.52,76.52,0,0,0,451,310.55c.35-.17,1.26-.72.47-1a4.27,4.27,0,0,0-2.64.49Z"/><path class="cls-2" d="M447.4,303.79a75.48,75.48,0,0,1-13.17,6.15c-.67.24-1.81.79-1.57,1.7s1.56.92,2.21.69a85.82,85.82,0,0,0,15-7,1.06,1.06,0,0,0,.24-1.81,2.66,2.66,0,0,0-2.7.26Z"/><path class="cls-2" d="M445.17,300.9a178.8,178.8,0,0,1-16.44,7.17c-.32.12-1.55.53-1.14,1s2.05-.1,2.42-.24a187.11,187.11,0,0,0,17.32-7.52c.37-.18,1.23-.65.48-.93a4.36,4.36,0,0,0-2.64.5Z"/><path class="cls-2" d="M458.12,321.66q10.81-3.32,21.39-7.31c.52-.2,1.52-.84,1-1.48s-1.93-.24-2.5,0q-10.08,3.81-20.4,7c-.52.16-1.85.64-1.64,1.42s1.64.56,2.13.41Z"/><path class="cls-2" d="M459.55,316.66l4.12-1.48a2,2,0,0,0,1-.82.83.83,0,0,0-.05-.93,1.51,1.51,0,0,0-1.05-.45,3.6,3.6,0,0,0-1.48.27L458,314.72a2.11,2.11,0,0,0-1,.83.85.85,0,0,0,.05.93,1.53,1.53,0,0,0,1.05.45,3.82,3.82,0,0,0,1.49-.27Z"/><path class="cls-2" d="M455.36,314.09l5.6-2.65a2.4,2.4,0,0,0,1-.74.6.6,0,0,0,0-.78,2.51,2.51,0,0,0-2.49,0l-5.6,2.65a2.43,2.43,0,0,0-1,.74.62.62,0,0,0,0,.78c.59.57,1.85.34,2.5,0Z"/><path class="cls-2" d="M453.7,309.19l4.43-2a2,2,0,0,0,1-.94,1.14,1.14,0,0,0-.1-1.13,2.14,2.14,0,0,0-2.58-.34l-4.43,2a2,2,0,0,0-1,.94,1.14,1.14,0,0,0,.09,1.12,2.17,2.17,0,0,0,2.59.35Z"/><path class="cls-2" d="M451,303.67l5.59-2.65a2.15,2.15,0,0,0,1-.82.8.8,0,0,0,0-.91,2.32,2.32,0,0,0-2.53-.16l-5.6,2.65a2.2,2.2,0,0,0-1,.82.8.8,0,0,0,0,.91,2.34,2.34,0,0,0,2.54.16Z"/><path class="cls-2" d="M448.35,298.27l5.6-2.66c.2-.09.67-.32.77-.57s-.1-.35-.31-.4a3.23,3.23,0,0,0-1.2,0,6.17,6.17,0,0,0-1.44.45l-5.59,2.65c-.21.1-.68.33-.78.58s.11.35.31.39a3,3,0,0,0,1.2,0,6.51,6.51,0,0,0,1.44-.45Z"/><path class="cls-6" d="M408.92,293.67c1.08,2.31,2.15,4.63,3.23,6.95l1.48,3.21a14.15,14.15,0,0,0,1.41,2.9c1.28,1.6,3.58.6,5.17.11a61.39,61.39,0,0,0,6.81-2.57,1.56,1.56,0,0,0,.78-.64L441,299.31c.71-.24,1.66-.85,1.43-1.74s-1.4-1-2.1-.78l-2.68.88c0-.67-.7-1.25-1.84-1.09a1.48,1.48,0,0,0-1.28-.48,72.6,72.6,0,0,1-10.32.17,9.13,9.13,0,0,0-3.87-1.18c-.23,0-.47-.06-.7-.07a3.14,3.14,0,0,0-1.4.26,8,8,0,0,0-1.41-.87,2.45,2.45,0,0,0-1.75.09,7,7,0,0,1-2.74-2.1C411.46,291.3,408.23,292.16,408.92,293.67Z"/><path class="cls-6" d="M103,307.89a85,85,0,0,0,8.6-20.14c.18-.62-1.23-.36-1.5-.31-.49.09-2,.37-2.22,1a84.55,84.55,0,0,1-8.6,20.14c-.35.56,1.35.34,1.49.31.67-.12,1.83-.36,2.23-1Z"/><path class="cls-6" d="M107.29,288c-1.81,2.12-4.26,3-6.88,3.75a89.46,89.46,0,0,1-9.87,2.16,93.81,93.81,0,0,1-20,1.06,2.53,2.53,0,0,0-2.46,1.15c-.35.82.31,1.5,1.14,1.54a100.56,100.56,0,0,0,22.66-1.34,84.53,84.53,0,0,0,10.55-2.46,16.26,16.26,0,0,0,8-4.8c1.54-1.8-2.06-2.34-3.14-1.06Z"/><path class="cls-2" d="M43.52,350.5a94.42,94.42,0,0,0,17.53,7.18,2.67,2.67,0,0,0,2.67-.71,1,1,0,0,0-.47-1.78,90.86,90.86,0,0,1-16.81-6.83,2.59,2.59,0,0,0-2.71.25c-.55.41-1.06,1.44-.21,1.89Z"/><path class="cls-2" d="M45.59,346.45C49,348.28,52.5,350,56.08,351.5a2.45,2.45,0,0,0,2.67-.72,1.19,1.19,0,0,0-.52-1.92c-3.3-1.4-6.68-3-9.75-4.66a2.44,2.44,0,0,0-2.71.21c-.55.46-1.06,1.56-.18,2Z"/><path class="cls-2" d="M47.59,342.08A95.23,95.23,0,0,0,57,346.45a2.93,2.93,0,0,0,2.69-.31c.45-.33,1.18-1.29.28-1.64a93,93,0,0,1-9.39-4.37,2.8,2.8,0,0,0-2.68.31c-.53.38-1.11,1.2-.29,1.64Z"/><path class="cls-2" d="M48.87,337.68q3.91,1.88,8,3.48a3.76,3.76,0,0,0,2.42-.25,3.25,3.25,0,0,0,1.06-.55c.11-.1.33-.37.08-.47q-4-1.59-8-3.47a3.52,3.52,0,0,0-2.42.24c-.15.06-1.7.75-1.14,1Z"/><path class="cls-2" d="M52.51,333a77.72,77.72,0,0,0,8.33,3.88,3.42,3.42,0,0,0,2.66-.41c.43-.25,1.22-.94.39-1.27a77,77,0,0,1-8.34-3.88,2.34,2.34,0,0,0-1.23-.06,4,4,0,0,0-1.43.47c-.51.3-1.14.86-.38,1.27Z"/><path class="cls-2" d="M55.38,329c2.34,1.08,4.73,2.08,7.15,3a3.44,3.44,0,0,0,2.65-.42c.42-.24,1.23-.92.4-1.24-2.42-.91-4.81-1.91-7.15-3a2.57,2.57,0,0,0-1.23-.05,4,4,0,0,0-1.43.47c-.47.27-1.18.87-.39,1.24Z"/><path class="cls-2" d="M57.08,323.77a41.34,41.34,0,0,0,6.21,3.1,2.74,2.74,0,0,0,1.21,0,4.94,4.94,0,0,0,1.44-.46c.26-.13.65-.32.76-.62s-.11-.36-.32-.44c-1-.42-1.87-.8-2.87-1.3s-1.94-1-2.88-1.6a1.71,1.71,0,0,0-1-.15,4.61,4.61,0,0,0-1.47.32c-.21.08-1.72.78-1.11,1.15Z"/><path class="cls-2" d="M58.77,318.66a52.62,52.62,0,0,0,8.84,4,3.36,3.36,0,0,0,2.67-.39c.41-.25,1.23-1.05.36-1.35a53.08,53.08,0,0,1-8.85-4,2.24,2.24,0,0,0-1.23-.09,3.83,3.83,0,0,0-1.43.47c-.53.33-1.12.93-.36,1.36Z"/><path class="cls-2" d="M61.55,314.71A81.17,81.17,0,0,0,75.4,321a2.86,2.86,0,0,0,2.67-.71c.61-.63.36-1.28-.41-1.55a76.91,76.91,0,0,1-13.14-6,2.77,2.77,0,0,0-2.69.29c-.57.39-1.07,1.23-.28,1.69Z"/><path class="cls-2" d="M64.19,311a73.14,73.14,0,0,0,13.14,5.19,4.27,4.27,0,0,0,2.64-.48c.36-.17,1.28-.74.47-1a70.4,70.4,0,0,1-12.69-5,3.38,3.38,0,0,0-2.43.22c-.17.06-1.71.76-1.13,1.06Z"/><path class="cls-2" d="M65.81,305.61a83.15,83.15,0,0,0,14.44,6.73,2.73,2.73,0,0,0,2.67-.72,1,1,0,0,0-.46-1.69,78.78,78.78,0,0,1-13.71-6.4,2.61,2.61,0,0,0-2.7.26c-.58.42-1,1.34-.24,1.82Z"/><path class="cls-2" d="M67.88,301.75a182.55,182.55,0,0,0,16.87,7.34,3.71,3.71,0,0,0,2.43-.24c.13-.05,1.71-.81,1.14-1q-8.62-3.25-16.88-7.35a3.55,3.55,0,0,0-2.43.24c-.15.06-1.69.75-1.13,1Z"/><path class="cls-2" d="M59.19,319.74q-10.38-3.19-20.55-7a3.23,3.23,0,0,0-2.67.36c-.45.27-1.2,1.11-.34,1.44q10.5,4,21.24,7.25a3.21,3.21,0,0,0,2.67-.72c.62-.57.39-1.06-.35-1.29Z"/><path class="cls-2" d="M60.38,315.8l-4.12-1.48a2.67,2.67,0,0,0-1.43,0,2.59,2.59,0,0,0-1.24.69,1,1,0,0,0-.34,1,1.1,1.1,0,0,0,.77.65l4.12,1.48a3,3,0,0,0,2.67-.72,1,1,0,0,0,.34-1,1.11,1.11,0,0,0-.77-.66Z"/><path class="cls-2" d="M62.8,312.39l-5.6-2.64a2.32,2.32,0,0,0-1.25-.14,3.63,3.63,0,0,0-1.43.49c-.27.18-.67.44-.71.8a.62.62,0,0,0,.38.68l5.6,2.64a2.42,2.42,0,0,0,1.25.14,3.63,3.63,0,0,0,1.43-.49c.27-.18.67-.45.71-.8a.61.61,0,0,0-.38-.68Z"/><path class="cls-2" d="M64.14,306.65l-4.43-2a2.39,2.39,0,0,0-1.45-.05,2.35,2.35,0,0,0-1.22.77,1.26,1.26,0,0,0-.29,1.13,1.36,1.36,0,0,0,.81.83l4.44,2a2.29,2.29,0,0,0,1.44,0,2.34,2.34,0,0,0,1.23-.76,1.3,1.3,0,0,0,.29-1.13,1.37,1.37,0,0,0-.82-.83Z"/><path class="cls-2" d="M67.18,301.72l-5.6-2.65a2.76,2.76,0,0,0-2.69.29,1.48,1.48,0,0,0-.69.9.81.81,0,0,0,.43.82l5.59,2.65a2.76,2.76,0,0,0,2.69-.29c.29-.21.66-.52.69-.9a.79.79,0,0,0-.42-.82Z"/><path class="cls-2" d="M70.42,297.38l-5.6-2.65a1.83,1.83,0,0,0-1-.11,5.79,5.79,0,0,0-1.47.33,2.63,2.63,0,0,0-1,.57c-.11.11-.32.37-.07.49l5.59,2.66a2,2,0,0,0,1,.11,5.6,5.6,0,0,0,1.47-.33,2.86,2.86,0,0,0,1.06-.57c.11-.12.32-.38.07-.5Z"/><path class="cls-6" d="M107,293.67c-1.07,2.31-2.15,4.63-3.22,6.95l-1.49,3.21a14.12,14.12,0,0,1-1.4,2.9c-1.28,1.6-3.58.6-5.18.11a61.39,61.39,0,0,1-6.81-2.57,1.53,1.53,0,0,1-.77-.64L75,299.31c-.7-.24-1.66-.85-1.42-1.74s1.4-1,2.1-.78l2.68.88c0-.67.7-1.25,1.83-1.09a1.51,1.51,0,0,1,1.29-.48,72.55,72.55,0,0,0,10.32.17,9.09,9.09,0,0,1,3.86-1.18c.24,0,.47-.06.71-.07a3.14,3.14,0,0,1,1.4.26,7.61,7.61,0,0,1,1.41-.87,2.42,2.42,0,0,1,1.74.09,7,7,0,0,0,2.74-2.1C104.44,291.3,107.68,292.16,107,293.67Z"/><path class="cls-2" d="M358.38,376.26a212.36,212.36,0,0,1-44.73,5.1c-.71,0-2.13.27-2.51,1s.33.91,1,.91a221.57,221.57,0,0,0,46.69-5.4c.47-.1,1.86-.61,1.68-1.3s-1.68-.39-2.1-.29Z"/><path class="cls-2" d="M277.51,382.05h-25c-.81,0-2,.64-2.08,1.53s1,1.24,1.75,1.24h25c.82,0,2-.63,2.08-1.53s-1-1.24-1.74-1.24Z"/><path class="cls-2" d="M194.43,328.26q-30.93-3.12-61.49-9c-1.83-.35-3.83,2.22-1.32,2.7q30.52,5.91,61.49,9a2.52,2.52,0,0,0,2.47-1.15c.35-.85-.33-1.47-1.15-1.55Z"/><path class="cls-6" d="M461,324.78a166.6,166.6,0,0,1,52.33-8.14c.72,0,2.12-.27,2.5-1s-.33-1-1-1a173.13,173.13,0,0,0-54.29,8.42c-.49.16-1.87.6-1.67,1.35s1.68.48,2.12.33Z"/><path class="cls-6" d="M407.7,287.9a147.88,147.88,0,0,1,37.12-9.14,177.46,177.46,0,0,1,39.23-.5A142.7,142.7,0,0,1,505,281.93c1.94.5,3.73-2.26,1.26-2.89a156,156,0,0,0-39-4.55A180.57,180.57,0,0,0,426.75,279,142.34,142.34,0,0,0,406,285.51a1.47,1.47,0,0,0-.86,2.05c.56.84,1.8.66,2.58.34Z"/><path class="cls-6" d="M504.55,280.93a160.18,160.18,0,0,0-16,8.72c-4.88,3-10.54,6.35-14,11.08-.52.71.45,1,1,1a3.25,3.25,0,0,0,2.5-1,25.25,25.25,0,0,1,5.18-4.93,92.58,92.58,0,0,1,7.93-5.36,152.36,152.36,0,0,1,14.85-8.1c.47-.22,1.54-.77,1-1.43s-2-.23-2.49,0Z"/><path class="cls-6" d="M515.09,314.19a83.48,83.48,0,0,0-37.94-14.56c-1.53-.19-4,1.93-1.44,2.24a80.42,80.42,0,0,1,36.39,14.21c1.06.75,4.53-.8,3-1.89Z"/><path class="cls-2" d="M57.5,323.08a172.29,172.29,0,0,0-54.07-8.4c-.73,0-2.12.26-2.5,1s.32,1,1,1a167.47,167.47,0,0,1,52.56,8.16,3.37,3.37,0,0,0,2.66-.39c.4-.23,1.25-1,.37-1.33Z"/><path class="cls-6" d="M111,285.37a153.34,153.34,0,0,0-38-9.45,181.4,181.4,0,0,0-40.74-.57,145.41,145.41,0,0,0-21.45,3.75c-2.35.61-1.62,3.37.74,2.77,24.89-6.41,52-5.81,77-.13a137,137,0,0,1,20.36,6.3c1.7.68,4.39-1.77,2.14-2.67Z"/><path class="cls-6" d="M9.93,282.52a155.39,155.39,0,0,1,15.27,8.31,91.23,91.23,0,0,1,8,5.44,26.69,26.69,0,0,1,5.43,5.18c.7,1,4.36-.28,3.52-1.44a26.42,26.42,0,0,0-5.43-5.18c-2.62-2-5.39-3.82-8.19-5.56A155.08,155.08,0,0,0,13,280.76a3.17,3.17,0,0,0-2.67.38c-.48.3-1.16,1-.35,1.38Z"/><path class="cls-6" d="M4.31,315.75a78.71,78.71,0,0,1,35.74-13.9c.67-.08,2-.48,2.13-1.32s-1.06-1-1.65-.88A85,85,0,0,0,1.94,314.52c-2.09,1.48,1.12,2.11,2.37,1.23Z"/><path class="cls-7" d="M243.65,349.05a11.76,11.76,0,0,1-1.18,2.48,30.28,30.28,0,0,1-5.63,7.11c-4.36,4.24-7.75,7.62-10.16,10.21-1.54,1.66-3.09,3.3-4.63,4.94-.29.42-.57.82-.83,1.22a2,2,0,0,1-2.14,1.25c-1.89-.13-2.83-1-2.83-2.69a19.77,19.77,0,0,1,1.66-7.52,16.56,16.56,0,0,1,4-6,16,16,0,0,1,3.79-2.4,8.46,8.46,0,0,1,3.54-1,1.45,1.45,0,0,1,1.35,1,10.28,10.28,0,0,1,.48,3.29,20.1,20.1,0,0,1-3.45.82c-.55,0-.81-.33-.78-.91l.09-.69c-.06-1.14-.46-1.73-1.18-1.76s-1.82.89-3,2.8a20.41,20.41,0,0,0-2.62,5.69,27.66,27.66,0,0,0-1,7.52,33.7,33.7,0,0,0,4.5-4.43c.32-.39.84-1,1.57-1.84,3.78-4.16,6.37-7.12,7.77-8.79a104.81,104.81,0,0,0,6.89-9.22c-3.17,1-6.88,2.27-11.13,3.87-11.08,4.11-18.15,5.66-21.2,5.35a2.79,2.79,0,0,1-2-1,3.48,3.48,0,0,1-.7-2.17c0-2.07,1.55-4.36,4.63-6.93a35.92,35.92,0,0,1,10.78-6.1,62.86,62.86,0,0,1,10.25-2.66,58.27,58.27,0,0,1,10.39-1c.41,0,1.12.05,2.14.11a4.55,4.55,0,0,1,.65,2.41,1.4,1.4,0,0,1-.56,1.22,12.54,12.54,0,0,1-2.54.84l-1.13.29a5.08,5.08,0,0,0-.13-.53,13,13,0,0,0-.87-2.54,1.46,1.46,0,0,0-1.23-.55,27.57,27.57,0,0,0-6.45.64,44.43,44.43,0,0,0-9.39,2.59,28.26,28.26,0,0,0-8,5c-2.3,2.09-3.45,3.88-3.45,5.4s.93,2.32,2.79,2.48c2.5.22,7.19-.79,14-3.28l2.45-.86c6.22-2.27,10.94-3.9,14.14-4.72A3.39,3.39,0,0,1,243.65,349.05Z"/><path class="cls-7" d="M261.4,348.92a34.91,34.91,0,0,0-4.06,7.23,10.32,10.32,0,0,0-1,3.36c0,.44.2.66.61.66s1.54-.72,3.49-2.17l.31.22a30,30,0,0,1-4.5,3.65,4.55,4.55,0,0,1-2.05.92q-.87,0-.87-1.05a15.58,15.58,0,0,1,.65-2.62q1-3.09,2.45-6.59l-.83-1q1.65-1.05,4.67-3.25Zm-.35-6.15-.53,1.14a11.05,11.05,0,0,1-2,.23,4.43,4.43,0,0,1-2.79-.73,5.55,5.55,0,0,1-1.35-2.75l2.92-1.66a4.9,4.9,0,0,0,1.18,2.53A5,5,0,0,0,261.05,342.77Z"/><path class="cls-7" d="M279,337.85c-.57,2-1.13,4.09-1.7,6.13-.09.44-.19.88-.31,1.32s-.42.88-.74.9l-.52-.07a2.68,2.68,0,0,0-.61-.07c-1.2,2.65-2.49,5.94-3.89,9.84a21.4,21.4,0,0,0,4.85.56c.75,0,1.58-.09,2.48-.18l.14.65a55.06,55.06,0,0,1-6.81,1.27,48.84,48.84,0,0,1,.78,7.87,23.79,23.79,0,0,1-1,7.45c-1,2.85-2.43,4.3-4.41,4.33-1.72,0-2.58-.91-2.58-2.83q0-5.5,3.41-16.17a1.41,1.41,0,0,1-.83-1.38V357q1-2.82,2-5.67c.55-1.55,1.06-2.33,1.52-2.35.15,0,.41.23.79.68q2.54-5.68,3.45-7.43a38.9,38.9,0,0,1,2.66-4.32Zm-7.42,26.42a34,34,0,0,0-.56-5.92l-1.27.21A62.46,62.46,0,0,0,267.25,376a9.49,9.49,0,0,0,2.66-3.07A19.1,19.1,0,0,0,271.61,364.27Z"/><path class="cls-7" d="M295.71,347.2l-1,.27q-2.62.75-5.28,1.74a28.19,28.19,0,0,0-1.66,8.11c0,1.65.43,2.47,1.31,2.43q1,0,4-2.55c.38-.31.9-.71,1.57-1.21l.39.28c-4.71,4-7.55,6-8.51,6-.32,0-.52-.21-.61-.67a10.72,10.72,0,0,1-.13-2.14,35.5,35.5,0,0,1,1.83-10.2,9.63,9.63,0,0,1-1.52-1.24,14,14,0,0,1,2.48-1.46c1.28-3.55,3.1-5.75,5.46-6.63v0a16.77,16.77,0,0,0-2.14,3.21,5.45,5.45,0,0,0-.65,2c0,.82.72,1.19,2.18,1.12l2.14-.24C295.59,346.45,295.65,346.83,295.71,347.2Z"/><line class="cls-8" x1="403.52" y1="120.36" x2="467.14" y2="120.36"/><line class="cls-8" x1="435.33" y1="88.55" x2="435.33" y2="152.17"/><line class="cls-8" x1="451.31" y1="104.38" x2="419.35" y2="136.34"/><line class="cls-8" x1="451.31" y1="136.34" x2="419.35" y2="104.38"/><line class="cls-8" x1="176.95" y1="33.26" x2="240.57" y2="33.26"/><line class="cls-8" x1="208.76" y1="1.45" x2="208.76" y2="65.07"/><line class="cls-8" x1="224.74" y1="17.28" x2="192.78" y2="49.24"/><line class="cls-8" x1="224.74" y1="49.24" x2="192.78" y2="17.28"/></g></g></svg>