<svg xmlns="http://www.w3.org/2000/svg" viewBox="0 0 466.63 417.21"><defs><style>.cls-1{fill:#f5f2e1;}.cls-1,.cls-2{fill-rule:evenodd;}.cls-2,.cls-4{fill:#333;}.cls-3{fill:#ffb911;}</style></defs><g id="레이어_2" data-name="레이어 2"><g id="텍스트_1" data-name="텍스트 1"><path class="cls-1" d="M237.87,161.07c.53,1.12,1.2,2.24,1.81,3.29,4,7,6.25,12.45,6.25,20.7V295.34c0,2.7-1.61,4.6-2.56,7-1,2.55-1.53,5.47-3.93,7.17-20.65,14.6-62.45,15.12-83.17.44-2.34-1.67-2.64-4.22-3.78-6.59-1.25-2.58-3.3-5-3.3-8V185.06c0-8.25,2.23-13.74,6.25-20.7.62-1.08,1.32-2.25,1.87-3.42a9,9,0,0,1-1.43-2.42h-.51V148.09l.43,0c2.91-8.39,19.49-11.23,26.75-12.13a123.18,123.18,0,0,1,15-.88c9.26,0,19.66,1,28.52,3.8,4.47,1.42,11.31,4.29,13.16,9.23l.49,0v2c0,2.18.26,5.85-.28,7.84A9,9,0,0,1,237.87,161.07Z"/><path class="cls-2" d="M237.63,150.11c0,1.54.17,5.93-.2,7.3a7.46,7.46,0,0,1-2,3.28,34.37,34.37,0,0,0,2.43,4.71c2.66,4.6,6,10.34,6,19.67V295.34c0,2.1-1.43,3.76-2.41,6.21s-1.42,5-3.2,6.24c-19.79,14-60.65,14.71-80.77.44-1.73-1.22-2.06-3.61-3.12-5.8-1.33-2.76-3.09-4.78-3.09-7.09V185.07c0-9.33,3.32-15.07,6-19.67a32,32,0,0,0,2.5-4.89,6.65,6.65,0,0,1-2.29-4.65v-5.75s0,.1,0,.15c.59-8.31,18.35-11.39,25.35-12.26a121.24,121.24,0,0,1,14.73-.87c10.86,0,20.72,1.42,27.89,3.7s11.91,5.67,12.19,9.5c0-.07,0-.15,0-.22ZM159.05,183.4l.26,117.36a37.46,37.46,0,0,0,8.14,3.93c16.84,5.78,36.94,7,53.91,1.17a48.42,48.42,0,0,0,7.81-3.38l1-117.08a.25.25,0,0,1,.17-.24l1.26-.38a.26.26,0,0,1,.33.24L231,301.36a23.18,23.18,0,0,0,2.45-1.81l.92-115.5a.26.26,0,0,1,.17-.24l3-.92a.25.25,0,0,1,.22,0,.24.24,0,0,1,.1.21L237,295.34a9.62,9.62,0,0,0,1.16-4.43l1.43-109.8v-.41c-20.7,7.4-50.32,8.84-70.26,2a.25.25,0,0,1,.14-.47c20.94,4.85,49.2,3.41,69.87-3.93a10.34,10.34,0,0,0-.28-1.16c-13.61,4.74-37.07,8.44-56,5a.25.25,0,0,1,.07-.5c14.52,1.64,35.09-.33,49-4.27l-4.21-12.29c-8.82,3.22-21.2,4.15-26.49,4.3-7.71.23-22.23-.38-32.61-3.87l-4.09,5.57a.25.25,0,0,1-.32.07.26.26,0,0,1-.11-.32l2.53-6.05-.81-.33-6.7,9.11a.23.23,0,0,1-.32.07.24.24,0,0,1-.11-.31L163.14,163c-.49-.28-1-.58-1.41-.88a38.48,38.48,0,0,1-2.36,4.49c-2.51,4.34-5.64,9.76-5.64,18.44,0,9.1-.1,99.61,0,110.19a2.36,2.36,0,0,0,.75,1.73c.53.52,1.1,1,1.7,1.53l0-116.12a8.14,8.14,0,0,0,2.85,1Zm77.54-7.49c.61-.22,1.2-.44,1.76-.67-1.16-2.51-2.94-4.64-4.54-7.41a43.19,43.19,0,0,1-2.3-4.35c-.41.21-.83.41-1.26.61l6.34,11.82ZM202,154.44c.12,1.54-1,3.05-2.56,4h1.13c2.18-1.33,2.73-3.12,1.43-4Zm-12.62-1.52c-2,.58-3.77,2.88-3.24,5l1.24.08c-.51-2.05.45-3.56,2-5.1ZM206,150.26l-1,.94c.08,2.87.47,4.82-2.6,7.25,3.54-1.16,4.13-4.49,3.57-8.19Zm-15.1-1.16c-4,.88-7.68,4.17-7.1,7.91.45-2.89,2.91-5.25,6.19-6.74l.91-1.17Zm-1,3.94c1.13.83,3.08.89,5,1.05s3.73.16,5.05.15a9.28,9.28,0,0,0,3.1-.47,2.5,2.5,0,0,0,1.36-2.14c-.1-.67,1.48-1.65,3.15-2.77A14.8,14.8,0,0,0,211,146.2a2.82,2.82,0,0,0,.23-1.68,1.76,1.76,0,0,0-1.22-.79,51,51,0,0,0-14.3-.85,5.28,5.28,0,0,0-3.28,1.22c-1.17,1.59-.09,5.26-2.15,6.59a1.84,1.84,0,0,0-.7.73,1.52,1.52,0,0,0,.34,1.62Zm15.95-6.69a18.12,18.12,0,0,0-10-.35c.19.34,1.65.79,4.3.93,3.1.16,5.08-.22,5.73-.58Zm-10,6.4c.79,0,8.06.35,7.6-1.26-.36-1.28,5.58-4.44,6.89-6.22.28-.39-.07-1.15-1.05-1.29a91.19,91.19,0,0,0-13.47-.75A4.69,4.69,0,0,0,193,144.3c-1.37,1.87-.23,5.31-2.42,6.48-2.73,1.45,4.88,1.94,5.23,2Zm6.61-1.27c.07-1.57,5.88-4.65,7.12-6.34.14-.19-.12-.69-.63-.76a90.11,90.11,0,0,0-13.39-.74c-3.58.06-1.35,5.43-4,7.24,3.1-1.64,1-6.72,4-6.86a90.7,90.7,0,0,1,13.14.73.4.4,0,0,1,.29.51c-1,1.36-7.61,5-6.49,6.22Zm-5.77-3.66a2.31,2.31,0,0,0-2,.91c-.84,1.15-2.29,2.41.12,2.55,1.46.08,6,.64,6.88-.54a15.62,15.62,0,0,0,1-1.44c.43-.75,0-1-.7-1.14a51,51,0,0,0-5.3-.34Zm.3.84a3.09,3.09,0,0,0-2,.51c-1,1.41-1.69,1.68.14,1.78,1.31.08,5.3.59,5.88-.25.77-1.11,1.56-1.59.66-1.69-.65-.08-2-.21-4.64-.35Zm5.05-4.4c-8.07-.45-9.77,2.61-2.18,3,4.31.24,6.69-.63,7.11-1.42s-.91-1.39-4.93-1.61Zm6.52-.09a60.37,60.37,0,0,0-12.79-.71,98.71,98.71,0,0,1,12.79.71Zm-7.24,8.12a45.47,45.47,0,0,1-10.33-.57,28.51,28.51,0,0,0,10.33.57Zm-3.06-3.18c-2.53-.14-3.4,1-.93,1.15s3.41-1,.93-1.15Zm.19-.16c-3.2-.18-4.49,1.68-1.36,1.85s4.49-1.68,1.36-1.85Zm-35.11,1.74c0,2.09,3.64,4.13,9.53,5.73,8.94,2.43,22.11,3.24,34.08,2.28-11.61.42-24.05-.26-32.63-2.51-5.75-1.5-9.35-3.1-9.35-5.07,0-2.23,6.14-4.34,8.82-5.11a80.73,80.73,0,0,1,18.66-2.67c3.56-1.25,14.55-1.2,19.5.5a63.55,63.55,0,0,1,10.5,1.89c5.54,1.46,9,3.29,9.29,5.18a1.62,1.62,0,0,0,0-.22c0-2.09-3.64-4.13-9.53-5.73-13.22-3.59-35.68-3.89-49.85.3-2.75.81-9,3.05-9,5.43Zm69.52,0c0-2.16-3.76-4.26-9.84-5.91-13.65-3.71-36.84-4-51.46.31-2.84.83-9.33,3.14-9.33,5.6,0,2.16,3.76,4.26,9.84,5.91,13.65,3.71,36.84,4,51.46-.3,2.84-.84,9.33-3.15,9.33-5.61ZM230,159.3l-.93.39v1.95l.93-.42V159.3Zm-3.27,1.23c-.83.27-1.69.53-2.57.77v2c.84-.24,1.71-.51,2.57-.81v-2Zm-3.62,1c-11.6,3-26.5,3.16-35.85,2.37-6.31-.53-21-2.47-27.9-8.19a5.52,5.52,0,0,0,1.53,2.37c7.51,7.48,30.25,8.73,40.46,8.42a109.09,109.09,0,0,0,17.58-1.94c1.09-.22,2.56-.54,4.18-1v-2.07Zm-64.25-11.66c0,1.89,1.14,3.3,3.05,4.67-7-6.73,3.58-10.87,8.48-12.32,14.64-4.68,40.5-5,55.76.63a36.92,36.92,0,0,1,7.85,4c-2.45-2.51-7.17-4.27-9.45-5-14.79-4.72-38.71-4.85-54.1-.31-3.51,1-11.37,3.71-11.59,8.29Zm36.2,12c9.4.16,20.15-.72,28.88-3.29,4.27-1.26,16.61-6.22,9.06-11.41,6.08,5.54-5.09,9.53-9,10.69-14.74,5-38.6,4.47-53,0a31.89,31.89,0,0,1-8.11-3.57c5.29,5.73,24.13,7.37,32.15,7.58Zm-36,142.36c10.73,14.78,57.54,9.62,63,6.52.25-.14.15-.61-.12-.53-19.08,5.78-45.11,1-62.61-6.26-.14-.06-.29.08-.29.27Zm47.44-164.09.06,1.14a.24.24,0,0,0,.24.24c9.28.21,17.76,2,25.16,6.17-2-3.71-14.45-7.05-25.19-7.82a.27.27,0,0,0-.27.27Z"/><path class="cls-3" d="M215.37,197.35h0c0-1.88-.17-2.74.67-2.87,1-.17,1.08.7.76,5.37a.73.73,0,0,1-1.43-.07A21.86,21.86,0,0,1,215.37,197.35Z"/><path class="cls-3" d="M221.05,270.57c.43-1.59,1.73-1.29,1.61.24-.07.83-.21,1.34-.89,1.34S220.88,271.21,221.05,270.57Z"/><path class="cls-3" d="M222.85,287.12h-.36c0,10.53.24,10.27-.74,10.44-1.21.22-.92-.58-.48-19.19,0-1.06.34-1.61.87-1.52,1,.16.71.94.71,1.57Z"/><path class="cls-3" d="M216.18,238.19c-1.34,0-.81-.29-1-24.23,0-7.36-.74-8,.19-8.27,1.09-.3,1.24,1.16,1.26,2.3C217.3,240.26,217.08,238.19,216.18,238.19Z"/><path class="cls-3" d="M224.12,230.86c0,1.58-.6,5.6-.67,5.92-.12.54-.17,1.23-.94,1.11-1.4-.22-.09-1.75.15-10.29s.3-23.6.34-25.33c0-1.09.34-2.87,1.34-2.41C225,200.16,224.13,230.55,224.12,230.86Z"/><path class="cls-3" d="M225.08,192.73h0c0,2.26.21,3.34-.79,3.39s-.85-.75-.75-5.63c0-1.21,1.58-1.42,1.56.12Z"/><path class="cls-4" d="M223,202.27c0,1.73-.1,16.77-.34,25.33s-1.55,10.07-.15,10.29c.77.12.82-.57.94-1.11.07-.32.63-4.34.67-5.92,0-.31.87-30.7.22-31C223.34,199.4,223,201.18,223,202.27Z"/><path class="cls-4" d="M215.4,205.69c-.93.25-.23.91-.19,8.27.16,23.94-.37,24.25,1,24.23.9,0,1.12,2.07.48-30.2C216.64,206.85,216.49,205.39,215.4,205.69Z"/><path class="cls-4" d="M222.14,276.85c-.53-.09-.85.46-.87,1.52-.44,18.61-.73,19.41.48,19.19,1-.17.74.09.74-10.44h.36v-8.7C222.85,277.79,223.1,277,222.14,276.85Z"/><path class="cls-4" d="M223.52,190.49c-.1,4.88-.21,5.66.75,5.63s.79-1.13.79-3.39h0v-2.12C225.1,189.07,223.54,189.28,223.52,190.49Z"/><path class="cls-4" d="M216.09,200.42a1,1,0,0,0,.74-.57c.32-4.67.25-5.54-.76-5.37-.84.13-.67,1-.67,2.87h0a21.86,21.86,0,0,0,0,2.43A1,1,0,0,0,216.09,200.42Z"/><path class="cls-4" d="M221.77,272.15c.68,0,.82-.51.89-1.34.12-1.53-1.18-1.83-1.61-.24C220.88,271.21,221.12,272.15,221.77,272.15Z"/><path class="cls-1" d="M348.22,161.07c.53,1.12,1.2,2.24,1.81,3.29,4,7,6.25,12.45,6.25,20.7V295.34c0,2.7-1.61,4.6-2.56,7-1,2.55-1.52,5.47-3.93,7.17-20.65,14.6-62.45,15.12-83.16.44-2.35-1.67-2.64-4.22-3.79-6.59-1.25-2.58-3.3-5-3.3-8V185.06c0-8.25,2.23-13.74,6.25-20.7.62-1.08,1.32-2.25,1.87-3.42a9.3,9.3,0,0,1-1.43-2.42h-.51V148.09l.43,0c2.91-8.39,19.49-11.23,26.76-12.13a122.9,122.9,0,0,1,15-.88c9.26,0,19.66,1,28.52,3.8,4.47,1.42,11.31,4.29,13.17,9.23l.48,0v2c0,2.18.26,5.85-.28,7.84A9,9,0,0,1,348.22,161.07Z"/><path class="cls-2" d="M348,150.11c0,1.54.16,5.93-.21,7.3a7.46,7.46,0,0,1-2,3.28,34.37,34.37,0,0,0,2.43,4.71c2.66,4.6,6,10.34,6,19.67V295.34c0,2.1-1.43,3.76-2.41,6.21s-1.42,5-3.2,6.24c-19.79,14-60.65,14.71-80.76.44-1.73-1.22-2.07-3.61-3.12-5.8-1.34-2.76-3.1-4.78-3.1-7.09V185.07c0-9.33,3.32-15.07,6-19.67a31.88,31.88,0,0,0,2.49-4.89,6.6,6.6,0,0,1-2.28-4.65v.58s0-5.75,0-5.75,0-.58,0-.58a.76.76,0,0,0,0,.15c.59-8.31,18.35-11.39,25.35-12.26a121.37,121.37,0,0,1,14.73-.87c10.86,0,20.73,1.42,27.89,3.7,7.31,2.33,11.91,5.67,12.19,9.5a1.64,1.64,0,0,1,0-.22ZM269.4,183.4l.26,117.36a37.46,37.46,0,0,0,8.14,3.93c16.84,5.78,36.94,7,53.91,1.17a48.93,48.93,0,0,0,7.82-3.38l1-117.08a.25.25,0,0,1,.17-.24l1.27-.38a.23.23,0,0,1,.22,0,.23.23,0,0,1,.1.2l-.94,116.34a22.19,22.19,0,0,0,2.45-1.81l.92-115.5a.26.26,0,0,1,.18-.24l3-.92a.24.24,0,0,1,.32.24l-.9,112.21a9.73,9.73,0,0,0,1.15-4.43L350,181.11c0-.14,0-.27,0-.41-20.7,7.4-50.32,8.84-70.26,2a.25.25,0,0,1,.14-.47c20.94,4.85,49.21,3.41,69.88-3.93-.08-.4-.18-.79-.29-1.16-13.6,4.74-37.06,8.44-56,5a.25.25,0,0,1,.07-.5c14.52,1.64,35.09-.33,49-4.27l-4.21-12.29c-8.82,3.22-21.21,4.15-26.5,4.3-7.71.23-22.23-.38-32.61-3.87l-4.08,5.57a.26.26,0,0,1-.33.07.26.26,0,0,1-.11-.32l2.53-6.05-.81-.33-6.7,9.11a.23.23,0,0,1-.32.07.24.24,0,0,1-.11-.31L273.49,163c-.49-.28-1-.58-1.4-.88a40.23,40.23,0,0,1-2.37,4.49c-2.51,4.34-5.63,9.76-5.63,18.44,0,9.1-.1,99.61,0,110.19a2.36,2.36,0,0,0,.75,1.73c.53.52,1.1,1,1.7,1.53V182.4a8.16,8.16,0,0,0,2.84,1Zm77.54-7.49c.61-.22,1.2-.44,1.76-.67-1.15-2.51-2.94-4.64-4.53-7.41a41.41,41.41,0,0,1-2.31-4.35c-.41.21-.82.41-1.26.61l6.34,11.82Zm-34.55-21.47c.13,1.54-1,3.05-2.55,4H311c2.18-1.33,2.73-3.12,1.43-4Zm-12.62-1.52c-2,.58-3.77,2.88-3.24,5l1.24.08c-.5-2.05.45-3.56,2-5.1Zm16.57-2.66-1,.94c.08,2.87.48,4.82-2.6,7.25,3.54-1.16,4.13-4.49,3.57-8.19Zm-15.1-1.16c-4,.88-7.68,4.17-7.1,7.91.45-2.89,2.91-5.25,6.19-6.74l.91-1.17Zm-1,3.94c1.13.83,3.08.89,5,1.05s3.73.16,5.05.15a9.37,9.37,0,0,0,3.11-.47,2.5,2.5,0,0,0,1.36-2.14c-.11-.67,1.47-1.65,3.14-2.77a14.57,14.57,0,0,0,3.38-2.66,2.82,2.82,0,0,0,.23-1.68,1.76,1.76,0,0,0-1.22-.79,51,51,0,0,0-14.3-.85,5.28,5.28,0,0,0-3.28,1.22c-1.17,1.59-.09,5.26-2.14,6.59a1.87,1.87,0,0,0-.71.73,1.55,1.55,0,0,0,.34,1.62Zm16-6.69a18.13,18.13,0,0,0-10-.35c.18.34,1.64.79,4.29.93,3.11.16,5.09-.22,5.74-.58Zm-10,6.4c.79,0,8.06.35,7.61-1.26-.37-1.28,5.57-4.44,6.88-6.22.28-.39-.07-1.15-1.05-1.29a91.19,91.19,0,0,0-13.47-.75,4.63,4.63,0,0,0-2.77,1.07c-1.37,1.87-.24,5.31-2.43,6.48-2.73,1.45,4.88,1.94,5.23,2Zm6.61-1.27c.07-1.57,5.89-4.65,7.12-6.34.15-.19-.12-.69-.62-.76a90.32,90.32,0,0,0-13.4-.74c-3.58.06-1.35,5.43-4,7.24,3.1-1.64,1-6.72,4-6.86a90.7,90.7,0,0,1,13.14.73.4.4,0,0,1,.29.51c-1,1.36-7.61,5-6.49,6.22ZM307,147.82a2.3,2.3,0,0,0-2,.91c-.84,1.15-2.3,2.41.11,2.55,1.47.08,6,.64,6.88-.54a13.9,13.9,0,0,0,1-1.44c.43-.75,0-1-.69-1.14a51.41,51.41,0,0,0-5.3-.34Zm.3.84a3.11,3.11,0,0,0-2,.51c-1,1.41-1.69,1.68.15,1.78,1.3.08,5.29.59,5.88-.25.76-1.11,1.55-1.59.65-1.69-.65-.08-2-.21-4.63-.35Zm5-4.4c-8.07-.45-9.77,2.61-2.18,3,4.31.24,6.69-.63,7.11-1.42s-.9-1.39-4.93-1.61Zm6.52-.09a60.37,60.37,0,0,0-12.79-.71,98.71,98.71,0,0,1,12.79.71Zm-7.24,8.12a45.47,45.47,0,0,1-10.33-.57,28.51,28.51,0,0,0,10.33.57Zm-3.05-3.18c-2.54-.14-3.41,1-.94,1.15s3.42-1,.94-1.15Zm.18-.16c-3.2-.18-4.49,1.68-1.36,1.85s4.49-1.68,1.36-1.85Zm-35.11,1.74c0,2.09,3.64,4.13,9.53,5.73,9,2.43,22.11,3.24,34.08,2.28-11.6.42-24.05-.26-32.63-2.51-5.75-1.5-9.34-3.1-9.34-5.07,0-2.23,6.13-4.34,8.81-5.11a80.81,80.81,0,0,1,18.66-2.67c3.56-1.25,14.55-1.2,19.5.5a63.36,63.36,0,0,1,10.5,1.89c5.54,1.46,9,3.29,9.29,5.18a1.64,1.64,0,0,0,0-.22c0-2.09-3.65-4.13-9.54-5.73-13.22-3.59-35.68-3.89-49.85.3-2.74.81-9,3.05-9,5.43Zm69.52,0c0-2.16-3.76-4.26-9.84-5.91-13.65-3.71-36.84-4-51.46.31-2.84.83-9.33,3.14-9.33,5.6,0,2.16,3.76,4.26,9.84,5.91,13.66,3.71,36.84,4,51.47-.3,2.83-.84,9.32-3.15,9.32-5.61Zm-2.86,8.61-.93.39v1.95l.93-.42V159.3Zm-3.27,1.23c-.83.27-1.69.53-2.57.77v2c.84-.24,1.71-.51,2.57-.81v-2Zm-3.62,1c-11.6,3-26.5,3.16-35.85,2.37-6.3-.53-21-2.47-27.9-8.19a5.52,5.52,0,0,0,1.53,2.37c7.51,7.48,30.25,8.73,40.46,8.42a109.09,109.09,0,0,0,17.58-1.94c1.1-.22,2.56-.54,4.18-1v-2.07Zm-64.24-11.66c0,1.89,1.13,3.3,3,4.67-6.95-6.73,3.59-10.87,8.48-12.32,14.64-4.68,40.5-5,55.76.63a36.92,36.92,0,0,1,7.85,4c-2.44-2.51-7.17-4.27-9.45-5-14.79-4.72-38.71-4.85-54.1-.31-3.51,1-11.37,3.71-11.58,8.29Zm36.19,12c9.4.16,20.15-.72,28.89-3.29,4.27-1.26,16.61-6.22,9-11.41,6.08,5.54-5.08,9.53-9,10.69-14.74,5-38.6,4.47-53,0a32,32,0,0,1-8.11-3.57c5.29,5.73,24.13,7.37,32.15,7.58Zm-36,142.36c10.73,14.78,57.54,9.62,63,6.52.26-.14.15-.61-.12-.53-19.08,5.78-45.11,1-62.6-6.26-.15-.06-.3.08-.3.27Zm47.44-164.09.06,1.14a.24.24,0,0,0,.24.24c9.28.21,17.76,2,25.17,6.17-2-3.71-14.46-7.05-25.2-7.82a.24.24,0,0,0-.19.08A.26.26,0,0,0,316.84,140.16Z"/><path class="cls-3" d="M325.72,197.35h0c0-1.88-.18-2.74.67-2.87s1.07.7.75,5.37a1,1,0,0,1-.74.57,1,1,0,0,1-.69-.64C325.67,199,325.72,198.16,325.72,197.35Z"/><path class="cls-3" d="M331.41,270.57c.42-1.59,1.72-1.29,1.6.24-.06.83-.2,1.34-.88,1.34S331.24,271.21,331.41,270.57Z"/><path class="cls-3" d="M333.2,287.12h-.35c0,10.53.24,10.27-.75,10.44-1.2.22-.92-.58-.48-19.19,0-1.06.34-1.61.87-1.52,1,.16.71.94.71,1.57Z"/><path class="cls-3" d="M326.53,238.19c-1.34,0-.8-.29-1-24.23-.05-7.36-.75-8,.18-8.27,1.09-.3,1.24,1.16,1.26,2.3C327.65,240.26,327.43,238.19,326.53,238.19Z"/><path class="cls-3" d="M334.48,230.86c-.05,1.58-.61,5.6-.68,5.92-.12.54-.17,1.23-.94,1.11-1.4-.22-.09-1.75.15-10.29s.3-23.6.34-25.33c0-1.09.34-2.87,1.34-2.41C335.34,200.16,334.48,230.55,334.48,230.86Z"/><path class="cls-3" d="M335.43,192.73h0c0,2.26.22,3.34-.78,3.39s-.86-.75-.76-5.63c0-1.21,1.58-1.42,1.57.12C335.43,191.32,335.43,192,335.43,192.73Z"/><path class="cls-4" d="M333.35,202.27c0,1.73-.09,16.77-.34,25.33s-1.55,10.07-.15,10.29c.77.12.82-.57.94-1.11.07-.32.63-4.34.68-5.92,0-.31.86-30.7.21-31C333.69,199.4,333.37,201.18,333.35,202.27Z"/><path class="cls-4" d="M325.75,205.69c-.93.25-.23.91-.18,8.27.16,23.94-.38,24.25,1,24.23.9,0,1.12,2.07.48-30.2C327,206.85,326.84,205.39,325.75,205.69Z"/><path class="cls-4" d="M332.49,276.85c-.53-.09-.85.46-.87,1.52-.44,18.61-.72,19.41.48,19.19,1-.17.75.09.75-10.44h.35v-8.7C333.2,277.79,333.45,277,332.49,276.85Z"/><path class="cls-4" d="M333.87,190.49c-.1,4.88-.21,5.66.76,5.63s.78-1.13.78-3.39h0c0-.7,0-1.41,0-2.12C335.45,189.07,333.89,189.28,333.87,190.49Z"/><path class="cls-4" d="M326.44,200.42a1,1,0,0,0,.74-.57c.32-4.67.25-5.54-.75-5.37s-.67,1-.67,2.87h0c0,.81-.05,1.63,0,2.43A1,1,0,0,0,326.44,200.42Z"/><path class="cls-4" d="M332.13,272.15c.68,0,.82-.51.88-1.34.12-1.53-1.18-1.83-1.6-.24C331.24,271.21,331.47,272.15,332.13,272.15Z"/><path class="cls-1" d="M458.57,161.07c.54,1.12,1.21,2.24,1.81,3.29,4,7,6.25,12.45,6.25,20.7V295.34c0,2.7-1.61,4.6-2.56,7-1,2.55-1.52,5.47-3.93,7.17-20.65,14.6-62.45,15.12-83.16.44-2.35-1.67-2.64-4.22-3.79-6.59-1.25-2.58-3.3-5-3.3-8V185.06c0-8.25,2.23-13.74,6.25-20.7.62-1.08,1.33-2.25,1.87-3.42a9.3,9.3,0,0,1-1.43-2.42h-.51V148.09l.44,0c2.9-8.39,19.49-11.23,26.75-12.13a122.9,122.9,0,0,1,15-.88c9.26,0,19.67,1,28.52,3.8,4.47,1.42,11.31,4.29,13.17,9.23l.48,0v2c0,2.18.26,5.85-.28,7.84A9,9,0,0,1,458.57,161.07Z"/><path class="cls-2" d="M458.34,150.11c0,1.54.16,5.93-.21,7.3a7.53,7.53,0,0,1-2,3.28,34.22,34.22,0,0,0,2.42,4.71c2.66,4.6,6,10.34,6,19.67V295.34c0,2.1-1.44,3.76-2.42,6.21s-1.42,5-3.2,6.24c-19.79,14-60.65,14.71-80.76.44-1.73-1.22-2.07-3.61-3.12-5.8-1.34-2.76-3.09-4.78-3.09-7.09V185.07c0-9.33,3.31-15.07,6-19.67a31.88,31.88,0,0,0,2.49-4.89,6.64,6.64,0,0,1-2.28-4.65v.58s0-5.75,0-5.75,0-.58,0-.58,0,.1,0,.15c.59-8.31,18.36-11.39,25.35-12.26a121.37,121.37,0,0,1,14.73-.87c10.86,0,20.73,1.42,27.89,3.7,7.31,2.33,11.92,5.67,12.19,9.5,0-.07,0-.15,0-.22ZM379.75,183.4,380,300.76a37.55,37.55,0,0,0,8.15,3.93c16.83,5.78,36.93,7,53.91,1.17a49.21,49.21,0,0,0,7.81-3.38l1-117.08a.25.25,0,0,1,.18-.24l1.26-.38a.22.22,0,0,1,.22,0,.21.21,0,0,1,.1.2l-.94,116.34a21.29,21.29,0,0,0,2.45-1.81l.92-115.5a.26.26,0,0,1,.18-.24l3-.92a.24.24,0,0,1,.22,0,.22.22,0,0,1,.1.21l-.9,112.21a9.61,9.61,0,0,0,1.15-4.43l1.44-109.8v-.41c-20.7,7.4-50.33,8.84-70.27,2a.25.25,0,0,1,.14-.47c20.94,4.85,49.21,3.41,69.88-3.93a10.35,10.35,0,0,0-.29-1.16c-13.6,4.74-37.06,8.44-56,5a.26.26,0,0,1-.2-.27.25.25,0,0,1,.27-.23c14.53,1.64,35.09-.33,49-4.27l-4.21-12.29c-8.82,3.22-21.2,4.15-26.49,4.3-7.72.23-22.24-.38-32.61-3.87l-4.09,5.57a.26.26,0,0,1-.33.07.25.25,0,0,1-.1-.32l2.52-6.05-.81-.33L380,173.53a.25.25,0,0,1-.43-.24L383.85,163c-.5-.28-1-.58-1.41-.88a40.23,40.23,0,0,1-2.37,4.49c-2.5,4.34-5.63,9.76-5.63,18.44,0,9.1-.1,99.61,0,110.19a2.36,2.36,0,0,0,.75,1.73c.53.52,1.1,1,1.7,1.53V182.4a8.16,8.16,0,0,0,2.84,1Zm77.54-7.49c.61-.22,1.2-.44,1.77-.67-1.16-2.51-2.95-4.64-4.54-7.41a41.41,41.41,0,0,1-2.31-4.35c-.4.21-.82.41-1.25.61l6.33,11.82Zm-34.54-21.47c.12,1.54-1,3.05-2.56,4h1.12c2.19-1.33,2.73-3.12,1.44-4Zm-12.62-1.52c-2,.58-3.78,2.88-3.25,5l1.24.08c-.5-2.05.46-3.56,2-5.1Zm16.56-2.66-1,.94c.09,2.87.48,4.82-2.59,7.25,3.54-1.16,4.12-4.49,3.56-8.19Zm-15.1-1.16c-4,.88-7.68,4.17-7.09,7.91.44-2.89,2.9-5.25,6.18-6.74l.91-1.17Zm-1,3.94c1.14.83,3.08.89,5,1.05s3.73.16,5.05.15a9.33,9.33,0,0,0,3.11-.47,2.5,2.5,0,0,0,1.36-2.14c-.11-.67,1.48-1.65,3.14-2.77a14.35,14.35,0,0,0,3.38-2.66,2.82,2.82,0,0,0,.23-1.68,1.73,1.73,0,0,0-1.21-.79,51.1,51.1,0,0,0-14.31-.85,5.3,5.3,0,0,0-3.28,1.22c-1.17,1.59-.08,5.26-2.14,6.59a1.87,1.87,0,0,0-.71.73,1.55,1.55,0,0,0,.34,1.62Zm16-6.69a18.13,18.13,0,0,0-10-.35c.18.34,1.64.79,4.29.93,3.11.16,5.09-.22,5.74-.58Zm-10,6.4c.78,0,8.05.35,7.6-1.26-.37-1.28,5.57-4.44,6.88-6.22.29-.39-.07-1.15-1-1.29a91.19,91.19,0,0,0-13.47-.75,4.63,4.63,0,0,0-2.77,1.07c-1.37,1.87-.24,5.31-2.43,6.48-2.73,1.45,4.88,1.94,5.24,2Zm6.6-1.27c.07-1.57,5.89-4.65,7.13-6.34.14-.19-.13-.69-.63-.76a90.18,90.18,0,0,0-13.39-.74c-3.58.06-1.36,5.43-4,7.24,3.1-1.64,1-6.72,4-6.86a90.85,90.85,0,0,1,13.14.73.4.4,0,0,1,.28.51c-1,1.36-7.6,5-6.49,6.22Zm-5.76-3.66a2.3,2.3,0,0,0-2,.91c-.84,1.15-2.29,2.41.11,2.55,1.47.08,6,.64,6.88-.54a14.24,14.24,0,0,0,1-1.44c.42-.75,0-1-.7-1.14a51.19,51.19,0,0,0-5.3-.34Zm.3.84a3.14,3.14,0,0,0-2.05.51c-1,1.41-1.69,1.68.15,1.78,1.3.08,5.3.59,5.88-.25.76-1.11,1.55-1.59.66-1.69-.66-.08-2-.21-4.64-.35Zm5-4.4c-8.06-.45-9.77,2.61-2.17,3,4.3.24,6.69-.63,7.11-1.42s-.91-1.39-4.94-1.61Zm6.52-.09a60.37,60.37,0,0,0-12.79-.71,98.71,98.71,0,0,1,12.79.71ZM422,152.29a45.56,45.56,0,0,1-10.34-.57,28.55,28.55,0,0,0,10.34.57ZM419,149.11c-2.54-.14-3.41,1-.93,1.15s3.41-1,.93-1.15Zm.18-.16c-3.19-.18-4.49,1.68-1.36,1.85s4.49-1.68,1.36-1.85ZM384,150.69c0,2.09,3.65,4.13,9.54,5.73,8.94,2.43,22.1,3.24,34.07,2.28-11.6.42-24.05-.26-32.63-2.51-5.75-1.5-9.34-3.1-9.34-5.07,0-2.23,6.13-4.34,8.82-5.11a80.73,80.73,0,0,1,18.66-2.67c3.56-1.25,14.54-1.2,19.49.5a63.36,63.36,0,0,1,10.5,1.89c5.54,1.46,9,3.29,9.29,5.18a1.64,1.64,0,0,0,0-.22c0-2.09-3.64-4.13-9.53-5.73-13.23-3.59-35.69-3.89-49.85.3-2.75.81-9,3.05-9,5.43Zm69.53,0c0-2.16-3.77-4.26-9.84-5.91-13.66-3.71-36.84-4-51.47.31-2.83.83-9.33,3.14-9.33,5.6,0,2.16,3.77,4.26,9.84,5.91,13.66,3.71,36.84,4,51.47-.3,2.84-.84,9.33-3.15,9.33-5.61Zm-2.87,8.61-.93.39v1.95l.93-.42V159.3Zm-3.27,1.23c-.83.27-1.69.53-2.56.77v2c.84-.24,1.7-.51,2.56-.81v-2Zm-3.62,1c-11.6,3-26.49,3.16-35.85,2.37-6.3-.53-21-2.47-27.89-8.19a5.49,5.49,0,0,0,1.52,2.37c7.51,7.48,30.25,8.73,40.46,8.42a109,109,0,0,0,17.58-1.94c1.1-.22,2.57-.54,4.18-1v-2.07Zm-64.24-11.66c0,1.89,1.14,3.3,3.05,4.67-7-6.73,3.58-10.87,8.48-12.32,14.63-4.68,40.49-5,55.75.63a36.92,36.92,0,0,1,7.85,4c-2.44-2.51-7.17-4.27-9.44-5-14.79-4.72-38.72-4.85-54.11-.31-3.51,1-11.36,3.71-11.58,8.29Zm36.19,12c9.4.16,20.15-.72,28.89-3.29,4.27-1.26,16.61-6.22,9.06-11.41,6.08,5.54-5.09,9.53-9,10.69-14.74,5-38.59,4.47-53,0a31.94,31.94,0,0,1-8.12-3.57c5.29,5.73,24.14,7.37,32.15,7.58Zm-36,142.36c10.73,14.78,57.54,9.62,63,6.52.25-.14.14-.61-.13-.53-19.08,5.78-45.11,1-62.6-6.26-.14-.06-.3.08-.3.27ZM427.2,140.16l.05,1.14a.25.25,0,0,0,.25.24c9.27.21,17.75,2,25.16,6.17-2-3.71-14.46-7.05-25.2-7.82a.24.24,0,0,0-.19.08A.22.22,0,0,0,427.2,140.16Z"/><path class="cls-3" d="M436.07,197.35h0c0-1.88-.18-2.74.67-2.87,1-.17,1.08.7.75,5.37a.72.72,0,0,1-1.42-.07A21.86,21.86,0,0,1,436.07,197.35Z"/><path class="cls-3" d="M441.76,270.57c.42-1.59,1.73-1.29,1.61.24-.07.83-.21,1.34-.89,1.34S441.59,271.21,441.76,270.57Z"/><path class="cls-3" d="M443.55,287.12h-.35c0,10.53.24,10.27-.75,10.44-1.2.22-.91-.58-.48-19.19,0-1.06.34-1.61.87-1.52,1,.16.71.94.71,1.57Z"/><path class="cls-3" d="M436.89,238.19c-1.35,0-.81-.29-1-24.23-.05-7.36-.75-8,.19-8.27s1.23,1.16,1.25,2.3C438,240.26,437.78,238.19,436.89,238.19Z"/><path class="cls-3" d="M444.83,230.86c-.05,1.58-.61,5.6-.67,5.92-.12.54-.17,1.23-1,1.11-1.4-.22-.09-1.75.15-10.29s.31-23.6.34-25.33c0-1.09.34-2.87,1.34-2.41C445.69,200.16,444.84,230.55,444.83,230.86Z"/><path class="cls-3" d="M445.79,192.73h0c0,2.26.22,3.34-.78,3.39s-.85-.75-.76-5.63c0-1.21,1.58-1.42,1.57.12C445.78,191.32,445.79,192,445.79,192.73Z"/><path class="cls-4" d="M443.7,202.27c0,1.73-.09,16.77-.34,25.33s-1.55,10.07-.15,10.29c.78.12.83-.57,1-1.11.06-.32.62-4.34.67-5.92,0-.31.86-30.7.21-31C444,199.4,443.73,201.18,443.7,202.27Z"/><path class="cls-4" d="M436.11,205.69c-.94.25-.24.91-.19,8.27.16,23.94-.38,24.25,1,24.23.89,0,1.11,2.07.47-30.2C437.34,206.85,437.19,205.39,436.11,205.69Z"/><path class="cls-4" d="M442.84,276.85c-.53-.09-.84.46-.87,1.52-.43,18.61-.72,19.41.48,19.19,1-.17.75.09.75-10.44h.35v-8.7C443.55,277.79,443.8,277,442.84,276.85Z"/><path class="cls-4" d="M444.22,190.49c-.09,4.88-.21,5.66.76,5.63s.78-1.13.78-3.39h0c0-.7,0-1.41,0-2.12C445.8,189.07,444.24,189.28,444.22,190.49Z"/><path class="cls-4" d="M436.79,200.42a1,1,0,0,0,.74-.57c.33-4.67.25-5.54-.75-5.37-.85.13-.67,1-.67,2.87h0a21.86,21.86,0,0,0,0,2.43A1,1,0,0,0,436.79,200.42Z"/><path class="cls-4" d="M442.48,272.15c.68,0,.82-.51.89-1.34.12-1.53-1.19-1.83-1.61-.24C441.59,271.21,441.82,272.15,442.48,272.15Z"/><path class="cls-1" d="M388.22,216.24c.54,1.13,1.21,2.25,1.81,3.3,4,7,6.25,12.45,6.25,20.7V350.51c0,2.71-1.61,4.6-2.56,7-1,2.56-1.52,5.47-3.93,7.17-20.64,14.6-62.45,15.13-83.16.44-2.35-1.66-2.64-4.21-3.79-6.59-1.25-2.57-3.3-5-3.3-8V240.24c0-8.25,2.23-13.75,6.25-20.7.62-1.08,1.33-2.25,1.87-3.43a8.84,8.84,0,0,1-1.42-2.42h-.52V203.26h.44c2.9-8.4,19.49-11.24,26.75-12.13a122.9,122.9,0,0,1,15-.88c9.26,0,19.67,1,28.52,3.79,4.47,1.43,11.31,4.3,13.17,9.24h.48v2c0,2.18.26,5.86-.28,7.85A8.93,8.93,0,0,1,388.22,216.24Z"/><path class="cls-2" d="M388,205.28c0,1.55.16,5.94-.21,7.31a7.64,7.64,0,0,1-2,3.28,33.59,33.59,0,0,0,2.42,4.7c2.66,4.6,6,10.34,6,19.67V350.51c0,2.11-1.44,3.76-2.42,6.22s-1.42,5-3.19,6.24c-19.8,14-60.66,14.7-80.77.44-1.73-1.23-2.07-3.62-3.12-5.8-1.34-2.77-3.09-4.78-3.09-7.1V240.24c0-9.33,3.31-15.07,6-19.67a31.88,31.88,0,0,0,2.49-4.89A6.62,6.62,0,0,1,307.8,211v.59s0-5.75,0-5.75,0-.59,0-.59,0,.11,0,.16c.59-8.32,18.36-11.4,25.35-12.26a121.37,121.37,0,0,1,14.73-.87c10.87,0,20.73,1.41,27.89,3.7,7.31,2.33,11.92,5.67,12.19,9.49,0-.07,0-.14,0-.22Zm-78.59,33.3.26,117.36a38,38,0,0,0,8.15,3.93c16.83,5.77,36.93,7,53.91,1.17a49.21,49.21,0,0,0,7.81-3.39l1-117.08a.23.23,0,0,1,.18-.23L382,240a.25.25,0,0,1,.22,0,.23.23,0,0,1,.1.2l-.94,116.35a22.53,22.53,0,0,0,2.45-1.81l.92-115.5a.25.25,0,0,1,.18-.24l3-.93a.27.27,0,0,1,.23,0,.22.22,0,0,1,.09.2l-.9,112.21a9.57,9.57,0,0,0,1.15-4.43L390,236.29v-.41c-20.7,7.4-50.33,8.83-70.27,2a.25.25,0,0,1-.16-.3.26.26,0,0,1,.3-.18c20.94,4.85,49.21,3.42,69.88-3.92a10.35,10.35,0,0,0-.29-1.16c-13.6,4.74-37.06,8.43-56,5a.24.24,0,0,1-.2-.27.24.24,0,0,1,.27-.22c14.53,1.64,35.09-.33,49-4.27l-4.21-12.29c-8.82,3.21-21.2,4.14-26.49,4.3-7.72.23-22.24-.38-32.61-3.88l-4.09,5.57a.26.26,0,0,1-.33.07.24.24,0,0,1-.1-.31l2.52-6-.81-.34-6.69,9.12a.26.26,0,0,1-.33.07.24.24,0,0,1-.1-.31l4.29-10.28q-.75-.42-1.41-.87a41.13,41.13,0,0,1-2.37,4.49c-2.5,4.34-5.63,9.75-5.63,18.43,0,9.11-.1,99.62,0,110.19a2.38,2.38,0,0,0,.75,1.74c.53.51,1.1,1,1.71,1.52l0-116.11a8.38,8.38,0,0,0,2.84,1Zm77.54-7.49c.61-.22,1.2-.45,1.77-.67-1.16-2.52-2.94-4.65-4.54-7.41a43.47,43.47,0,0,1-2.31-4.36c-.4.22-.82.42-1.25.61l6.33,11.83ZM352.4,209.62c.12,1.54-1,3-2.56,4H351c2.19-1.33,2.73-3.12,1.44-4Zm-12.62-1.53c-2,.58-3.78,2.89-3.25,5l1.24.08c-.5-2.05.46-3.56,2-5.1Zm16.56-2.66-1,.95c.09,2.87.48,4.82-2.59,7.25,3.54-1.17,4.12-4.5,3.56-8.2Zm-15.1-1.15c-4,.88-7.68,4.17-7.09,7.91.44-2.89,2.9-5.26,6.18-6.75l.91-1.16Zm-1,3.93c1.14.84,3.08.9,5,1.06s3.73.16,5.05.14a9.33,9.33,0,0,0,3.11-.47,2.47,2.47,0,0,0,1.36-2.13c-.11-.68,1.48-1.65,3.14-2.77a14.08,14.08,0,0,0,3.38-2.67,2.7,2.7,0,0,0,.23-1.67,1.74,1.74,0,0,0-1.21-.8,51.48,51.48,0,0,0-14.31-.84,5.37,5.37,0,0,0-3.28,1.21c-1.17,1.6-.08,5.27-2.14,6.59a2,2,0,0,0-.71.74,1.54,1.54,0,0,0,.34,1.61Zm16-6.68a18,18,0,0,0-10-.35c.18.33,1.65.79,4.29.93,3.11.16,5.09-.23,5.74-.58Zm-10,6.39c.78,0,8.05.35,7.6-1.25-.37-1.29,5.57-4.44,6.88-6.23.29-.39-.07-1.15-1.05-1.28a89.79,89.79,0,0,0-13.46-.75,4.63,4.63,0,0,0-2.78,1.07c-1.37,1.87-.23,5.3-2.43,6.48-2.73,1.45,4.88,1.94,5.24,2Zm6.6-1.26c.07-1.57,5.89-4.66,7.13-6.34.14-.2-.13-.69-.63-.76a91.47,91.47,0,0,0-13.39-.75c-3.58.07-1.35,5.44-4,7.24,3.11-1.63,1-6.72,4-6.85a88.1,88.1,0,0,1,13.14.73.4.4,0,0,1,.28.51c-1,1.35-7.6,5-6.49,6.22ZM347,203a2.25,2.25,0,0,0-2,.91c-.84,1.15-2.29,2.41.12,2.54,1.46.08,6,.65,6.87-.53a15.46,15.46,0,0,0,1-1.44c.42-.76,0-1-.7-1.15A49.27,49.27,0,0,0,347,203Zm.3.83a3.14,3.14,0,0,0-2,.52c-1,1.41-1.68,1.68.15,1.78,1.3.07,5.3.59,5.88-.26.76-1.1,1.55-1.59.66-1.69-.66-.07-2-.2-4.64-.35Zm5-4.4c-8.06-.45-9.77,2.62-2.17,3,4.3.23,6.69-.64,7.11-1.42s-.91-1.39-4.94-1.62Zm6.52-.09a61.71,61.71,0,0,0-12.79-.71,102.28,102.28,0,0,1,12.79.71Zm-7.23,8.13a46,46,0,0,1-10.33-.58,28.26,28.26,0,0,0,10.33.58Zm-3.06-3.18c-2.54-.14-3.41,1-.93,1.15s3.41-1,.93-1.15Zm.18-.17c-3.19-.18-4.48,1.69-1.36,1.86s4.49-1.68,1.36-1.86Zm-35.11,1.75c0,2.09,3.65,4.12,9.54,5.72,8.94,2.43,22.1,3.24,34.07,2.29-11.6.42-24.05-.26-32.63-2.51-5.75-1.51-9.34-3.1-9.34-5.07,0-2.24,6.13-4.34,8.82-5.11a80.73,80.73,0,0,1,18.66-2.67c3.56-1.26,14.54-1.2,19.49.5a63.36,63.36,0,0,1,10.5,1.89c5.54,1.45,9,3.28,9.29,5.17a1.49,1.49,0,0,0,0-.21c0-2.09-3.64-4.13-9.53-5.73-13.23-3.59-35.69-3.9-49.85.3-2.75.81-9,3.05-9,5.43Zm69.53,0c0-2.16-3.77-4.26-9.84-5.91-13.66-3.71-36.84-4-51.47.3-2.83.84-9.33,3.15-9.33,5.61,0,2.16,3.77,4.26,9.85,5.91,13.65,3.71,36.83,4,51.46-.31,2.84-.84,9.33-3.15,9.33-5.6Zm-2.87,8.61c-.3.13-.61.26-.93.38v2c.32-.14.63-.28.93-.43v-1.91Zm-3.27,1.22c-.83.28-1.69.53-2.56.77v2.05c.84-.24,1.7-.51,2.56-.8v-2Zm-3.62,1.05c-11.6,2.94-26.49,3.16-35.85,2.37-6.3-.53-21-2.47-27.89-8.19a5.46,5.46,0,0,0,1.52,2.36c7.51,7.48,30.25,8.73,40.46,8.43a109,109,0,0,0,17.58-1.95c1.1-.22,2.57-.53,4.18-1v-2.06Zm-64.24-11.66c0,1.89,1.14,3.3,3.05,4.67-7-6.73,3.58-10.88,8.48-12.33,14.63-4.67,40.49-5,55.75.64a37.29,37.29,0,0,1,7.85,4c-2.44-2.51-7.17-4.26-9.44-5-14.79-4.71-38.72-4.84-54.11-.31-3.51,1-11.36,3.72-11.58,8.3Zm36.19,12c9.4.15,20.15-.72,28.89-3.3,4.27-1.25,16.61-6.22,9.06-11.4,6.08,5.54-5.09,9.52-9,10.68-14.75,5-38.6,4.47-53,0a31.67,31.67,0,0,1-8.11-3.56c5.28,5.72,24.13,7.37,32.14,7.58Zm-36,142.36c10.73,14.78,57.54,9.62,63,6.52.25-.14.14-.62-.13-.53-19.08,5.77-45.11,1-62.6-6.26-.14-.06-.3.07-.3.27Zm47.45-164.1,0,1.15a.25.25,0,0,0,.25.24c9.27.21,17.75,2,25.16,6.16-2-3.71-14.46-7-25.2-7.81a.28.28,0,0,0-.19.07A.23.23,0,0,0,356.85,195.33Z"/><path class="cls-3" d="M365.72,252.52h0c0-1.88-.18-2.73.67-2.87s1.08.7.75,5.38a.93.93,0,0,1-.74.56.92.92,0,0,1-.68-.64A21.86,21.86,0,0,1,365.72,252.52Z"/><path class="cls-3" d="M371.41,325.75c.42-1.59,1.73-1.3,1.61.23-.07.83-.21,1.35-.89,1.35S371.24,326.39,371.41,325.75Z"/><path class="cls-3" d="M373.2,342.3h-.35c0,10.52.24,10.26-.75,10.44-1.2.21-.91-.58-.48-19.19,0-1.06.34-1.61.87-1.53,1,.16.71,1,.71,1.58Z"/><path class="cls-3" d="M366.54,293.37c-1.35,0-.81-.3-1-24.23-.05-7.36-.75-8,.19-8.28S367,262,367,263.16C367.66,295.43,367.43,293.36,366.54,293.37Z"/><path class="cls-3" d="M374.48,286c-.05,1.58-.6,5.59-.67,5.91-.12.55-.17,1.24-.95,1.12-1.4-.22-.09-1.75.15-10.29s.31-23.61.34-25.34c0-1.09.34-2.87,1.34-2.41C375.34,255.33,374.49,285.72,374.48,286Z"/><path class="cls-3" d="M375.44,247.91h0c0,2.26.22,3.34-.78,3.38s-.85-.74-.76-5.63c0-1.2,1.58-1.42,1.57.12C375.43,246.49,375.44,247.2,375.44,247.91Z"/><path class="cls-4" d="M373.35,257.44c0,1.73-.09,16.77-.34,25.34s-1.55,10.07-.15,10.29c.78.12.83-.57.95-1.12.07-.32.62-4.33.67-5.91,0-.32.86-30.71.21-31C373.69,254.57,373.38,256.35,373.35,257.44Z"/><path class="cls-4" d="M365.76,260.86c-.94.26-.24.92-.19,8.28.16,23.93-.38,24.24,1,24.23.89,0,1.12,2.06.48-30.21C367,262,366.84,260.57,365.76,260.86Z"/><path class="cls-4" d="M372.49,332c-.53-.08-.84.47-.87,1.53-.43,18.61-.72,19.4.48,19.19,1-.18.75.08.75-10.44h.35v-8.7C373.2,333,373.45,332.18,372.49,332Z"/><path class="cls-4" d="M373.87,245.66c-.09,4.89-.21,5.67.76,5.63s.78-1.12.78-3.38h0c0-.71,0-1.42,0-2.13C375.45,244.24,373.89,244.46,373.87,245.66Z"/><path class="cls-4" d="M366.44,255.59a.93.93,0,0,0,.74-.56c.33-4.68.25-5.54-.75-5.38s-.67,1-.67,2.87h0a21.86,21.86,0,0,0,0,2.43A.92.92,0,0,0,366.44,255.59Z"/><path class="cls-4" d="M372.13,327.33c.68,0,.82-.52.89-1.35.12-1.53-1.19-1.82-1.61-.23C371.24,326.39,371.47,327.32,372.13,327.33Z"/><path class="cls-1" d="M97.17,190c.53,1.13,1.2,2.25,1.81,3.3,4,6.95,6.25,12.45,6.25,20.7V324.3c0,2.71-1.61,4.6-2.56,7-1,2.55-1.53,5.46-3.93,7.16-20.65,14.6-62.45,15.13-83.17.44-2.34-1.66-2.63-4.21-3.78-6.58-1.25-2.58-3.3-5-3.3-8V214c0-8.25,2.23-13.75,6.25-20.7.62-1.08,1.32-2.25,1.87-3.43a9.14,9.14,0,0,1-1.43-2.42h-.51V177.05h.43c2.91-8.4,19.49-11.24,26.76-12.13a122.9,122.9,0,0,1,15-.88c9.26,0,19.66,1,28.52,3.79,4.47,1.43,11.31,4.3,13.17,9.24H99v2c0,2.18.26,5.85-.28,7.84A8.93,8.93,0,0,1,97.17,190Z"/><path class="cls-2" d="M96.93,179.07c0,1.55.17,5.94-.2,7.31a7.51,7.51,0,0,1-2,3.28,34.37,34.37,0,0,0,2.43,4.71c2.66,4.6,6,10.34,6,19.66V324.3c0,2.11-1.43,3.76-2.41,6.22s-1.42,5-3.2,6.24c-19.79,14-60.65,14.7-80.77.44-1.73-1.23-2.06-3.62-3.11-5.8-1.34-2.76-3.1-4.78-3.1-7.1V214c0-9.32,3.32-15.06,6-19.66a31.57,31.57,0,0,0,2.5-4.89,6.67,6.67,0,0,1-2.29-4.66v-5.75c0,.06,0,.11,0,.16.59-8.32,18.35-11.4,25.35-12.26a121.24,121.24,0,0,1,14.73-.87c10.86,0,20.73,1.42,27.89,3.7s11.91,5.67,12.19,9.49c0-.07,0-.14,0-.22Zm-78.58,33.3.26,117.36a37.93,37.93,0,0,0,8.14,3.93c16.84,5.78,36.94,7,53.91,1.17a48.43,48.43,0,0,0,7.81-3.39l1-117.08a.24.24,0,0,1,.17-.23l1.26-.39a.27.27,0,0,1,.23,0,.27.27,0,0,1,.1.21l-.94,116.34a23.55,23.55,0,0,0,2.45-1.81L93.7,213a.25.25,0,0,1,.18-.24l3-.93a.24.24,0,0,1,.22,0,.23.23,0,0,1,.1.2l-.9,112.21a9.67,9.67,0,0,0,1.15-4.43l1.43-109.79a2.8,2.8,0,0,0,0-.41c-20.7,7.4-50.32,8.83-70.26,2a.25.25,0,0,1,.14-.48C49.71,216,78,214.58,98.65,207.24c-.08-.4-.18-.79-.29-1.16-13.61,4.74-37.06,8.43-56,5a.24.24,0,0,1-.2-.27.24.24,0,0,1,.27-.22c14.52,1.64,35.09-.33,49-4.27L87.19,194c-8.82,3.22-21.21,4.15-26.5,4.3-7.71.23-22.23-.38-32.61-3.87L24,200a.25.25,0,0,1-.32.07.24.24,0,0,1-.11-.31l2.53-6.05-.81-.34-6.7,9.12a.25.25,0,0,1-.43-.24L22.44,192c-.49-.28-1-.58-1.4-.88a41.13,41.13,0,0,1-2.37,4.49C16.16,199.94,13,205.36,13,214c0,9.11-.1,99.62,0,110.19a2.37,2.37,0,0,0,.75,1.74c.53.52,1.1,1,1.7,1.52V211.37a8.1,8.1,0,0,0,2.84,1Zm77.54-7.49c.61-.22,1.2-.44,1.76-.67-1.16-2.51-2.94-4.64-4.53-7.41a41.51,41.51,0,0,1-2.31-4.36c-.41.22-.83.42-1.26.62l6.34,11.82ZM61.34,183.41c.12,1.54-1,3.05-2.56,4h1.13c2.18-1.33,2.73-3.12,1.43-4Zm-12.62-1.53c-2,.58-3.77,2.89-3.24,5l1.24.08c-.5-2,.45-3.55,2-5.1Zm16.57-2.66-1,.95c.08,2.87.47,4.82-2.6,7.25,3.54-1.16,4.13-4.5,3.57-8.2Zm-15.1-1.15c-4,.88-7.68,4.17-7.1,7.91.45-2.89,2.91-5.26,6.19-6.74l.91-1.17Zm-1,3.93c1.13.84,3.08.9,5,1.06s3.73.16,5,.14a9,9,0,0,0,3.1-.47,2.45,2.45,0,0,0,1.36-2.13c-.1-.68,1.48-1.65,3.15-2.77a14.29,14.29,0,0,0,3.38-2.67,2.78,2.78,0,0,0,.23-1.67,1.72,1.72,0,0,0-1.22-.79,51,51,0,0,0-14.3-.85,5.34,5.34,0,0,0-3.28,1.21c-1.17,1.6-.09,5.27-2.15,6.6a1.91,1.91,0,0,0-.7.73,1.52,1.52,0,0,0,.34,1.61Zm16-6.68a18,18,0,0,0-10-.35c.19.33,1.65.79,4.3.93,3.11.16,5.08-.22,5.73-.58Zm-10,6.39c.79,0,8.06.36,7.61-1.25-.37-1.29,5.57-4.44,6.88-6.23.28-.38-.07-1.15-1-1.28a91.19,91.19,0,0,0-13.47-.75,4.63,4.63,0,0,0-2.77,1.07c-1.38,1.87-.24,5.31-2.43,6.48-2.73,1.45,4.88,1.94,5.23,2Zm6.61-1.26c.07-1.57,5.88-4.66,7.12-6.34.14-.2-.12-.69-.63-.76a91.47,91.47,0,0,0-13.39-.75c-3.58.07-1.35,5.44-4,7.24,3.1-1.63,1-6.72,4-6.85a89.3,89.3,0,0,1,13.14.73.4.4,0,0,1,.29.51c-1,1.35-7.61,5-6.49,6.22ZM56,176.79a2.26,2.26,0,0,0-2,.91c-.85,1.15-2.3,2.41.11,2.54,1.46.09,6,.65,6.88-.53a13.9,13.9,0,0,0,1-1.44c.43-.76,0-1-.7-1.15a51.9,51.9,0,0,0-5.29-.33Zm.29.84a3.09,3.09,0,0,0-2,.51c-1,1.41-1.69,1.68.15,1.78,1.3.07,5.29.59,5.88-.26.76-1.1,1.55-1.58.65-1.69-.65-.07-2-.2-4.64-.34Zm5-4.41c-8.07-.44-9.77,2.62-2.18,3,4.31.24,6.69-.63,7.11-1.42s-.9-1.39-4.93-1.62Zm6.52-.09a61.71,61.71,0,0,0-12.79-.71,102.39,102.39,0,0,1,12.79.71Zm-7.24,8.13a46.05,46.05,0,0,1-10.33-.58,28.28,28.28,0,0,0,10.33.58Zm-3-3.18c-2.54-.14-3.41,1-.94,1.15s3.42-1,.94-1.15Zm.18-.17c-3.2-.17-4.49,1.69-1.36,1.86s4.49-1.68,1.36-1.86Zm-35.11,1.75c0,2.09,3.64,4.12,9.53,5.72,8.94,2.43,22.11,3.24,34.08,2.29-11.61.42-24-.26-32.63-2.51-5.75-1.51-9.35-3.1-9.35-5.07,0-2.24,6.14-4.34,8.82-5.11a80.81,80.81,0,0,1,18.66-2.67c3.56-1.26,14.55-1.2,19.5.5a63.36,63.36,0,0,1,10.5,1.89c5.54,1.45,9,3.28,9.29,5.18a1.8,1.8,0,0,0,0-.22c0-2.09-3.65-4.13-9.54-5.73-13.22-3.59-35.68-3.9-49.85.3-2.75.81-9,3.05-9,5.43Zm69.52,0c0-2.16-3.76-4.26-9.84-5.91-13.65-3.71-36.84-4-51.46.3-2.84.84-9.33,3.15-9.33,5.61,0,2.16,3.76,4.26,9.84,5.91,13.66,3.71,36.84,4,51.47-.31,2.83-.84,9.32-3.14,9.32-5.6Zm-2.86,8.61-.93.38v2c.31-.14.63-.28.93-.43v-1.91ZM86,189.49c-.83.28-1.69.53-2.57.77v2.05c.84-.23,1.71-.5,2.57-.8v-2Zm-3.62,1c-11.6,2.94-26.5,3.16-35.85,2.37-6.31-.53-21-2.47-27.9-8.19a5.52,5.52,0,0,0,1.53,2.37c7.51,7.47,30.25,8.72,40.46,8.42a109.1,109.1,0,0,0,17.58-1.95c1.09-.21,2.56-.53,4.18-1v-2.06ZM18.16,178.88c0,1.89,1.13,3.3,3,4.67-6.95-6.73,3.58-10.87,8.48-12.32,14.64-4.68,40.5-5,55.76.63a37.29,37.29,0,0,1,7.85,4c-2.44-2.51-7.17-4.26-9.45-5-14.79-4.71-38.71-4.84-54.1-.31-3.51,1-11.37,3.72-11.58,8.3Zm36.19,12c9.4.16,20.15-.72,28.89-3.29,4.27-1.26,16.6-6.23,9.05-11.41,6.08,5.54-5.09,9.53-9,10.68-14.74,5-38.6,4.48-53,0a31.82,31.82,0,0,1-8.11-3.56c5.29,5.72,24.13,7.37,32.15,7.58Zm-36,142.36c10.73,14.78,57.54,9.62,63,6.52.25-.14.15-.62-.12-.53-19.08,5.77-45.11,1-62.61-6.26-.14-.06-.29.07-.29.27Zm47.44-164.1.06,1.15a.24.24,0,0,0,.24.24c9.28.21,17.76,2,25.17,6.17-2-3.72-14.46-7.05-25.2-7.82a.26.26,0,0,0-.19.07A.24.24,0,0,0,65.79,169.12Z"/><path class="cls-3" d="M74.67,226.31h0c0-1.88-.18-2.73.67-2.87,1-.16,1.07.71.75,5.38a.93.93,0,0,1-.74.56,1,1,0,0,1-.69-.63C74.62,227.94,74.67,227.13,74.67,226.31Z"/><path class="cls-3" d="M80.35,299.54c.43-1.59,1.73-1.3,1.61.23-.06.83-.21,1.35-.89,1.35S80.18,300.18,80.35,299.54Z"/><path class="cls-3" d="M82.15,316.09h-.36c0,10.53.25,10.27-.74,10.44-1.2.21-.92-.58-.48-19.19,0-1.06.34-1.61.87-1.52,1,.15.71.94.71,1.57Z"/><path class="cls-3" d="M75.48,267.16c-1.34,0-.8-.3-1-24.23,0-7.36-.75-8,.18-8.28,1.09-.29,1.24,1.16,1.26,2.3C76.6,269.22,76.38,267.15,75.48,267.16Z"/><path class="cls-3" d="M83.42,259.83c0,1.58-.6,5.59-.67,5.91-.12.55-.17,1.24-.94,1.12-1.4-.22-.09-1.75.15-10.29s.3-23.6.34-25.34c0-1.09.34-2.87,1.34-2.4C84.29,229.12,83.43,259.51,83.42,259.83Z"/><path class="cls-3" d="M84.38,221.7h0c0,2.26.22,3.34-.78,3.38s-.86-.74-.76-5.63c0-1.2,1.58-1.41,1.56.13Z"/><path class="cls-4" d="M82.3,231.23c0,1.74-.09,16.78-.34,25.34s-1.55,10.07-.15,10.29c.77.12.82-.57.94-1.12.07-.32.63-4.33.67-5.91,0-.32.87-30.71.22-31C82.64,228.36,82.32,230.14,82.3,231.23Z"/><path class="cls-4" d="M74.7,234.65c-.93.26-.23.92-.18,8.28.16,23.93-.38,24.24,1,24.23.9,0,1.12,2.06.48-30.21C75.94,235.81,75.79,234.36,74.7,234.65Z"/><path class="cls-4" d="M81.44,305.82c-.53-.09-.85.46-.87,1.52-.44,18.61-.72,19.4.48,19.19,1-.17.74.09.74-10.44h.36v-8.7C82.15,306.76,82.4,306,81.44,305.82Z"/><path class="cls-4" d="M82.82,219.45c-.1,4.89-.21,5.67.76,5.63s.78-1.12.78-3.38h0v-2.12C84.4,218,82.84,218.25,82.82,219.45Z"/><path class="cls-4" d="M75.39,229.38a.93.93,0,0,0,.74-.56c.32-4.67.25-5.54-.75-5.38-.85.14-.67,1-.67,2.87h0c0,.82,0,1.63,0,2.44A1,1,0,0,0,75.39,229.38Z"/><path class="cls-4" d="M81.07,301.12c.68,0,.83-.52.89-1.35.12-1.53-1.18-1.82-1.61-.23C80.18,300.18,80.42,301.11,81.07,301.12Z"/><path class="cls-4" d="M230.39,30.77a34.79,34.79,0,0,0,3,2.32A35.19,35.19,0,0,0,249,39.3a35.35,35.35,0,0,0,3.76.37S251.41,39,249.38,38s-4.75-2.23-7.59-3.35-5.68-2.07-7.82-2.78S230.39,30.77,230.39,30.77Z"/><path class="cls-4" d="M54,33.46c.61-.34,1.29-.64,2-1s1.45-.71,2.23-1.06a117.41,117.41,0,0,1,11-4.32c4.12-1.4,8.63-2.67,13.24-3.78a246.32,246.32,0,0,1,25.26-4.55,53.2,53.2,0,0,1,8.26-.45c1,0,1.77.1,2.3.15l.82.09-.8-.2c-.52-.13-1.29-.3-2.28-.45a46.06,46.06,0,0,0-8.39-.47,131.78,131.78,0,0,0-25.79,3.28A96.89,96.89,0,0,0,68.41,25a88,88,0,0,0-10.83,5.24c-.76.44-1.46.89-2.14,1.3s-1.32.8-1.89,1.21c-1.16.81-2.19,1.47-3,2.09l-2.49,1.92,2.72-1.57C51.65,34.66,52.75,34.13,54,33.46Z"/><path class="cls-4" d="M195.63,16.75A104,104,0,0,0,210,17a103.86,103.86,0,0,0,14.27-1.82c1.9-.37,3.45-.72,4.54-1l1.69-.42s-2.53,0-6.37.09-9,.2-14.27.48-10.4.72-14.23,1.05-6.35.6-6.35.6l1.73.24C192.11,16.4,193.7,16.59,195.63,16.75Z"/><path class="cls-4" d="M232.82,28.5c.44-.17,1-.4,1.56-.66s1.29-.57,2-.93a60.12,60.12,0,0,0,10.37-6.35,58.41,58.41,0,0,0,7.65-7.11,54,54,0,0,0,3.87-4.79l-.12-.15-.28.22-12.75,9.72-9.44,7.32L231.44,29Z"/><path class="cls-4" d="M33.58,102.41c1-1.88,1.59-3.19,1.59-3.19s-1.09.92-2.64,2.37a76.79,76.79,0,0,0-5.48,5.62,77.59,77.59,0,0,0-4.78,6.22c-1.22,1.75-2,2.95-2,2.95a35.62,35.62,0,0,0,2.93-2A39.29,39.29,0,0,0,29.07,109,39.93,39.93,0,0,0,33.58,102.41Z"/><path class="cls-4" d="M4.59,123.61l8.69-1c6.43-.7,63-7.43,70.09-25.17A12.41,12.41,0,0,0,84,95.06c.67-4.07-.45-9.63-3.33-16.56,16.94-2.08,44.39-2,73.56,4.29,15.71,3.37,31.62,3.35,44.8,0,12.2-3.15,20.45-8.61,22.64-15a38.92,38.92,0,0,0,1.56-7.81c28.52-5.59,41.35-19.18,41.89-19.76l4.29-4.64-6.31-.28A53.47,53.47,0,0,1,242.49,30C259.23,20.41,266.4,6.66,266.71,6l3.09-6-6.52,1.89C244,7.5,220.75,8.38,203.8,9h0c-6,.22-11.14.42-15.32.78-4.89.42-8.37,1.9-10.77,4.54-3.09,3.39-3.63,8-3.46,12.46-3.91-1.21-8-2.67-12.23-4.21-18.13-6.53-40.69-14.67-70.53-9.87l-.49.08C55.09,18.73,32.06,37.2,26,47.45c-2,3.3-2.54,6.16-1.72,8.49C25.4,59.19,28.69,66.45,34,77.53A98.48,98.48,0,0,1,6,87.35L0,88.54l4.71,3.94a46.63,46.63,0,0,0,20.81,8.84A139,139,0,0,1,11,117.61Zm75.6-32.23c-2.9-2.09-8.28-1.24-15.11.17l-.53.11c-6.15,1.27-16.29,3.36-18.69.67.53-1.54,3.74-7.79,21.42-13.12a69.66,69.66,0,0,1,8.54-1.89c.58,1.24,1.13,2.51,1.63,3.77a27.29,27.29,0,0,0-3.4,0,28.1,28.1,0,0,0-6.18,1.2,27,27,0,0,0-4,1.6c-.46.23-.82.42-1,.56l-.37.21.41-.1L64,84.34a38.06,38.06,0,0,1,4.15-.7,41,41,0,0,1,6-.25,27.64,27.64,0,0,1,4.36.43c.36,1.06.68,2.09.94,3.11-.33-.12-.67-.22-1-.31a16.41,16.41,0,0,0-4-.46,28.69,28.69,0,0,0-6.72.81,28,28,0,0,0-4.41,1.47c-1,.44-1.57.73-1.57.73s.61-.14,1.69-.33a39.4,39.4,0,0,1,10.91-.44,16.94,16.94,0,0,1,3.43.68,9.12,9.12,0,0,1,2.36,1.1C80.12,90.59,80.17,91,80.19,91.38Zm138.42-27.5c-1.06,1-2.12,1.94-3.18,2.83L215,67c.16-.76.35-1.7.55-2.78l.83-.53q1.28-.86,2.55-1.83C218.86,62.58,218.74,63.25,218.61,63.88Zm.83-5.79c-.3.31-.61.62-.94.92-.78.7-1.57,1.38-2.36,2,.11-.74.22-1.53.33-2.34l1-.65c.69-.47,1.39-1,2.07-1.52C219.53,57.06,219.49,57.58,219.44,58.09Zm.36-5.26-.42.49a26.14,26.14,0,0,1-2.56,2.38c.11-1.12.21-2.27.29-3.44l.95-.66,1.84-1.34C219.87,51.12,219.84,52,219.8,52.83Zm-2.56-3.48c0-.94,0-1.87,0-2.78.9-.6,1.8-1.25,2.71-2,0,.8,0,1.61,0,2.42C219.07,47.82,218.15,48.59,217.24,49.35Zm1.33-8.86c.46-.28.93-.59,1.38-.93,0,.49,0,1,0,1.5-.4.45-.84.89-1.29,1.31s-1,.87-1.45,1.28c0-.81,0-1.6-.09-2.35C217.62,41.05,218.1,40.78,218.57,40.49Zm-1.61-2c-.08-1-.15-1.82-.23-2.55a24.54,24.54,0,0,0,3.08-1.84c0,.62.05,1.27.06,1.94a14.05,14.05,0,0,1-2.69,2.3ZM188.81,13.79c4.08-.35,9.2-.54,15.13-.77,12.35-.47,28-1.06,43.16-3.5,5-.8,10-1.81,14.72-3.07a63,63,0,0,1-26,22.44l-1.67.78,1.51,1.06a55,55,0,0,0,24.78,8.36c-4.33,3.72-16.8,12.88-38.74,17.06.91-12.21,0-27.83-.11-29.13v0a4,4,0,0,0-1.34-3c-3-2.75-10.58-2.33-20.21-1.79l-1.79.09c-7.2.4-14-1.16-16.49-3.78a2.84,2.84,0,0,1-.88-1.77C182.62,15.09,185.2,14.1,188.81,13.79ZM178.27,27.36a24.68,24.68,0,0,0,3.56,1.4,41.3,41.3,0,0,0,6.88,1.74,16.82,16.82,0,0,0,4.95.06c.59-.1,1-.2,1.34-.28l.46-.13H195a12.53,12.53,0,0,1-1.33,0A19.25,19.25,0,0,1,189,29.2c-1.88-.59-4-1.52-6.38-2.54a22.6,22.6,0,0,1-4.38-2.33,17.49,17.49,0,0,1,.4-3.18,12.53,12.53,0,0,0,3.59,3.79,16.37,16.37,0,0,0,4.92,2.23,25.2,25.2,0,0,0,4.77.81,33.6,33.6,0,0,0,4.22.07,32.89,32.89,0,0,0,6.11-.86c.72-.18,1.27-.33,1.64-.45l.57-.17s-.82.11-2.27.2a39.6,39.6,0,0,1-6-.05,39.73,39.73,0,0,1-4-.55A27.74,27.74,0,0,1,187.83,25a15.49,15.49,0,0,1-4.1-2.16,11.91,11.91,0,0,1-1.45-1.3c3.61,2.11,9.66,3.25,16.12,2.89l1.79-.09c8.4-.47,16.34-.91,18.66,1.23a1.9,1.9,0,0,1,.62,1.23c-2.16,4.23-20.73,7.06-36.76,4.07-1.39-.26-2.8-.58-4.23-.95C178.39,29.07,178.31,28.2,178.27,27.36ZM29.42,49.49c5.71-9.63,27.66-27,62.22-32.74l.47-.08C120.94,12,143,20,160.66,26.37c7.65,2.76,14.88,5.36,21.66,6.63a83.28,83.28,0,0,0,26.48.36c4.67-.75,8.56-2,10.84-3.65,0,.35,0,.75.05,1.16a32.15,32.15,0,0,1-3.26,2.44v0c-.66.44-1.32.85-2,1.22a32.73,32.73,0,0,1-5.73,2.52,32.88,32.88,0,0,1-4.3,1.09c-.53.11-1,.15-1.23.2l-.44.07.44,0c.29,0,.71.09,1.25.11a24.43,24.43,0,0,0,4.58-.21,25.21,25.21,0,0,0,6.42-1.8l.55-.26c-.1.72-.21,1.55-.32,2.46,0,.21-.05.43-.08.64-.48.29-1,.58-1.45.84a35,35,0,0,1-5.81,2.54A36.82,36.82,0,0,1,204,43.91c-.54.11-1,.18-1.24.22l-.44.08.44,0c.29,0,.72.06,1.27.08a26.05,26.05,0,0,0,11.09-2.06l.16-.07c-.12,1.06-.23,2.17-.34,3.33-1.7,1.31-3.35,2.45-4.82,3.37-1.7,1.07-3.17,1.86-4.2,2.41-.51.27-.92.47-1.2.61l-.43.22.47-.11c.3-.07.75-.18,1.31-.34a35.5,35.5,0,0,0,4.66-1.61,40.67,40.67,0,0,0,4-1.94c-.08,1-.14,2-.2,3,0,.15,0,.31,0,.46a53.33,53.33,0,0,1-4.5,3.25,29.31,29.31,0,0,1-5.19,2.65c-.66.24-1.19.42-1.55.52l-.56.17.58-.05c.38,0,.93-.12,1.64-.24A25,25,0,0,0,210.61,56a38.29,38.29,0,0,0,3.78-2c0,1.24-.06,2.45-.07,3.61a42,42,0,0,1-4.58,2.84,43.2,43.2,0,0,1-5,2.24c-.62.23-1.1.41-1.43.51l-.51.18.53-.06c.35,0,.86-.12,1.52-.23a32.48,32.48,0,0,0,5.37-1.42,33.12,33.12,0,0,0,4-1.77c0,.9,0,1.76,0,2.57a62.12,62.12,0,0,1-5.67,3.88c-1.95,1.19-3.63,2.06-4.82,2.65-.59.3-1.06.52-1.38.67l-.49.23.53-.13c.34-.07.85-.2,1.49-.38a45,45,0,0,0,5.28-1.85A45.53,45.53,0,0,0,214.4,65c0,1,.06,1.85.09,2.52-1,.79-1.94,1.52-2.89,2.19-1.25.89-2.56,1.8-3.71,2.47a36.88,36.88,0,0,1-5.68,2.64c-.72.28-1.3.46-1.69.59l-.6.2.63-.09c.41-.06,1-.14,1.78-.3a32.64,32.64,0,0,0,6.25-2,38,38,0,0,0,4-2,45.13,45.13,0,0,0,4.24-2.74l.15-.12c-2.77,4.24-9.72,8.15-18.9,10.51-12.59,3.25-27.85,3.25-43,0-35.66-7.66-72.19-6.6-88.44-1.71-15,4.5-20.2,9.81-22,12.85-.36-.73-.81-1.62-1.31-2.64a91.6,91.6,0,0,1,8.48-7.17c1.4-1,2.59-1.86,3.43-2.42l1.33-.88s-.55.16-1.51.51a41.06,41.06,0,0,0-3.94,1.65,42,42,0,0,0-9,5.88c-.41-.82-.83-1.69-1.28-2.6l.92-.83.52-.44c1,1.46,1.59,2.31,1.59,2.31s-.36-1.07-1-2.82c.64-.54,1.29-1.07,1.92-1.58,2-1.6,3.89-3,5.54-4.15s3.06-2.07,4-2.69l1.55-1-.45.15-1.28.45c-1.1.41-2.68,1-4.53,1.91a53.14,53.14,0,0,0-6.19,3.49c-.49.32-1,.66-1.48,1-.38-1-.81-2.15-1.29-3.35a61.89,61.89,0,0,1,7.21-5.93c1.45-1,2.7-1.8,3.59-2.33l1.4-.82s-.57.14-1.57.44a34.81,34.81,0,0,0-4.08,1.55,36,36,0,0,0-5.52,3.12c-.67.47-1.35,1-2,1.52-.37-.89-.76-1.8-1.16-2.73,2-1.55,3.9-2.89,5.6-4,1.88-1.21,3.47-2.14,4.6-2.77l1.78-1s-.71.19-1.94.59a48.28,48.28,0,0,0-5.07,2,49.24,49.24,0,0,0-5.87,3.14c-.09-.18-.17-.37-.26-.56-.31-.67-.63-1.33-.95-2,1.75-1.52,3.43-2.86,4.92-3.94s2.82-2,3.74-2.57l1.45-.92s-.59.17-1.63.54a41.7,41.7,0,0,0-9.48,4.88c-.37-.72-.73-1.42-1.09-2.1,1.75-1.79,3.44-3.38,4.92-4.68s2.62-2.23,3.48-2.9l1.34-1.06s-.57.24-1.56.7a44.22,44.22,0,0,0-4,2.19,45.66,45.66,0,0,0-5.23,3.7l-1-1.76c1.45-1.71,2.88-3.25,4.13-4.57C38,51,39.22,49.72,40.11,48.82l1.39-1.43L39.85,48.5c-1.05.71-2.55,1.76-4.31,3.12-1.33,1-2.81,2.24-4.32,3.65-.35-.6-.66-1.14-.94-1.6,1.47-2,2.92-3.86,4.22-5.36s2.47-2.75,3.28-3.59l1.29-1.3s-.57.33-1.55,1a46.23,46.23,0,0,0-8.44,7.26v0l-.62.69-.45.53A11.15,11.15,0,0,1,29.42,49.49Zm5,17.46L35,68.2l.45.93c-.25.17-.49.35-.73.53l-1-2.07C34,67.37,34.19,67.16,34.42,67Zm-1.8-1.74-.73-1.59.79-.86c.24.6.48,1.21.73,1.82Zm3.9,6.09q.7,1.36,1.41,2.64l-.8.77-1.35-2.8Zm2.75,5c.56.94,1.09,1.82,1.59,2.6l.06.1-.77.57-.49.39c-.43-.87-.86-1.77-1.31-2.69ZM28.59,56.09l1.22-1.77.54,1.78-.61.61c-.21.21-.42.44-.62.66C28.93,56.92,28.75,56.49,28.59,56.09Zm2.18,5.06-.61-1.35c.33-.43.66-.85,1-1.25.19.55.39,1.11.6,1.7C31.42,60.54,31.09,60.84,30.77,61.15Zm1,38.43,1-1.54-1.86-.12A45.42,45.42,0,0,1,9.19,90.78,99.26,99.26,0,0,0,37.45,80.27c3.28,6.74,6,12.24,6.3,12.76h0l0,.06c2.65,4.47,12.94,2.35,21.2.65l.53-.11c2.23-.46,4.13-.81,5.76-1-.16.18-.32.37-.48.54-.58.61-1.17,1.19-1.77,1.72a26.29,26.29,0,0,1-3.55,2.57,24.32,24.32,0,0,1-2.8,1.41c-.35.16-.63.26-.82.34l-.3.12h.32c.2,0,.51,0,.9,0a15.07,15.07,0,0,0,3.22-.6,17.13,17.13,0,0,0,4.37-2A18,18,0,0,0,72.58,95a17.59,17.59,0,0,0,2-2.19,1.83,1.83,0,0,0,.26-.5,12.16,12.16,0,0,1,2.1.11,21.54,21.54,0,0,1-4.59,5.27,26.5,26.5,0,0,1-6.07,3.86,26,26,0,0,1-4.83,1.68c-.6.16-1.08.25-1.4.31l-.5.1h.51a13.69,13.69,0,0,0,1.45,0,22.48,22.48,0,0,0,5.23-.85,23.11,23.11,0,0,0,7-3.33,24.56,24.56,0,0,0,3.42-3,16.46,16.46,0,0,0,2.21-3A3.22,3.22,0,0,1,80,94.64,7.86,7.86,0,0,1,79.66,96c-4.58,11.42-36.89,18.13-54.85,21-3.65.59-6.71,1-8.82,1.3A141.29,141.29,0,0,0,31.74,99.58Z"/><path class="cls-4" d="M34.42,85.42l.69-.6-.88.23-2.29.6-3.22.84c-1.17.3-2.43.63-3.69,1s-2.5.73-3.66,1.09l-3.18,1-2.27.69-.86.26s.32.07.89.15a23.87,23.87,0,0,0,2.4.23,25.73,25.73,0,0,0,3.45-.08,24.23,24.23,0,0,0,4-.73,24.77,24.77,0,0,0,3.75-1.45,26.05,26.05,0,0,0,4.91-3.18Z"/><path class="cls-1" d="M265.46,257.58c.53,1.13,1.2,2.25,1.8,3.3,4,6.95,6.25,12.44,6.25,20.7V391.85c0,2.71-1.61,4.6-2.56,7-1,2.55-1.52,5.47-3.92,7.17-20.65,14.6-62.45,15.13-83.17.44-2.35-1.67-2.64-4.21-3.79-6.59-1.24-2.58-3.3-5-3.3-8V281.58c0-8.26,2.24-13.75,6.25-20.7.63-1.08,1.33-2.25,1.88-3.43a8.63,8.63,0,0,1-1.43-2.42H183v-7.82a.53.53,0,0,1,0-.14V244.6h.43c2.9-8.4,19.49-11.24,26.75-12.13a123,123,0,0,1,15-.88c9.26,0,19.67,1,28.53,3.79,4.46,1.42,11.31,4.3,13.16,9.23l.49,0v2c0,2.18.26,5.86-.28,7.85A9.11,9.11,0,0,1,265.46,257.58Z"/><path class="cls-2" d="M265.22,246.62c0,1.54.17,5.94-.21,7.31a7.46,7.46,0,0,1-2,3.27,33.8,33.8,0,0,0,2.43,4.71c2.65,4.6,6,10.34,6,19.67V391.85c0,2.1-1.44,3.76-2.41,6.21s-1.42,5-3.2,6.24c-19.8,14-60.65,14.71-80.77.45-1.73-1.23-2.06-3.62-3.12-5.8-1.34-2.77-3.09-4.78-3.09-7.1V281.58c0-9.33,3.32-15.07,6-19.67a32,32,0,0,0,2.5-4.89,6.63,6.63,0,0,1-2.29-4.65v-5.75a.81.81,0,0,1,0,.16c.59-8.32,18.36-11.4,25.36-12.26a121.2,121.2,0,0,1,14.72-.87c10.87,0,20.73,1.41,27.89,3.7,7.31,2.33,11.92,5.67,12.19,9.49a1.5,1.5,0,0,0,0-.22Zm-78.58,33.3.25,117.36a38,38,0,0,0,8.15,3.93c16.83,5.77,36.94,7,53.91,1.17a49.33,49.33,0,0,0,7.81-3.39l1-117.08a.26.26,0,0,1,.18-.24l1.26-.38a.24.24,0,0,1,.22,0,.23.23,0,0,1,.1.2l-.94,116.35a25.24,25.24,0,0,0,2.46-1.81L262,280.56a.24.24,0,0,1,.17-.23l3-.93a.25.25,0,0,1,.22,0,.26.26,0,0,1,.1.2l-.91,112.21a9.71,9.71,0,0,0,1.16-4.43l1.43-109.79v-.42c-20.7,7.41-50.32,8.84-70.26,2a.24.24,0,0,1-.16-.3.24.24,0,0,1,.29-.18c20.95,4.85,49.21,3.42,69.88-3.92a10.34,10.34,0,0,0-.28-1.16c-13.61,4.73-37.07,8.43-56,5a.25.25,0,0,1-.21-.27.25.25,0,0,1,.28-.22c14.52,1.64,35.09-.33,49-4.27l-4.21-12.3c-8.82,3.22-21.2,4.15-26.49,4.31-7.71.23-22.24-.38-32.61-3.88l-4.09,5.57a.25.25,0,0,1-.32.07.25.25,0,0,1-.11-.31l2.53-6.06-.81-.33-6.7,9.12a.25.25,0,0,1-.43-.24l4.29-10.28q-.73-.42-1.41-.87a42.77,42.77,0,0,1-2.36,4.49c-2.51,4.34-5.64,9.75-5.64,18.43,0,9.1-.1,99.62,0,110.19a2.43,2.43,0,0,0,.74,1.74c.53.51,1.1,1,1.71,1.52l0-116.11a8.35,8.35,0,0,0,2.85,1Zm77.54-7.5,1.76-.66c-1.16-2.52-2.94-4.65-4.54-7.41a41.34,41.34,0,0,1-2.3-4.36c-.41.21-.83.42-1.26.61l6.34,11.82ZM229.63,251c.12,1.54-1,3-2.56,4h1.12c2.19-1.33,2.74-3.11,1.44-4ZM217,249.43c-2,.58-3.77,2.89-3.25,5l1.25.08c-.51-2.05.45-3.56,2-5.1Zm16.57-2.66-1,.95c.08,2.87.47,4.82-2.6,7.24,3.54-1.16,4.12-4.49,3.57-8.19Zm-15.1-1.16c-4,.89-7.68,4.17-7.1,7.92.45-2.89,2.91-5.26,6.19-6.75l.91-1.17Zm-1,3.94c1.13.84,3.08.9,5,1.06s3.73.16,5,.14a9.3,9.3,0,0,0,3.11-.47,2.47,2.47,0,0,0,1.36-2.13c-.11-.68,1.48-1.65,3.14-2.77a14.08,14.08,0,0,0,3.38-2.67,2.72,2.72,0,0,0,.24-1.68,1.79,1.79,0,0,0-1.22-.79,51.79,51.79,0,0,0-14.3-.85,5.34,5.34,0,0,0-3.28,1.22c-1.17,1.6-.09,5.27-2.15,6.59a2,2,0,0,0-.71.73,1.54,1.54,0,0,0,.35,1.62Zm15.95-6.68a18,18,0,0,0-10-.35c.19.33,1.65.79,4.29.93,3.11.16,5.09-.23,5.74-.58Zm-10,6.39c.78,0,8.06.35,7.6-1.25-.36-1.29,5.57-4.44,6.89-6.23.28-.39-.07-1.15-1-1.28a89.92,89.92,0,0,0-13.47-.75,4.6,4.6,0,0,0-2.78,1.07c-1.37,1.86-.23,5.3-2.43,6.47-2.72,1.46,4.89,2,5.24,2ZM230,248c.07-1.57,5.88-4.66,7.12-6.35.14-.19-.12-.68-.63-.75a90.11,90.11,0,0,0-13.39-.75c-3.58.06-1.35,5.43-4,7.24,3.1-1.63,1-6.72,4-6.86a89.45,89.45,0,0,1,13.14.74.38.38,0,0,1,.28.51c-1,1.35-7.6,5-6.48,6.22Zm-5.77-3.66a2.25,2.25,0,0,0-2,.91c-.84,1.15-2.29,2.41.12,2.54,1.46.08,6,.64,6.87-.54a14.28,14.28,0,0,0,1-1.43c.43-.76,0-1-.7-1.15a49.27,49.27,0,0,0-5.3-.33Zm.3.83a3.09,3.09,0,0,0-2,.52c-1,1.41-1.69,1.68.14,1.78,1.3.07,5.3.59,5.88-.26.76-1.1,1.55-1.59.66-1.69-.65-.07-2-.2-4.64-.35Zm5.05-4.4c-8.07-.45-9.77,2.61-2.18,3,4.3.23,6.69-.64,7.11-1.43s-.91-1.38-4.93-1.61Zm6.51-.09a61,61,0,0,0-12.78-.71,98.45,98.45,0,0,1,12.78.71Zm-7.23,8.13a46,46,0,0,1-10.33-.58,28.27,28.27,0,0,0,10.33.58Zm-3.06-3.18c-2.53-.15-3.4,1-.93,1.14s3.41-1,.93-1.14Zm.19-.17c-3.2-.18-4.49,1.69-1.37,1.86s4.5-1.69,1.37-1.86Zm-35.11,1.75c0,2.08,3.64,4.12,9.53,5.72,8.94,2.43,22.11,3.24,34.08,2.29-11.61.42-24.05-.26-32.63-2.51-5.75-1.51-9.35-3.1-9.35-5.07,0-2.24,6.14-4.34,8.82-5.11A80.19,80.19,0,0,1,220,239.86c3.56-1.26,14.54-1.2,19.49.5A63.49,63.49,0,0,1,250,242.25c5.53,1.45,9,3.28,9.28,5.17a.75.75,0,0,0,0-.21c0-2.1-3.64-4.13-9.53-5.73-13.22-3.59-35.68-3.9-49.85.3-2.75.81-9,3-9,5.43Zm69.52,0c0-2.16-3.76-4.26-9.84-5.92-13.65-3.71-36.84-4-51.46.31-2.84.84-9.33,3.15-9.33,5.61,0,2.15,3.76,4.25,9.84,5.91,13.65,3.71,36.84,4,51.46-.31,2.84-.84,9.33-3.15,9.33-5.6Zm-2.86,8.61-.94.38v1.95c.32-.13.63-.28.94-.42v-1.91ZM254.31,257c-.83.28-1.69.53-2.57.77v2.05c.84-.24,1.71-.51,2.57-.81v-2Zm-3.62,1c-11.6,2.94-26.5,3.16-35.85,2.37-6.31-.54-21-2.47-27.9-8.19a5.62,5.62,0,0,0,1.52,2.36c7.51,7.48,30.26,8.73,40.47,8.43a109.23,109.23,0,0,0,17.58-1.95c1.09-.22,2.56-.53,4.18-1v-2.06Zm-64.25-11.66c0,1.88,1.14,3.3,3.05,4.67-7-6.73,3.58-10.88,8.48-12.33,14.63-4.67,40.5-5,55.76.64a36.54,36.54,0,0,1,7.84,4c-2.44-2.51-7.17-4.26-9.44-5-14.79-4.71-38.71-4.85-54.11-.31-3.51,1-11.36,3.72-11.58,8.3Zm36.2,12c9.39.15,20.15-.72,28.88-3.3,4.27-1.26,16.61-6.22,9.06-11.41,6.08,5.55-5.09,9.53-9,10.69-14.74,5-38.6,4.47-53,0a31.54,31.54,0,0,1-8.11-3.57c5.29,5.73,24.13,7.37,32.15,7.59Zm-36,142.36c10.73,14.77,57.53,9.62,63,6.52.25-.14.15-.62-.12-.53-19.09,5.77-45.11,1-62.61-6.26-.14-.07-.29.07-.29.27Zm47.44-164.1,0,1.15a.27.27,0,0,0,.25.24c9.28.2,17.75,2,25.16,6.16-2-3.71-14.46-7-25.19-7.81a.25.25,0,0,0-.2.07A.26.26,0,0,0,234.08,236.67Z"/><path class="cls-3" d="M243,293.86h0c0-1.88-.17-2.73.67-2.87,1-.17,1.08.7.75,5.38,0,.22-.49.57-.73.56a1,1,0,0,1-.69-.64A21.86,21.86,0,0,1,243,293.86Z"/><path class="cls-3" d="M248.64,367.09c.42-1.6,1.73-1.3,1.61.23-.07.83-.21,1.34-.89,1.34S248.47,367.73,248.64,367.09Z"/><path class="cls-3" d="M250.43,383.64h-.35c0,10.53.24,10.27-.74,10.45-1.21.21-.92-.58-.49-19.19,0-1.06.35-1.62.88-1.53,1,.16.7.94.7,1.58C250.44,377.84,250.43,380.74,250.43,383.64Z"/><path class="cls-3" d="M243.77,334.71c-1.34,0-.81-.3-1-24.23-.05-7.36-.75-8,.19-8.28,1.09-.3,1.24,1.16,1.26,2.3C244.89,336.77,244.66,334.7,243.77,334.71Z"/><path class="cls-3" d="M251.71,327.38c0,1.57-.6,5.59-.67,5.91-.12.54-.17,1.24-.95,1.12-1.4-.22-.09-1.75.16-10.29s.3-23.61.34-25.34c0-1.09.34-2.87,1.34-2.41C252.58,296.67,251.72,327.06,251.71,327.38Z"/><path class="cls-3" d="M252.67,289.25h0c0,2.26.21,3.34-.79,3.38s-.85-.74-.76-5.63c0-1.2,1.59-1.42,1.57.12C252.66,287.83,252.67,288.54,252.67,289.25Z"/><path class="cls-4" d="M250.59,298.78c0,1.73-.1,16.77-.34,25.34s-1.56,10.07-.16,10.29c.78.12.83-.58.95-1.12.07-.32.63-4.34.67-5.91,0-.32.87-30.71.22-31C250.93,295.91,250.61,297.69,250.59,298.78Z"/><path class="cls-4" d="M243,302.2c-.94.26-.24.92-.19,8.28.16,23.93-.37,24.24,1,24.23.89,0,1.12,2.06.48-30.21C244.23,303.36,244.08,301.9,243,302.2Z"/><path class="cls-4" d="M249.73,373.36c-.53-.09-.85.47-.88,1.53-.43,18.61-.72,19.4.49,19.19,1-.18.74.08.74-10.45h.35c0-2.9,0-5.8,0-8.7C250.43,374.3,250.68,373.52,249.73,373.36Z"/><path class="cls-4" d="M251.1,287c-.09,4.89-.21,5.67.76,5.63s.79-1.12.79-3.38h0c0-.71,0-1.42,0-2.13C252.69,285.58,251.13,285.8,251.1,287Z"/><path class="cls-4" d="M243.68,296.93c.24,0,.72-.34.73-.56.33-4.68.26-5.55-.75-5.38-.84.14-.67,1-.67,2.87h0a21.86,21.86,0,0,0,0,2.43A1,1,0,0,0,243.68,296.93Z"/><path class="cls-4" d="M249.36,368.66c.68,0,.82-.51.89-1.34.12-1.53-1.19-1.83-1.61-.23C248.47,367.73,248.7,368.66,249.36,368.66Z"/></g></g></svg>